<svg xmlns="http://www.w3.org/2000/svg" width="464" height="464" version="1.0" viewBox="0 0 348 348"><path fill="#e84d31" d="M168.4.9c-5.6 1.4-9.5 4.6-25.9 21.1l-16 16 19.9 19.9 19.8 19.8 4.1-.8c5-.9 12.3.3 17.4 3 9.7 4.9 15.8 17.6 13.5 27.8l-.9 4.1 19.1 19 19.1 19 6.2-.5c11-.9 20.4 3.9 26.1 13.5 2.3 4.1 2.7 5.8 2.7 12.7 0 9.1-1.7 13.6-7.3 19.3-10 10-25.9 10.5-36.4 1.2-7.6-6.7-10.8-16.6-8.5-27 .7-3.5.6-3.6-16.8-21L187 130.5v47.3c0 30.7.3 47.2 1 47.2 2.1 0 8.9 7.3 11.1 11.8 1.7 3.5 2.3 6.4 2.2 11.7 0 8-2.2 13.3-7.7 18.8s-10 7.2-19.2 7.2c-7.2 0-8.6-.3-12.9-3-5.9-3.7-11-10.1-12.6-15.8-1.5-5.5-.6-14.4 1.9-19.3 2.2-4.4 8.6-11.1 11.4-12 1.7-.5 1.8-3.4 1.8-48.4v-47.9l-2.9-1.5c-3.3-1.8-8.4-7.3-10.7-11.8-2.1-4-2.9-13.3-1.6-17.9l1-3.6-19.7-19.7L110.5 54l-53.2 53.2C28.1 136.5 3.4 162.1 2.4 164c-2.5 5-2.3 14.4.4 19.5 2.6 5.1 157.3 159.6 162.2 162.1 4.7 2.3 14.3 2.3 19 0 4.7-2.4 157.4-154.9 160.8-160.5 3.2-5.4 3.6-14.6.8-20.1-2.3-4.5-157-159.5-161.6-162C179.7.8 172.6-.2 168.4.9"/></svg>