<?xml version="1.0" standalone="no"?>
<!DOCTYPE svg PUBLIC "-//W3C//DTD SVG 20010904//EN"
 "http://www.w3.org/TR/2001/REC-SVG-20010904/DTD/svg10.dtd">
<svg version="1.0" xmlns="http://www.w3.org/2000/svg"
 width="348.000000pt" height="348.000000pt" viewBox="0 0 348.000000 348.000000"
 preserveAspectRatio="xMidYMid meet">

<g transform="translate(0.000000,348.000000) scale(0.100000,-0.100000)"
fill="#000000" stroke="none">
<path d="M1684 3471 c-56 -14 -95 -46 -259 -211 l-160 -160 199 -199 198 -198
41 8 c50 9 123 -3 174 -30 97 -49 158 -176 135 -278 l-9 -41 191 -190 191
-190 62 5 c110 9 204 -39 261 -135 23 -41 27 -58 27 -127 0 -91 -17 -136 -73
-193 -100 -100 -259 -105 -364 -12 -76 67 -108 166 -85 270 7 35 6 36 -168
210 l-175 175 0 -473 c0 -307 3 -472 10 -472 21 0 89 -73 111 -118 17 -35 23
-64 22 -117 0 -80 -22 -133 -77 -188 -55 -55 -100 -72 -192 -72 -72 0 -86 3
-129 30 -59 37 -110 101 -126 158 -15 55 -6 144 19 193 22 44 86 111 114 120
17 5 18 34 18 484 l0 479 -29 15 c-33 18 -84 73 -107 118 -21 40 -29 133 -16
179 l10 36 -197 197 -196 196 -532 -532 c-292 -293 -539 -549 -549 -568 -25
-50 -23 -144 4 -195 26 -51 1573 -1596 1622 -1621 47 -23 143 -23 190 0 47 24
1574 1549 1608 1605 32 54 36 146 8 201 -23 45 -1570 1595 -1616 1620 -43 22
-114 32 -156 21z"/>
</g>
</svg>
