<svg xmlns="http://www.w3.org/2000/svg" width="1226.667" height="662.667" version="1.0" viewBox="0 0 920 497"><g fill="#c03b13"><path d="M418.3 5.6c-.3.8 1.3 7 3.6 13.7 5.1 14.7 31.6 93.1 45 133.2 8.5 25.3 10 29.2 12.3 30.5 4.4 2.4 7.8.5 10.4-6 1.2-3 14.1-29.5 28.6-58.8L544.6 65l2.5 2.7c1.4 1.6 6.4 10.9 11.2 20.8 4.7 9.9 16.7 34.5 26.6 54.8 10 20.2 18.1 37.1 18.1 37.6 0 .4.9 1.6 2 2.6 2.4 2.2 6.4 1.4 8.4-1.8 1.3-2 59.6-175 59.6-176.9 0-.4-57.2-.8-127-.8-114.4 0-127.1.2-127.7 1.6M456.2 207.5c-15.5 4.3-27.2 18.1-28.9 34-1.7 16.3 10.3 33.6 26.9 38.6 21.6 6.6 43.4-6.9 47.8-29.8 1-5.2 1-7.3-.4-13.3-2-8.9-5.3-14.6-12.2-20.9-8.9-8.2-22.2-11.6-33.2-8.6M621 207.1c-15.5 3.1-28.5 17.4-30.4 33.3-1.1 9.3 2.9 21.6 9.4 29 4.1 4.6 11.3 9.1 17.9 11 19.9 5.8 41.5-6.8 46.7-27.4 1.9-7.6 1.4-14.2-1.8-22.7-2.9-8-13-18.1-20.9-21.1-6.8-2.5-14.9-3.4-20.9-2.1M289.1 209c-21.2 7.6-31.2 32.2-21.2 52.4 3.7 7.6 10 13.7 18.1 17.5 4.8 2.3 6.8 2.6 15.5 2.6 8.3 0 10.8-.4 14.9-2.3 18.7-8.6 27-29 19.6-48.4-2.3-6.2-9.3-14.7-14.9-18.2-9.2-5.7-22-7.2-32-3.6"/><path d="M529.9 247c-1.7 1.6-2.9 4.3-3.4 7.1-1 5.8-4.8 16.4-8.2 22.5-1.5 2.7-6.1 8.3-10.2 12.5-9.1 9.1-18.8 14.3-29.6 15.8-3.9.6-10.1 1.5-13.9 2-3.9.6-8.1 1.8-9.5 2.9-1.4 1-6.4 6.8-11.1 12.8-16 20.7-36.8 40.1-56.7 53.1-8.5 5.6-30.3 16.7-38.5 19.8-7.6 2.8-13.5 1.7-21.7-3.8-20.2-13.9-32.6-33.4-34.9-55.3-.8-7.6-.8-8.8.2-21 .8-8.2.5-8.6-7.2-10.4-4.3-1-5.5-1-6.9.1-4 3.3-20.3 40.5-25.9 59.3-15.8 52.4-.5 100.5 38 119.5 13.1 6.5 23.3 8.6 41.6 8.5 13.8-.1 16.7-.5 27-3.1 21.5-5.7 38.4-12.7 77.2-32 63.1-31.3 91.9-41.7 129.8-46.8 35.9-4.9 48.2-7.9 64-15.7 9.1-4.5 11.7-6.5 19.6-14.3 7.6-7.6 9.7-10.5 13.6-18.5 2.6-5.3 5.4-13 6.4-17.3 3.3-15.8 0-41.3-6-45.2-2.1-1.4-3-1.3-11.2 1.9-11.7 4.5-20.6 6-30.3 5.2-15.3-1.4-28.1-7.7-38.9-19.1-7.4-7.8-12.1-16.4-14.7-26.7-3.6-14-5.8-15.6-23-16.1-12.9-.4-13-.4-15.6 2.3"/></g></svg>