<?xml version="1.0" standalone="no"?>
<!DOCTYPE svg PUBLIC "-//W3C//DTD SVG 20010904//EN"
 "http://www.w3.org/TR/2001/REC-SVG-20010904/DTD/svg10.dtd">
<svg version="1.0" xmlns="http://www.w3.org/2000/svg"
 width="920.000000pt" height="497.000000pt" viewBox="0 0 920.000000 497.000000"
 preserveAspectRatio="xMidYMid meet">

<g transform="translate(0.000000,497.000000) scale(0.100000,-0.100000)"
fill="#c03b13" stroke="none">
<path d="M4183 4914 c-3 -8 13 -70 36 -137 51 -147 316 -931 450 -1332 85
-253 100 -292 123 -305 44 -24 78 -5 104 60 12 30 141 295 286 588 l264 532
25 -27 c14 -16 64 -109 112 -208 47 -99 167 -345 266 -548 100 -202 181 -371
181 -376 0 -4 9 -16 20 -26 24 -22 64 -14 84 18 13 20 596 1750 596 1769 0 4
-572 8 -1270 8 -1144 0 -1271 -2 -1277 -16z"/>
<path d="M4562 2895 c-155 -43 -272 -181 -289 -340 -17 -163 103 -336 269
-386 216 -66 434 69 478 298 10 52 10 73 -4 133 -20 89 -53 146 -122 209 -89
82 -222 116 -332 86z"/>
<path d="M6210 2899 c-155 -31 -285 -174 -304 -333 -11 -93 29 -216 94 -290
41 -46 113 -91 179 -110 199 -58 415 68 467 274 19 76 14 142 -18 227 -29 80
-130 181 -209 211 -68 25 -149 34 -209 21z"/>
<path d="M2891 2880 c-212 -76 -312 -322 -212 -524 37 -76 100 -137 181 -175
48 -23 68 -26 155 -26 83 0 108 4 149 23 187 86 270 290 196 484 -23 62 -93
147 -149 182 -92 57 -220 72 -320 36z"/>
<path d="M5299 2500 c-17 -16 -29 -43 -34 -71 -10 -58 -48 -164 -82 -225 -15
-27 -61 -83 -102 -125 -91 -91 -188 -143 -296 -158 -39 -6 -101 -15 -139 -20
-39 -6 -81 -18 -95 -29 -14 -10 -64 -68 -111 -128 -160 -207 -368 -401 -567
-531 -85 -56 -303 -167 -385 -198 -76 -28 -135 -17 -217 38 -202 139 -326 334
-349 553 -8 76 -8 88 2 210 8 82 5 86 -72 104 -43 10 -55 10 -69 -1 -40 -33
-203 -405 -259 -593 -158 -524 -5 -1005 380 -1195 131 -65 233 -86 416 -85
138 1 167 5 270 31 215 57 384 127 772 320 631 313 919 417 1298 468 359 49
482 79 640 157 91 45 117 65 196 143 76 76 97 105 136 185 26 53 54 130 64
173 33 158 0 413 -60 452 -21 14 -30 13 -112 -19 -117 -45 -206 -60 -303 -52
-153 14 -281 77 -389 191 -74 78 -121 164 -147 267 -36 140 -58 156 -230 161
-129 4 -130 4 -156 -23z"/>
</g>
</svg>
