<svg xmlns="http://www.w3.org/2000/svg" width="900" height="900"><path fill="#F6F6F6" d="M0 0h900v900H0z"/><path fill="#FE9802" d="M760 129c6.38 5.006 11.86 10.751 17 17l2.25 2.125c1.863 1.996 2.369 3.208 2.75 5.875h2q1.66 3.28 3.313 6.563l.935 1.845c10.522 20.933 12.27 45.919 5.264 68.342-2.04 5.967-4.591 11.66-7.512 17.25h-2l-.758 2.645c-1.303 3.519-2.892 6.033-5.117 9.042l-2.055 2.825c-1.898 2.282-3.562 3.92-6.07 5.488h-2l-.602 1.695c-1.957 3.227-4.727 5.066-7.773 7.18l-1.907 1.33c-11.11 7.604-24.83 14.49-38.718 13.795l.84 3.36L723 308l.52 1.878c.797 3.522.664 7.105.683 10.7l.017 2.558q.014 2.688.02 5.377c.01 2.686.04 5.371.072 8.057.068 10.87-.846 20.83-3.312 31.43l-.59 2.69a256 256 0 0 1-1.472 6.123l-.487 2.017c-.804 3.206-1.595 5.385-3.451 8.17a86 86 0 0 0-1.312 4.125c-1.358 4.246-3.245 7.88-5.481 11.723-1.661 2.962-2.935 6.005-4.207 9.152h-2c-.235.696-.47 1.392-.71 2.11-1.532 3.432-3.602 6.212-5.915 9.14l-1.333 1.712c-3.818 4.855-7.848 9.504-12.042 14.038-4.329-1.372-6.417-3.23-9.312-6.687a92 92 0 0 0-10.67-10.497c-1.95-1.754-3.612-3.566-5.305-5.565-3.503-4.057-7.197-7.864-11.002-11.638l-2.02-2.015c-2.102-2.097-4.21-4.191-6.316-6.286l-4.258-4.244q-3.904-3.893-7.815-7.782l-1.705-1.7a774 774 0 0 0-4.454-4.378c-1.963-2.023-3.088-3.62-4.143-6.208l1.574-1.95c11-14.253 13.784-28.494 12.426-46.05-2.222-13.439-9.779-25.759-20.75-33.812-9.436-6.12-18.743-10.347-30.086-10.286l-3.223.01-3.316.026-3.387.013q-4.119.018-8.238.049l-1 3c-1.75.52-1.75.52-4 .813-12.443 2.484-23.375 14.554-31 24.187a76 76 0 0 1-3.625 3.125c-2.384 1.926-3.625 3.25-5.375 5.875h-2v2c-1.715 1.656-1.715 1.656-3.937 3.5-2.983 2.39-2.983 2.39-5.063 5.5h-2l-.77 1.793c-1.366 2.45-2.76 3.743-4.918 5.52-3.987 3.373-7.657 6.96-11.312 10.687l-2.687 2.625c-2.373 2.332-2.373 2.332-4.313 5.063-2.23 2.578-3.894 3.086-7 4.312-1.05 1.85-1.05 1.85-2 4a283 283 0 0 1-5 5l-1.937 2.5c-2.406 2.916-5.163 5.083-8.063 7.5a1049 1049 0 0 0-4 5 524 524 0 0 1-5 4l-2 3h-2l-1 3c-2.511 2.726-5.123 5.1-8 7.438-2.273 1.94-3.922 3.584-5.75 5.875L424 408h-2l-.793 1.816c-1.28 2.315-2.47 3.48-4.52 5.122-3.887 3.21-7.477 6.49-10.562 10.5-1.785 2.152-3.43 3.731-5.562 5.5-3.309 2.744-5.91 5.685-8.563 9.062a202 202 0 0 1-13.302-12.157l-1.777-1.767q-2.867-2.856-5.73-5.717l-4.005-3.995q-4.177-4.169-8.349-8.342-5.359-5.355-10.73-10.7a5515 5515 0 0 1-8.249-8.235 2258 2258 0 0 0-3.96-3.947q-2.757-2.745-5.501-5.5l-1.667-1.65C325 374.228 325 374.228 325 372h2l.625-1.687c1.524-2.564 3.363-4.009 5.68-5.844 2.533-2.195 4.599-4.74 6.77-7.285 3.45-3.914 7.207-7.525 10.925-11.184l5-5 3.518-3.518 1.952-1.952 43.988-43.988 4.3-4.304a520 520 0 0 1 4.617-4.55c2.085-2.135 4.008-4.293 5.938-6.563 2.999-3.468 6.216-6.439 9.707-9.402 4.052-3.526 7.731-7.443 11.48-11.286a95 95 0 0 1 5.875-5.25c3.377-2.84 6.153-6.017 9-9.378C458 239 458 239 460.625 236.938c2.586-1.917 2.586-1.917 4.5-5.125 3.64-5.313 8.832-8.908 13.875-12.813q1.628-1.292 3.254-2.586C512.963 192.141 512.963 192.141 528 193v-2c2.664-.679 5.33-1.343 8-2l3.04-.766 3.273-.797 3.05-.753c9.994-1.879 20.124-1.921 30.262-1.934l2.139-.005c10.709-.002 20.8.69 31.236 3.255q2.78.596 5.563 1.188L618 190l.113-1.8c.638-8.04 2.035-16.03 5.887-23.2h2l.305-2.172c3.928-15.977 19.927-27.994 32.547-37.008 3.184-1.841 5.514-2.482 9.148-2.82l1-3c3.472-1.805 7.276-2.824 11-4l3.328-1.145C709.273 106.77 738.021 113.738 760 129"/><path fill="#F24436" d="M535 322c3.243.442 4.844 1.47 7.129 3.772l1.77 1.761 1.878 1.916 1.965 1.97q2.056 2.067 4.102 4.144c2.075 2.106 4.16 4.201 6.248 6.294l3.998 4.03 1.872 1.885C574 357.974 574 357.974 574 361l1.781.824c5.499 2.914 9.383 7.381 13.219 12.176q1.633 1.433 3.313 2.813c2.53 2.1 4.7 4.265 6.816 6.78 4.264 4.938 8.862 9.507 13.496 14.094l2.523 2.51q2.39 2.376 4.782 4.747a750 750 0 0 1 4.976 4.993c2.15 2.188 2.15 2.188 4.969 4.375 2.428 1.977 4.416 4.11 6.438 6.5 3.143 3.699 6.56 6.828 10.28 9.938 1.995 1.865 3.706 3.72 5.473 5.79 3 3.48 6.163 6.757 9.43 9.983l1.462 1.445q3.008 2.967 6.027 5.921 2.229 2.187 4.449 4.384l2.658 2.607C678 463 678 463 678 465l1.688.684c17.46 9.94 29.779 36.307 36.312 54.316l1.023 2.79c4.455 12.693 7.095 25.768 7.18 39.233l.02 2.243c.018 2.37.024 4.74.027 7.109l.007 2.434c.013 11.638-.468 22.836-3.257 34.191l3.223-.062c18.146.3 37.647 14.693 49.777 27.062 17.37 19.023 25.416 42.008 24.418 67.77-1.684 25.8-14.247 47.916-33.48 64.855-19.62 16.576-44.02 20.52-68.938 19.375-21.508-1.887-41.111-13.066-55.687-28.75C631.045 747.074 620 730.937 620 716l-3.883.805A1342 1342 0 0 1 600 720l-3.672.71c-15.156 2.552-31.268 2.254-46.328-.71l-1.979-.358c-9.6-1.755-18.715-4.391-27.896-7.705l-2.865-1.031C513 709.316 509.592 707.82 506 705a201 201 0 0 0-4.875-2.562c-11.6-6.265-21.64-14.34-31.125-23.438 1.47-3.399 3.38-5.65 6-8.25l2.125-2.14C480 667 480 667 482 667l.705-1.688c1.63-2.911 3.657-4.934 6.014-7.296l2.824-2.832 1.47-1.458a794 794 0 0 0 4.444-4.456l2.824-2.817 2.596-2.589C505 642 505 642 507 642l.753-1.74c1.434-2.6 3.09-4.33 5.204-6.412l2.373-2.354c.82-.802 1.638-1.605 2.482-2.432l2.448-2.42q2.336-2.31 4.68-4.613c2.366-2.33 4.716-4.676 7.06-7.029l3-3c2.867.983 4.95 1.96 7.316 3.883C554.827 625.753 568.69 627.058 584 626c13.753-1.856 24.672-8.927 34-19 8.431-11.265 12.912-24.971 12-39l-.172-2.738C628.174 550.71 620.263 538.995 610 529l-2.61-2.645c-2.426-2.464-2.426-2.464-5.452-4.855-2.75-2.34-4.736-4.66-6.938-7.5-2.512-2.644-5.032-5.026-7.875-7.312-2.279-1.866-4.16-3.824-6.05-6.08-5.166-5.965-10.806-11.463-16.395-17.026q-1.784-1.78-3.566-3.562a11182 11182 0 0 0-9.336-9.31q-4.744-4.731-9.485-9.466-8.34-8.327-16.689-16.647Q521.8 440.801 518 437l-1.934-1.934L470 389c1.654-4.236 4.796-7.099 7.947-10.253l1.843-1.869q3.016-3.05 6.046-6.085l4.2-4.227a5405 5405 0 0 1 8.812-8.84c3.773-3.778 7.53-7.574 11.285-11.373 2.884-2.914 5.78-5.817 8.678-8.716a993 993 0 0 0 4.16-4.198 815 815 0 0 1 5.823-5.833l1.732-1.777c1.615-1.584 1.615-1.584 4.474-3.829"/><path fill="#4CAD51" d="M210.684 111.734c8.546-.46 16.376 1.092 24.691 2.954l3.386.738c5.833 1.383 10.537 2.967 15.465 6.399 1.98 1.393 1.98 1.393 5.325 2.652 4.075 1.8 7.19 4.116 10.637 6.898l1.826 1.422c3.51 2.789 6.246 5.629 8.986 9.203l2.504 2.438C293.686 154.89 303 173.36 303 188l2.422-.621c37.303-9.15 74.63-1.081 107.844 16.945 2.777 1.702 5.208 3.626 7.734 5.676l3.188 1.688c4.345 2.386 7.776 5.728 11.382 9.093 2.397 2.19 4.875 4.218 7.43 6.219-1.351 3.01-2.863 5.12-5.187 7.453l-1.868 1.875L434 238.25l-1.945 1.969-1.868 1.86-1.707 1.7C427 245 427 245 425 245l-.687 1.688c-1.694 2.984-3.83 4.939-6.313 7.312q-1.658 1.687-3.312 3.375c-2.45 2.46-4.976 4.756-7.625 7-3.871 3.312-7.13 7.003-10.399 10.902L395 277h-2v2c-2.693 2.938-5.574 5.504-8.625 8.063-2.508 2.114-4.566 4.17-6.375 6.937-3.245-.6-5.094-1.66-7.625-3.75-9.452-7.309-19.375-10.648-31.25-10.5l-2.394.02c-13.38.237-27.033 4.134-36.606 14.043L298 296h-2l-.785 1.64c-1.432 2.782-3.038 5.43-4.652 8.11-7.22 12.34-9.628 25.757-6.875 39.938 3.504 12.88 9.706 24.063 20.312 32.312a318 318 0 0 1 5 6c2.38 2.499 4.703 4.771 7.438 6.875 2.722 2.258 4.833 4.69 7.093 7.395 2.85 3.356 5.916 6.285 9.344 9.043 2.428 1.976 4.416 4.11 6.438 6.5 3.246 3.822 6.832 7.03 10.617 10.308 2.68 2.432 4.81 5.055 7.07 7.879a499 499 0 0 0 5 5q1.485 1.482 2.967 2.967l21.066 21.066 1.516 1.514q2.099 2.106 4.187 4.224c2.21 2.266 2.21 2.266 4.702 4.104 2.722 2.258 4.833 4.69 7.093 7.395 2.888 3.402 6.008 6.356 9.469 9.168 3.079 2.63 5.45 5.425 8 8.562a563 563 0 0 0 5 5l2.684 2.719c4.604 4.65 9.157 9.237 14.316 13.281-1.244 3.732-3.172 5.307-6 8l-1.687 1.813C434 528 434 528 432 528l-.75 1.75c-1.433 2.58-3.034 4.311-5.25 6.25h-2l-2 4h-2l-.812 1.938C418 544 418 544 415 545a89 89 0 0 0-2 4c-1.5 1.75-1.5 1.75-3 3h-2l-.625 1.61c-1.955 3.398-4.596 5.9-7.375 8.64l-1.656 1.68c-4.09 4.07-4.09 4.07-6.344 4.07l-.75 1.75c-1.433 2.58-3.034 4.311-5.25 6.25h-2l-.75 1.75c-1.463 2.633-2.888 4.375-5.25 6.25-4.432-.11-7.068-3.658-9.977-6.61l-1.802-1.791c-1.996-1.99-3.981-3.988-5.966-5.988l-4.283-4.277a5743 5743 0 0 1-11.629-11.654c-4.054-4.069-8.116-8.13-12.178-12.192a21004 21004 0 0 1-20.46-20.502 26684 26684 0 0 0-26.23-26.273 48795 48795 0 0 1-22.577-22.608l-7.242-7.251q-5.704-5.714-11.403-11.433-2.086-2.093-4.176-4.184c-18.077-18.094-32.44-36.46-42.25-60.279-.742-1.756-1.56-3.479-2.386-5.196-2.233-5.205-3.025-10.85-4.066-16.387l-.656-3.39q-.603-3.116-1.194-6.234a151 151 0 0 0-1.082-5.2c-.966-5.564-.639-11.293-.63-16.926v-2.052c.028-14.848 1.47-28.422 6.187-42.573l-2.422-.445c-21.823-4.457-39.471-18.509-52.437-36.235-3.74-5.8-6.47-11.97-9.141-18.32l-.992-2.273c-.774-1.89-1.41-3.774-2.008-5.727l-.84-2.559c-6.324-22.412-1.86-46.04 8.352-66.464C145.888 139.217 164.978 122.468 187 116a149 149 0 0 1 23.684-4.266"/><path fill="#1567BE" d="M231 467a185 185 0 0 1 12 11l2.375 1.813c3 2.5 5.397 5.275 7.934 8.234 2.953 3.41 6.052 6.439 9.566 9.265 2.472 2.011 4.5 4.198 6.563 6.625 2.754 3.242 5.66 5.93 8.937 8.63 2.533 2.234 4.502 4.807 6.625 7.433 2.614 2.748 5.247 5.2 8.25 7.5 2.75 2.5 2.75 2.5 4 4.875-.346 3.632-2.136 5.013-4.559 7.633-8.37 9.86-10.371 23.958-10.035 36.484 1.483 15.134 8.331 27.613 19.239 38.024C315.522 625.417 331.064 627.488 348 626c9.55-1.59 17.518-5.962 25-12 1.33-.96 1.33-.96 2.688-1.937 2.05-1.83 3.724-3.663 5.5-5.75 3.514-4.13 7.436-7.622 11.507-11.192a49 49 0 0 0 5.305-5.683l2-2.438h2l.8-1.828c1.258-2.276 2.354-3.34 4.387-4.922 2.477-2.027 4.6-4.072 6.637-6.535 5.886-6.823 12.412-13.056 18.801-19.403l3.969-3.955c6.08-6.059 6.08-6.059 8.893-8.843a280 280 0 0 0 4.237-4.36C452 535 452 535 455 534l.813-1.672c1.765-3.46 4.44-5.869 7.187-8.578l1.656-1.68c4.09-4.07 4.09-4.07 6.344-4.07l.716-1.702c1.585-2.838 3.52-4.773 5.826-7.067l1.39-1.39c1.51-1.51 3.027-3.011 4.545-4.513l3.152-3.144q4.143-4.128 8.296-8.246 4.236-4.21 8.466-8.426Q511.687 475.248 520 467c4.504 1.63 6.057 3.216 9 7a167 167 0 0 0 4 3.5c3.078 2.626 5.47 5.339 8 8.5a219 219 0 0 0 6.39 5.45L549 493v2c.9.39.9.39 1.816.79 2.333 1.293 3.482 2.505 5.121 4.585 1.773 2.158 3.299 3.812 5.5 5.563 3.018 2.428 5.36 5.18 7.875 8.113 3.155 3.643 6.561 6.863 10.25 9.949 2.866 2.434 5.318 4.863 7.438 8 0 3 0 3-1.574 4.648l-2.114 1.727A124 124 0 0 0 574 547l-2.375 2.313c-2.085 2.134-4.008 4.292-5.937 6.562-3.052 3.537-6.36 6.528-9.918 9.543-1.92 1.629-1.92 1.629-3.77 4.082-2.41 3.011-5.185 5.306-8.113 7.8-2.255 2.031-4.019 4.316-5.887 6.7l-2.312 1.813c-2.378 1.935-4.151 3.802-6.125 6.125-2.928 3.433-6.094 6.17-9.563 9.062-1.83 1.988-3.586 4.027-5.34 6.082-2.104 2.431-4.357 4.676-6.66 6.918l-2.375 2.438a95 95 0 0 1-6 5.375c-3.371 2.84-6.207 5.99-9.047 9.355-1.468 1.705-2.894 3.338-4.578 4.832h-2l-.812 1.938C482 640 482 640 479 641l-.875 1.813c-1.483 2.883-3.586 4.205-6.125 6.187l-1.687 2.25L469 653h-2l-2 4h-2l-.732 1.718c-1.52 2.735-3.338 4.594-5.557 6.802l-2.606 2.6-2.73 2.692-2.66 2.659c-6.736 6.69-13.533 13.137-21.277 18.654l-2.63 1.883L422 696l-1.634 1.216C413.726 702.11 406.447 705.51 399 709l-3.46 1.637c-17.79 7.755-37.819 11.566-57.165 11.55l-3.221-.002c-7.905-.061-15.381-.689-23.154-2.185l-3.285-.578A546 546 0 0 1 301 718l-.687 3.25c-5.407 21.4-20.1 40.945-38.768 52.604-21.353 12.715-46.093 17.277-70.608 11.646-24.81-6.486-44.075-22.599-56.937-44.5-11.886-21.197-14.495-45.656-8.187-69.059 6.99-23.843 23.23-42.917 44.707-55.135 6.132-3.33 14.438-7.806 21.48-7.806l-.621-2.93-.816-3.945-.81-3.867C182.658 560.526 191.458 521.156 212 489c4.763-6.85 10.018-13.176 16-19l1.813-1.812z"/><path fill="#EFF0F1" d="M274.837 482.134a715 715 0 0 0 7.824 7.567 528 528 0 0 1 7.61 7.393 274 274 0 0 0 4.313 4.105c6.244 6.26 6.244 6.26 6.762 10.9-.238 2.736-.637 5.252-1.346 7.901h-6l1 4-3-2v4l1.875.25c2.125.75 2.125.75 3.438 2.625C298 531 298 531 297 534l-.793-1.816c-1.28-2.315-2.47-3.48-4.52-5.122-3.862-3.189-7.449-6.44-10.5-10.437-1.89-2.27-3.697-3.98-5.937-5.875-3.86-3.284-7.113-6.902-10.418-10.734-2.08-2.289-4.4-4.116-6.832-6.016v-2l-1.79-.762c-2.487-1.393-3.79-2.848-5.585-5.05-2.188-2.608-4.305-4.859-7-6.938-2.831-2.427-3.106-2.768-3.625-6.25-.068-2.25-.085-4.5-.062-6.75l.027-3.547L240 460a94 94 0 0 1 4.563-.875l2.566-.492c9.83 1.257 20.652 16.583 27.708 23.5"/><path fill="#F0F1EE" d="M349 398c5.661 4.698 10.852 9.747 16 15l-4 1-.148 3.027-.227 3.91c-.07 1.288-.14 2.576-.21 3.903-.138 1.043-.274 2.086-.415 3.16l-2 1c-.652 2.025-.652 2.025-1 4l-2.5-3.062c-2.905-3.398-6.063-6.27-9.465-9.16-3.17-2.769-6.102-5.763-9.035-8.778l1-2h2l1-10h9z"/><path fill="#EFECED" d="M687 433c0 2.621-.313 4.51-1 7l-6 1 1 23h3l.313 1.938L685 468l3 1v3l4 1v3l4 2-3 3-1.758-2.23c-4.751-6.145-4.751-6.145-10.367-11.457-2.314-1.862-3.93-3.453-5.812-5.688-5.904-6.95-12.58-13.223-19.063-19.625 2.49-.687 4.379-1 7-1l1-1c2.02-.072 4.042-.084 6.063-.062l3.347.027L676 440l1-2h3c2.938-1.193 4.873-2.66 7-5"/><path fill="#E8EEEE" d="M255.395 463.164 257 465l1.762 1.96A166 166 0 0 1 263 472h-3v8h-6c-1.467 3.815-.433 6.29 1 10-12.166-10.202-12.166-10.202-15-16-.293-3.55-.293-3.55-.187-7.312l.082-3.801L240 460c6.565-1.453 10.519-1.77 15.395 3.164"/><path fill="#EFEDED" d="m513 317 2 1-1 2h6c2.028 15.149 2.028 15.149-.492 19.688-1.753 1.689-3.42 3.067-5.508 4.312l-1-4h-13l-1-4-2.75 2.438c-2.354 2.086-4.152 2.976-7.25 3.562 2.89-3.555 5.74-6.924 9.313-9.812 2.718-1.907 2.718-1.907 3.687-4.188h2l.688-1.687c1.688-2.975 3.779-5.033 6.312-7.313h2z"/><path fill="#F0EDEC" d="m534 296 2 3 4 1v20h-19l-2-6h-3l1.875-.75c2.476-1.456 3.076-2.628 4.125-5.25h2l.742-1.734c1.47-2.646 3.211-4.415 5.383-6.516l2.195-2.14z"/><path fill="#EEEFEA" d="m393 277 2 1-1 2h6c2.028 15.149 2.028 15.149-.492 19.688-1.753 1.689-3.42 3.067-5.508 4.312l-1-4h-13c-1.346-7.341-1.346-7.341.313-10.5C382 288 382 288 384 288l1-3c4.318-4.773 4.318-4.773 8-6z"/><path fill="#F9FDFD" d="M441 520h19c0 8 0 8-2.187 11.188L455 534l-2.625 2.813c-3.927 3.616-7.231 3.284-12.375 3.187q-.04-4.437-.062-8.875l-.026-2.55-.01-2.442-.016-2.254C440 522 440 522 441 520"/><path fill="#F0EDED" d="M616 375c2 1.375 2 1.375 4 3v2l1.938.875C624 382 624 382 625 384l-5-1v17l-5 1c-2.128-1.447-2.128-1.447-4.207-3.621l-2.275-2.334-2.33-2.483-2.39-2.47A634 634 0 0 1 598 384l2-1 1-3h16z"/><path fill="#FDFDFD" d="m487.033 639.863 2.405.012 2.392-.012c5.917.01 5.917.01 8.17 1.137.427 4.335.408 6.403-2.09 10.055q-1.396 1.437-2.847 2.82l-2.778 2.867c-4.12 2.832-7.383 3.15-12.285 3.258q-.041-4.72-.062-9.437l-.026-2.721-.01-2.588-.016-2.396c.259-4.228 3.696-2.989 7.147-2.995"/><path fill="#FDFBFC" d="m526.133 599.902 2.441.01 2.551.025 2.574.014q3.15.02 6.301.049v9c-2.906 1.257-4.796 2-8 2l-.375 3.375C531 618 531 618 529 620c-3.428.992-5.608.96-9 0q-.292-3.624-.562-7.25l-.17-2.066c-.49-6.727-.49-6.727.732-9.684 2.297-1.148 3.583-1.116 6.133-1.098"/><path fill="#F1EAEB" d="M641 420q3.625-.08 7.25-.125l2.066-.05c4.07-.04 5.933.3 9.684 2.175v18l-5 1-1.25-1.504c-3.736-4.395-7.605-8.276-12.05-11.953C640 426 640 426 638 423h2z"/><path fill="#FBFEFD" d="m393.938 579.813 3.464.082L400 580c.414 5.512.414 5.512-1.46 7.723l-1.915 1.34c-3.15 2.415-4.382 4.104-5.625 7.937-2.048 2.607-3.7 3.6-7 4l-4-1v-17c5.992-2.568 7.942-3.373 13.938-3.187"/><path fill="#E9F3EA" d="M320 180h20v3l2.852-.035 3.773-.028 3.727-.035c3.325.09 6.388.461 9.648 1.098v-4h20v10l-2.278-.459c-19.491-3.83-37.852-5.233-57.722-4.541z"/><path fill="#EFEDEB" d="M778 259c2.715 3.976 2.224 8.139 2.125 12.75l-.027 2.402c-.024 1.95-.06 3.899-.098 5.848h-14v-2h-8c2.89-2.98 5.86-5.782 9-8.5 3.14-2.72 6.106-5.52 9-8.5z"/><path fill="#FDFCF8" d="M660 423h3v2l2.188.125c3.284 1.022 4.493 2.549 6.542 5.242 1.89 2.43 4.065 4.491 6.27 6.633-1 2-1 2-2 3-3.036.285-6.073.449-9.117.621-3.076.189-3.076.189-5.883 2.379-2.687-.875-2.687-.875-5-2l4-1z"/><path fill="#EBECEF" d="M439 681h1v19l-8.25.125-2.58.055c-6.903.05-6.903.05-10.17-2.18 2.5-2.702 5.304-4.703 8.313-6.812 4.34-3.11 8.02-6.327 11.687-10.188"/><path fill="#FDF2DA" d="M540 180h20v3h32v2l-2.763.076q-5.153.144-10.305.296-2.214.065-4.43.125c-7.75.213-15.462.47-23.176 1.298-3.782.333-7.532.267-11.326.205z"/><path fill="#E3EBF0" d="M542 578c.625 1.875.625 1.875 1 4l-2 2c-.307 2.742-.51 5.377-.625 8.125L540 600l-20 1 5-5a1049 1049 0 0 0 4-5c2.125-2.312 2.125-2.312 4-4h2l1-3a141 141 0 0 1 5-5z"/><path fill="#EAEDE9" d="M440 520c1.178 2.357 1.044 3.526.879 6.133l-.147 2.441-.17 2.551-.158 2.574q-.196 3.15-.404 6.301l-2.668-.105-3.52-.082-3.48-.106c-3.637.32-5.367 1.247-8.332 3.293-2.312.688-2.312.688-4 1 1.416-3.336 3.082-5.155 5.875-7.437 3.132-2.642 5.584-5.344 8.125-8.563q1.537-1.343 3.125-2.625c2.994-2.24 2.994-2.24 4.875-5.375"/><path fill="#E6EBEE" d="M180 560h8l1 32h-2v-12h-7z"/><path fill="#FBFEFE" d="M180 540h10q-.213 3.876-.437 7.75l-.12 2.21c-.43 7.28-.43 7.28-1.443 10.04-3 1-3 1-8 0z"/><path fill="#FEFDFB" d="M620 383c6.172 1.029 7.698 1.638 11.719 5.879 2.312 3.827 1.255 6.9.281 11.121h-12z"/><path fill="#E7ECEC" d="M519 601c1.266 3.867 1.111 7.733 1.063 11.75L520 620h-18c2.536-4.227 4.52-6.686 8-10l2.563-2.562z"/><path fill="#EBEFF1" d="M479 641h1v19h-18c1.075-3.224 1.703-3.826 4.25-5.875 4.05-3.355 7.706-6.82 11-10.937z"/><path fill="#E9EEF0" d="M500 622v18h-18c1.855-3.71 2.76-4.89 5.813-7.375 2.605-2.194 4.925-4.346 7.062-7C497.81 622 497.81 622 500 622"/><path fill="#356DBF" d="M493 494c0 2.621-.313 4.51-1 7l-4 1v2h-2l-.187 1.688c-1.161 3.303-3.215 5.03-5.813 7.312h-2l-.125 1.875L477 517l-2.937.875L471 519a101 101 0 0 0-2 6c-2.062.688-2.062.688-4 1l-1 3h-2l-1 4c-4 0-4 0-6-1q3.428-3.51 6.875-7l1.973-2.023 1.894-1.914 1.746-1.778C469 518 469 518 471 518l.714-1.702c1.59-2.841 3.54-4.776 5.856-7.064l2.715-2.695 2.84-2.789q1.433-1.417 2.863-2.836 3.5-3.464 7.012-6.914"/><path fill="#F0ECE2" d="M618 178h2l-2 12c-8.759-.796-17.356-2.422-26-4v-1h8v-5h18z"/><path fill="#EAEDEB" d="M180 320h8v20h-8z"/><path fill="#FEFDFE" d="M180 580h7v12h2v8h-9z"/><path fill="#E7ECF1" d="M120 660h9c1.273 3.818.462 5.285-.812 9.063A120 120 0 0 0 124 686h-1v-6h-3z"/><path fill="#E6EEE4" d="m179 286 15 5-2 11-1-2h-11z"/><path fill="#E45753" d="m535 612 5 2-1 2-1.852.387c-2.836.81-3.71 2.132-5.523 4.426-2.19 2.637-3.78 4.288-6.687 6.187-3.332 2.268-5.05 4.662-7.372 7.898-3.375 4.529-6.442 8.523-12.004 10.04L503 645l2-3h2l.753-1.74c1.434-2.6 3.09-4.33 5.204-6.412l2.373-2.354 2.482-2.432 2.448-2.42q2.336-2.31 4.68-4.613c2.366-2.33 4.716-4.676 7.06-7.029z"/><path fill="#FEFDF9" d="M400 280h15l-1 3h-3l-1 5h-2l-.75 1.75c-1.433 2.58-3.034 4.311-5.25 6.25h-2z"/><path fill="#FEFBF6" d="M600 289c4.777.583 8.735 1.747 13 4 3 3.968 3 3.968 3 7h-16z"/><path fill="#EDEFEF" d="M189 594h1q.508 2.342 1 4.688l.563 2.636c.427 2.613.513 5.034.437 7.676q-2.685 1.005-5.375 2l-3.023 1.125C181 613 181 613 179 613l1-13h9z"/><path fill="#EEE" d="M360 180h20v10c-4.75-1.875-4.75-1.875-7-3a237 237 0 0 0-6.625-1.062l-3.602-.536L360 185z"/><path fill="#FDFCF5" d="M380 300h13v5l-3 1a89 89 0 0 0-2 4c-1.312 1.75-1.312 1.75-3 3h-5z"/><path fill="#FCFDFB" d="M340 340h12c1 4 1 4-.258 6.105l-1.867 2.082-1.82 2.106c-2.38 1.978-3.996 2.444-7.055 2.707-1-1-1-1-1.098-3.723z"/><path fill="#FEEFCF" d="M791 169c3 1 3 1 4 3 .134 2.672.043 5.323 0 8h2l.375 3.313c.38 3.76.38 3.76 2.625 6.687.167 2.6.167 2.6.047 5.7l-.129 3.415-.168 3.572-.121 3.514c-.261 6.21-.837 11.842-2.629 17.799h-2l.484-3.285C797.22 206.706 799.22 184.33 791 172z"/><path fill="#F2AC41" d="m734 116 2 2c-7.647-.892-7.647-.892-9.674-1.511-3.247-.683-6.365-.619-9.681-.622l-2.128-.003q-2.218 0-4.436.006-3.406.005-6.813-.007-2.155 0-4.311.004l-3.97.004c-2.87-.213-2.87-.213-3.987 1.129-1.853.072-3.708.084-5.562.063l-3.067-.028L680 117c16.34-8.522 36.932-6.382 54-1"/><path fill="#F8C2BB" d="M717 523h3l.586 3.508.789 4.617.383 2.305.39 2.265c.116.681.23 1.362.35 2.063.458 2.336.458 2.336 1.54 4.795 1.388 4.974 1.227 9.76 1.192 14.9v3.323q-.006 3.465-.024 6.93c-.019 3.545-.02 7.091-.02 10.638q-.007 3.368-.018 6.734l-.003 3.226-.02 2.974-.011 2.624C725 596 725 596 724 598a121 121 0 0 0-.562 5.125l-.254 2.758L723 608h-2l.438-2.672c1.494-10.335 1.807-20.653 1.862-31.08q.013-2.339.04-4.679c.119-10.893-1.001-20.937-3.34-31.569a884 884 0 0 1-.95-4.844l-.737-3.656-.762-3.781z"/><path fill="#FDEAC4" d="M728 291v2c-2.5 1.625-2.5 1.625-5 3q.21 2.719.438 5.438c.08 1.009.162 2.018.246 3.058.048 2.44.048 2.44 1.316 3.504.123 1.626.178 3.257.205 4.887l.06 3.155.051 3.43.063 3.494q.098 5.549.183 11.096l.131 7.502q.162 9.218.307 18.436h-3l.027-1.715c.09-5.97.15-11.942.193-17.914q.03-3.329.082-6.656c.185-12.047.09-23.114-3.436-34.703C719 296 719 296 719 292c3.153-.7 5.727-1 9-1"/><path fill="#F4E8CF" d="M710 398h1l-1 8h2l-1 3-2.937.688L705 411c-.749 2.025-1.072 3.992-1.441 6.117-.854 2.878-3.043 3.437-5.559 4.883-1.369 3.58-1.369 3.58-2 7l-5 1v3h-3c1.989-4.61 5.273-8.324 8.367-12.223 2.206-2.812 4.212-5.484 5.633-8.777h2l.75-3.062c1.147-4.072 3.047-7.34 5.25-10.938"/><path fill="#FABFBD" d="m744 780-1 3c-1.89.879-1.89.879-4.25 1.563-2.516.755-4.85 1.482-7.25 2.562-6.85 2.397-14.46 1.984-21.625 1.875-5.753-.087-11.197.015-16.875 1v-3h-7l-1-2 1.998.208c17.832 1.752 35.923 2.424 52.834-4.34C742 780 742 780 744 780"/><path fill="#E4EFE6" d="M120 180h6c.125 7.513.125 7.513-.486 9.89-.828 3.401-.889 6.877-1.076 10.36l-.131 2.258q-.158 2.745-.307 5.492h-1v-8h-3z"/><path fill="#396EBD" d="M520 467c1 3 1 3 .063 5.188L519 474h-2l-1.5 2-1.5 2h-2l-1 4-3-1-.25 1.75c-.97 2.91-2.528 4.155-4.75 6.25-.96 1.361-.96 1.361-1.937 2.75C499 494 499 494 496.25 494.313L494 494c5.104-6.181 10.683-11.798 16.375-17.437l2.809-2.795Q516.589 470.38 520 467"/><path fill="#F2E9E2" d="M420 411c1.534 3.069.55 5.7 0 9l-9 1-.312 2.125c-.782 3.266-2.109 5.922-3.688 8.875h-7l2-4h2l.75-1.75c1.433-2.58 3.034-4.311 5.25-6.25h2l2-4h2l.875-1.937C418 412 418 412 420 411"/><path fill="#D8EED6" d="M309 287v2l-1.75.625c-3.07 1.876-4.324 4.365-6.25 7.375l-2 1.938c-2.161 2.228-3.513 4.603-4.988 7.32-1.424 2.45-3.207 4.564-5.012 6.742l-1 2h-2c1.515-7.665 6.201-14.909 12-20a665 665 0 0 0 3.688-3.75C305.854 287 305.854 287 309 287"/><path fill="#FBFDFB" d="M304 180h16v5c-3.281.982-6.27 1.134-9.687 1.125l-2.95.008C305 186 305 186 304 185z"/><path fill="#FDF3D1" d="M627 320c2.753 2.607 3.24 4.768 3.398 8.414q.019 2.606-.023 5.211l-.029 2.736c-.143 6.305-.72 11.84-3.346 17.639l-1.102 2.531c-3.032 6.496-6.815 12.386-11.898 17.469v-6h2v-2h3l1-4h2l.875-3.25C624 355 624 355 625.063 353c1.354-2.89 1.522-5.855 1.937-9l1-1c.1-2.843.139-5.657.125-8.5l.012-2.418c.372-3.85.372-3.85-1.137-7.082a100 100 0 0 1 0-5"/><path fill="#F59F1E" d="m628 318 3 1c2.73 8.622 3.725 18.598 0 27-.404 1.43-.782 2.867-1.125 4.313L629 354h-2l1-3.75c1.116-5.51 1.192-10.902 1.188-16.5l.001-2.616c-.038-4.484-.288-8.722-1.189-13.134"/><path fill="#E65855" d="M502 645c1 3 1 3-.125 5.563C500 653 500 653 497.438 654c-2.673.766-2.673.766-3.5 3.438-.31.845-.62 1.69-.938 2.562-2.58 2.414-3.407 3-7 3l-1 4h-3c1.487-3.466 3.457-5.69 6.133-8.328l2.441-2.422 2.551-2.5 2.574-2.547A2086 2086 0 0 1 502 645"/><path fill="#FCE8BF" d="m513 317 2 1c-1.72 3.03-3.292 5.763-6 8h-2l-.687 1.75c-1.654 2.834-3.743 4.218-6.313 6.25l-2.437 3.125c-2.782 3.121-4.552 3.942-8.563 4.875 2.89-3.555 5.74-6.924 9.313-9.812 2.718-1.907 2.718-1.907 3.687-4.188h2l.688-1.687c1.688-2.975 3.779-5.033 6.312-7.313h2z"/><path fill="#FAFDFA" d="M433.164 499.805 440 500v12h-2l-.625-1.875c-1.266-2.445-1.266-2.445-4.437-3.125-2.938-1-2.938-1-3.938-3 0-3.064 1.204-3.928 4.164-4.195"/><path fill="#326FC4" d="m438 549 1 4c-1.582 1.965-1.582 1.965-3.812 3.938-2.487 2.213-4 3.573-5.204 6.703C429 566 429 566 427.16 567.145l-2.098.668-2.09.707C421 569 421 569 418 569z"/><path fill="#356EC1" d="m417 570 1 2-1.375 1.625c-1.842 2.692-2.705 5.26-3.625 8.375h-5v3h-2l-1 5h-7l2-3h2l.797-1.824c1.269-2.295 2.404-3.387 4.453-4.989 3.716-3.046 6.737-6.457 9.75-10.187"/><path fill="#EDEFEB" d="m765 766 1 2c-.937 2.125-.937 2.125-2 4h-3l-1 2h-3v2h3v4h-15c2.806-2.806 4.842-4.099 8.313-5.875 4.404-2.336 8.024-4.759 11.687-8.125"/><path fill="#F8FDF8" d="M292 360h8v11c-5-1-5-1-6.812-2.125-1.827-2.884-1.376-5.552-1.188-8.875"/><path fill="#FEFEFB" d="M580 180h20v5h-8v-2h-12z"/><path fill="#C6DEF4" d="M294 736c.934 3.01 1.044 3.867 0 7h-2v3h-2l-.34 2.2c-.69 2.926-1.715 5.023-3.223 7.612l-1.378 2.395c-.35.592-.7 1.183-1.059 1.793h-5l-1 3c-2.062.688-2.062.688-4 1l2.5-2.875q1.753-2.06 3.5-4.125l1.969-2.305c4.866-5.857 8.617-11.893 12.031-18.695"/><path fill="#EDECE9" d="m750.82 119.805 3.305.07 3.32.055L760 120v9c-4.972-1.764-9.434-4.394-14-7 2-2 2-2 4.82-2.195"/><path fill="#E2F8FC" d="m492 492 3 1a1420 1420 0 0 1-9.607 9.882 574 574 0 0 0-3.265 3.367 556 556 0 0 1-4.706 4.817l-1.462 1.54c-1.395 1.396-1.395 1.396-3.96 3.394-2.339-.192-2.339-.192-4-1h3v-2h2v-2c1.875-2.125 1.875-2.125 4-4h2l1-3h2l.25-2.375C483 499 483 499 484.75 498l2.25-1a141 141 0 0 0 5-5"/><path fill="#FCFCFD" d="M254 479q3.012.43 6 1v11l-5-1c-1.933-2.899-3.131-4.787-2.75-8.312C253 480 253 480 254 479"/><path fill="#E97166" d="M552 717v2l2.52-.035 3.293-.028 3.269-.035C564 719 564 719 567 720c1.48.146 2.964.247 4.45.316l2.568.127 2.67.12 2.705.13q3.303.159 6.607.307v1c-12.188.215-23.987.309-36-2l-3.07-.578A341 341 0 0 1 540 718v-1c4.316-.762 7.744-1.16 12 0"/><path fill="#F3ECDA" d="M627 156h2l-3 9h-2l-.367 1.898-.508 2.477-.492 2.46C622 174 622 174 620 176v-16l7-2z"/><path fill="#E4F1F8" d="M388 713v2l-3 1-1 4h-22v-1l1.988-.443q4.444-.994 8.887-1.995l3.129-.697 2.988-.674 2.761-.618C387.924 713 387.924 713 388 713"/><path fill="#FCFEFD" d="M340 180h20v4l-20-1z"/><path fill="#64A864" d="M364 440c5.623 4.675 10.797 9.678 15.938 14.875l2.36 2.375q2.855 2.871 5.702 5.75c-3.32 0-5.085-.43-8-2a156 156 0 0 1-2-5c-2.25-2.025-4.294-3.647-7-5l-1.375-2.437c-1.704-2.687-2.712-3.458-5.625-4.563z"/><path fill="#FBE3BA" d="m488 342 2 3-1.875.188L486 346a78 78 0 0 0-2 5c-2.389 3.424-4.227 5.296-8 7-1.71 1.541-1.71 1.541-3 3l-3-1a91 91 0 0 1 4-4h2l.75-1.75c1.433-2.58 3.034-4.311 5.25-6.25h2l.875-1.875C486 344 486 344 488 342"/><path fill="#F4FEF9" d="M280 490c3.236 1.618 4.832 2.558 7.25 5l1.578 1.563C290 498 290 498 290 500h-10z"/><path fill="#F49A10" d="M398 429h3c-1.502 3.823-3.767 5.556-7 8l-3 3-8-8 2-1 3 1v3h2l1-3 2.938-.375L397 431z"/><path fill="#DB4F47" d="M677 782q3.188.212 6.375.438l3.586.246C690 783 690 783 692 784c2.102.223 4.21.393 6.32.535l3.809.264 3.996.264q2.01.136 4.02.275 4.927.336 9.855.662v1c-34.245.836-34.245.836-43-5"/><path fill="#F4DCDB" d="M600 720v2l-12 1 3 2-2 3v-2l-9 1v-5c6.742-1.258 13.135-2.264 20-2"/><path fill="#D6E4F3" d="M579 524h5l1 3c2.015.733 2.015.733 4 1 .821 2.3 1.134 3.584.375 5.938-2.738 4.106-6.361 7.238-10.375 10.062l-2-1 2.313-1.75c2.696-2.084 2.696-2.084 4.375-4.5L585 535h2l-1.437-2.312C584 530 584 530 583 527c-2-1.209-2-1.209-4-2z"/><path fill="#E3574D" d="M537.25 322.031c2.268 1.256 3.358 2.811 4.75 4.969-.922.09-.922.09-1.863.184l-2.45.253-2.425.247c-2.423.269-2.423.269-5.262 1.316-1.225 3.008-1.225 3.008-2 6l-4-2c1.735-1.87 3.486-3.72 5.25-5.562l1.488-1.616c3.707-3.83 3.707-3.83 6.512-3.79"/><path fill="#256AC4" d="M235 471c4.212 2.584 7.014 5.088 10 9l3 2v4h-5l-1-6h-2v-2l-4-1z"/><path fill="#EFEFEF" d="M560 180h20v3h-20z"/><path fill="#F4DBD3" d="m678 463 6 1 .313 1.938L685 468l3 1v3l4 1v3l4 2-3 3-1.758-2.23c-4.962-6.34-4.962-6.34-10.804-11.832L678 465z"/><path fill="#6DAB6A" d="M320 396c5.126 3.587 9.135 7.09 13 12l2.563 2.563c2.354 2.354 4.405 4.803 6.437 7.437h-3v-2h-2l-2-3-3-1-1-3c-1.761-1.747-1.761-1.747-3.875-3.437-2.804-2.313-5.129-4.506-7.125-7.563z"/><path fill="#FEFAF1" d="M340 392c3.186.354 4.79.83 7.313 2.875C349 397 349 397 349 400h-9z"/><path fill="#FCEDC4" d="m592 281 2 2c-2 .043-4 .04-6 0l-1-1c-1.998-.158-4-.251-6.004-.316l-3.682-.127-3.876-.12-3.89-.13q-4.773-.16-9.548-.307v-1c10.181-1.697 22.168-2.54 32 1"/><path fill="#F0A531" d="m564 276 20 2v1l-24 1-1 3h-7v-2h5v-2l2.938-.375L563 278z"/><path fill="#FDF5D4" d="m648 130 4 2c-5.75 5-5.75 5-8 5l-1 3a141 141 0 0 1-5 5l-2.312 2.313L634 149l1-5 3-1c1.225-3.008 1.225-3.008 2-6h3l2-5h3z"/><path fill="#C9DEF4" d="m417 698 2 1v5l-4 1v-2l-2.75 1.875c-4.876 3.188-7.332 4.394-13.25 4.125 3.339-2.688 6.9-4.631 10.688-6.625 3.892-1.842 3.892-1.842 7.312-4.375"/><path fill="#F8DAD4" d="m759 622 5 1v2h2v2l2.875.813C772 629 772 629 774 632l3 1c1.373 2.289 2.153 4.458 3 7-3 0-3 0-4.945-1.941l-2.18-2.621c-3.744-4.329-7.6-7.803-12.223-11.16L759 623z"/><path fill="#C6DDF1" d="m304 616 9 2v2l4 1v2l3.25-.125c3.603.12 4.747.478 7.75 2.125 1.991.383 3.991.726 6 1v1c-11.037.849-21.139-3.629-30-10z"/><path fill="#EEA937" d="m632 152 1 2c-.707 2.023-.707 2.023-1.812 4.375l-1.083 2.336A403 403 0 0 1 627 167h-2l-3 13h-2c.674-5.258 2.243-10.026 4-15h2l.188-2c1.133-4.187 3.408-7.426 5.812-11"/><path fill="#DF5A54" d="M644 761c2.972 1.125 5.334 2.223 8 4v2l5 2v2l3.25.875c2.844.853 5.185 1.689 7.75 3.125l-1 3c-8.461-4.007-16.024-9.778-23-16z"/><path fill="#1568B5" d="M394 704c6.055-.195 6.055-.195 8 0l2 2a408 408 0 0 1-4.812 2.563l-2.708 1.44C394 711 394 711 391 710z"/><path fill="#F9D1CD" d="M656 441c4.75.75 4.75.75 7 3v3l2.313.188c2.687.812 2.687.812 4.5 3.25C671 453 671 453 671 455l3 1-2 2q-4.005-3.965-8-7.937l-2.312-2.288-2.188-2.177-2.031-2.016C656 442 656 442 656 441"/><path fill="#EEA330" d="M721 352h2c.191 5.714-.362 10.504-1.875 16l-.527 2q-.524 1.986-1.058 3.969c-.886 3.334-1.71 6.683-2.54 10.031h-1l1-12h2l-.062-3.875c-.063-3.875-.063-3.875 1.062-6.125.226-1.704.409-3.413.563-5.125l.253-2.758z"/><path fill="#E75D53" d="m593 626-1 4h-8v-2h-16v-1c1.645-.09 1.645-.09 3.324-.184l4.364-.254 2.185-.119c13.97-.829 13.97-.829 15.127-.443"/><path fill="#FDEDC8" d="m461 369 1 2c-2.773 4.736-5.956 7.908-10.195 11.387-2.03 1.678-2.03 1.678-3.805 4.613l-4-1 1.68-1.426 2.195-1.887 2.18-1.863c2.137-1.865 2.137-1.865 3.945-4.824h2l2-4h2z"/><path fill="#F4FAF3" d="M290 153c1.938.75 1.938.75 4 2 .75 2.125.75 2.125 1 4l5 1v8h-3a1661 1661 0 0 1-3.5-6.375l-1.012-1.828C290 155.227 290 155.227 290 153"/><path fill="#236DB5" d="M212 490h2c-1.149 4.978-2.3 7.538-6 11-.787 2.138-.787 2.138-1 4h-2l-1 4h-2c1.378-4.722 3.409-8.726 6-12.875l1.078-1.797c.915-1.48 1.912-2.91 2.922-4.328"/><path fill="#FDFAF0" d="M361 413c4.355 1.161 6.646 2.077 9 6-1 1-1 1-3.066 1.098l-2.497-.036-2.503-.027L360 420c-.043-2-.04-4 0-6z"/><path fill="#F3A634" d="M584 279q2.125-.04 4.25-.062l2.39-.036c2.273.094 4.174.505 6.36 1.098h2l1 3c3.512 1.23 3.512 1.23 7 2l1 4c-5.05-1.946-9.876-4.308-14.746-6.66-3.137-1.292-5.899-1.93-9.254-2.34z"/><path fill="#E8F7E6" d="m440 225 4 1c.188 2.375.188 2.375 0 5l-3 2-.312 2.438C440 238 440 238 437.188 239.75A51 51 0 0 1 430 242a1462 1462 0 0 1 13-15l-3-1z"/><path fill="#EBFCFE" d="m435 550 2 1q-3.965 4.005-7.937 8l-2.288 2.313-2.177 2.187-2.016 2.031C421 567 421 567 420 567v-5l3-1 2.063-2.062L427 557h2v-2h2v-3c1.875-1.062 1.875-1.062 4-2"/><path fill="#4178B5" d="M189 548h2q.039 2.438.063 4.875l.035 2.742C191 558 191 558 190 560c-.153 1.812-.25 3.628-.316 5.445l-.127 3.262-.12 3.418-.13 3.441q-.16 4.217-.307 8.434h-1c-.03-4.5-.047-9-.062-13.5l-.026-3.844C187.896 560.34 188 554.242 189 548"/><path fill="#FDECC7" d="M633 392c5.661 4.698 10.852 9.747 16 15-2 1-2 1-4.562.313C642 406 642 406 641.188 403.875L641 402l-2 2-.187-1.75c-.683-2.514-.683-2.514-3.375-4.25L633 396z"/><path fill="#F9A53A" d="m443 254 1 2-1.937 2.313c-2.205 2.57-2.205 2.57-3.063 5.687-2.062.688-2.062.688-4 1v3c-2.906 1.257-4.796 2-8 2z"/><path fill="#F4EEDE" d="M772 140h8l1 9h2v5l-1.273-1.742c-2.258-2.952-4.727-5.685-7.204-8.453C773 142 773 142 772 140"/><path fill="#CBE1F8" d="M200 787h24v2c-3.048.909-5.597 1.062-8.766.879l-2.695-.147-2.789-.17-2.836-.158q-3.458-.194-6.914-.404z"/><path fill="#D5EFFE" d="M122 691h1l.113 3.445c.395 9.846 1.439 18.977 3.887 28.555l-1.375-1.5c-1.501-1.726-1.501-1.726-3.625-1.5z"/><path fill="#F7DDD8" d="m730 609 17 1 1 6-18-6z"/><path fill="#2D67C3" d="M453 534h1c.366 4.517.366 4.517-1.375 6.813C451 542 451 542 449 542v2l-2.375.75c-2.948 1.404-3.527 2.257-4.625 5.25l-3-2z"/><path fill="#FAD5CD" d="M696 480c3.46 3.13 5.585 6.411 7.813 10.5l1.894 3.406c1.293 3.094 1.293 3.094.992 5.5L706 501l-1.5-3.312c-2.82-5.692-6.677-10.64-10.5-15.688z"/><path fill="#C6DDF2" d="m273 764 1 2c-2.99 4.336-6.267 6.781-11 9a57 57 0 0 0-7 4l-2-2 1.871-1.066c6.098-3.555 11.663-7.472 17.129-11.934"/><path fill="#FCD2D1" d="M620 720c1.746 3.491 3.174 6.92 4.563 10.563l1.316 3.44A175 175 0 0 1 628 740c-3-1-3-1-4.687-4.062L622 733h-2z"/><path fill="#F9ECEA" d="m727 557 1 3h-2v20l2 1c.188 3.375.188 3.375 0 7l-3 2q-.074-6.567-.11-13.135-.016-2.235-.04-4.47c-.025-2.14-.036-4.279-.045-6.418l-.032-3.904C725 559 725 559 727 557"/><path fill="#DCEDD6" d="m432 528 2 1-2 7-7 1-.875 2.375C423 542 423 542 421 544l-3-1c3.54-4.382 7.191-8.2 11.582-11.738 1.555-1.227 1.555-1.227 2.418-3.262"/><path fill="#FDEDE2" d="m780 751 1 2c-1.163 3.005-2.757 4.757-5 7l-1.375 2.563c-1.92 2.88-3.364 3.467-6.625 4.437l-2-2 1.54-1.285A96.6 96.6 0 0 0 780 751"/><path fill="#CEE3F0" d="M189 594h1q.508 2.342 1 4.688l.563 2.636c.427 2.613.513 5.034.437 7.676q-1.935.755-3.875 1.5l-2.18.844C184 612 184 612 182 612v-2l6-1z"/><path fill="#F0A32B" d="m451 378 2 1-1.68 1.426-2.195 1.887-2.18 1.863c-2.137 1.865-2.137 1.865-3.945 4.824h-2l-1 3h-1c-.125-5.75-.125-5.75 1-8h5v-3h4v-2z"/><path fill="#F5D6A4" d="M724 324h1l1 36h-3z"/><path fill="#FAA943" d="M363 334c.688 1.813.688 1.813 1 4-1.375 1.563-1.375 1.563-3 3l-1 3c-2.066.95-2.066.95-4.562 1.688l-2.504.761L351 347c1.135-3.404 2.172-4.243 4.875-6.5 2.48-2.086 4.869-4.173 7.125-6.5"/><path fill="#F5A236" d="M389 308c0 2.664-.092 4.523-1 7l-3 1c-1.656 1.63-1.656 1.63-3.187 3.563l-1.606 1.94L379 323l-4-1z"/><path fill="#D8E7F7" d="M439 681h1v6l-2.312.25c-2.77.536-2.77.536-4.5 2.563-1.506 2.358-1.506 2.358-1.188 6.187h-2v-3l-4-1 1.574-1.137c4.155-3.049 7.84-6.17 11.426-9.863"/><path fill="#EE9C1E" d="M733 289v1q-2.091.509-4.187 1l-2.356.563c-2.537.451-4.886.51-7.457.437l.691 2.047.871 2.703.88 2.672c.575 2.656.45 4.048-.442 6.578-1.968-2.952-2.52-4.655-3.187-8.062l-.543-2.66C717 293 717 293 718 291c5.013-2.256 9.624-2.215 15-2"/><path fill="#FBD8CF" d="m554 623 15 1v1l2.773-.07 3.602-.055 3.586-.07C582 625 582 625 584 627c-10.459.314-19.93.317-30-3z"/><path fill="#E75C54" d="m614 611 1 2c-1.437 2.625-1.437 2.625-3 5l-3-1v3c-6.964 3.348-6.964 3.348-11 2l1.977-1.137c5.058-2.962 9.653-5.953 14.023-9.863"/><path fill="#F8E4B5" d="m700 416 1 2-1.375 1.563c-2.007 3.01-2.752 5.946-3.625 9.437l-5 1v3h-3c1.745-4.052 4.423-7.306 7.125-10.75l1.418-1.824Q698.269 418.21 700 416"/><path fill="#FDFAF5" d="M420 411c1.534 3.069.55 5.7 0 9l-8 1c.313-1.937.313-1.937 1-4l3-1a90 90 0 0 0 2-4z"/><path fill="#84BE85" d="M228 113v1c-9.508.855-18.478 1.044-28 0v-1c9.246-1.48 18.783-1.765 28 0"/><path fill="#E1504D" d="M623 727h2l1 3h2l.332 1.828c.907 4.573 1.782 7.462 4.668 11.172-.418 2.105-.418 2.105-1 4-4.242-6.452-7.177-12.484-9-20"/><path fill="#D6EDF8" d="m403 580 3 1c-2.59 4.222-5.066 7.025-9 10a279 279 0 0 0-5 5c.319-3.268.733-4.72 3.031-7.133l2.469-1.992c3.606-2.82 3.606-2.82 5.5-6.875"/><path fill="#FAEFD1" d="M653 412c4.526 3.678 8.394 7.41 12 12l-2 1v-2l-7-1-.375-2.437L655 417l-2-1z"/><path fill="#F3E6CB" d="M789 239h1l2 9-7 3-1-3h2z"/><path fill="#E55847" d="M733 611c4.803-.514 8.193 1.303 12.313 3.5l1.955 1.012c1.582.82 3.158 1.653 4.732 2.488l-3 2-2.125-1.375c-2.905-1.642-5.689-2.662-8.875-3.625v-2h-5z"/><path fill="#F9D6CF" d="M559 343c3.399 1.47 5.65 3.38 8.25 6l2.14 2.125C571 353 571 353 571 355l1.875.25c2.125.75 2.125.75 3.375 2.813L577 360l-3 1-.812-2.437L572 356l-3-1c-1.719-1.707-1.719-1.707-3.5-3.812l-1.781-2.083c-1.63-1.997-3.19-4.03-4.719-6.105"/><path fill="#53AE5D" d="M379 576c2.063.438 2.063.438 4 1-1.275 2.844-2.451 5.138-5 7-2.062-.125-2.062-.125-4-1l-2-3 4 1 .938-1.937C378 577 378 577 379 576"/><path fill="#ECF9FD" d="M140 751c2.964 2.808 5.445 5.183 7 9h-7z"/><path fill="#3770B8" d="m363 621 1 3c-5.549 2.818-9.741 4.533-16 4v-2z"/><path fill="#6AAB6B" d="M396 472c3.277 1.092 3.916 1.827 6 4.438 1.964 2.45 3.32 3.776 6 5.562v2l-5-1v-3c-2.332-1.206-4.496-2.165-7-3z"/><path fill="#FCE5C0" d="m464 235-2.012 1.793c-4.437 3.971-8.846 7.927-12.988 12.207l2-6h2v-3l4-1 1-4c3.75-1.125 3.75-1.125 6 0"/><path fill="#F19B1C" d="M793 217c2.277 3.415 2.093 4.847 1.492 8.793-.796 3.57-2.103 6.826-3.492 10.207-1.252-3.755-.678-6.802-.125-10.625l.277-2.102c.713-5.138.713-5.138 1.848-6.273"/><path fill="#FAC2B9" d="M620 716v4h-3v-2l-1.687.438c-5.254 1.277-9.91 1.758-15.313 1.562v-1q3.31-.76 6.625-1.5l3.727-.844c3.32-.597 6.287-.78 9.648-.656"/><path fill="#DCF1D7" d="m412 259 1 2a159 159 0 0 1-5 6h-2l-2 4-4-1 1.355-1.137c3.719-3.147 7.252-6.367 10.645-9.863"/><path fill="#69B270" d="m322.25 184.938 3.266.027L328 185v2a144 144 0 0 1-20 1c4.89-2.62 8.702-3.123 14.25-3.062"/><path fill="#286BC1" d="M391 596c1.192 4.766.342 5.879-2 10h-4l-1-3z"/><path fill="#E0EEDA" d="m387 574 1 3h-2l1 4-3.375 1.375c-3.587 1.35-3.587 1.35-5.625 3.625l-2-2 1.39-1.172c3.335-2.83 6.575-5.672 9.61-8.828"/><path fill="#2C66BC" d="m417 570 1 2-1.375 1.625c-1.842 2.692-2.705 5.26-3.625 8.375h-5c1.444-3.239 3.258-5.62 5.625-8.25l1.914-2.14z"/><path fill="#D1F0D7" d="m214 419 1.5 1.938c3.375 4.133 6.936 8.091 10.5 12.062-2.49 1.245-3.41.777-6 0l-.375-1.937L219 429l-2-1-1-3-2-1z"/><path fill="#F39E1E" d="m504 327-2 1-.687 1.75c-1.981 3.395-5.066 5.132-8.313 7.25l1-4h2v-5c2.928-.976 4.956-1.082 8-1"/><path fill="#F2A127" d="M741 282q3.51.43 7 1c-4.169 3.648-9.448 6-15 6v-2h5l.938-1.937C740 283 740 283 741 282"/><path fill="#D8F0D8" d="m429 242 1 3-9 9-3-1z"/><path fill="#F1AD41" d="M558 186c-2.403 2.403-3.266 2.34-6.57 2.633l-2.715.254-2.84.238-2.863.262q-3.505.318-7.012.613c5.072-5.072 15.241-4.222 22-4"/><path fill="#E0EEF0" d="M147 759q1.724 1.432 3.438 2.875l1.933 1.617C154 765 154 765 155 767h-9c-.125-5.75-.125-5.75 1-8"/><path fill="#3F73C5" d="M438 549c.664 1.8.664 1.8 1 4-2.151 3.454-5.016 5.7-8.875 6.875L428 560c3.208-3.806 6.407-7.546 10-11"/><path fill="#57B060" d="m402 552 5 1c-1.393 3.367-2.979 4.986-6 7l-2-4z"/><path fill="#CEE9F4" d="M270 504c2.867.573 3.861.861 6 3v3l1.875.25c2.125.75 2.125.75 3.375 2.813L282 515l-2 1-5-5-2.812-2.687C270 506 270 506 270 504"/><path fill="#FBF0D5" d="M397 433h2l1 4c-3.797 2.826-6.186 4.566-11 4l1-3 2 1 2-3h2z"/><path fill="#2E72BC" d="m135 655 1 2-2 2a70 70 0 0 0-1.625 4.625c-.26.817-.52 1.635-.79 2.477L131 668h-3q.676-2.44 1.375-4.875l.773-2.742c1.035-2.895 2.11-4.012 4.852-5.383"/><path fill="#D1EECD" d="M337 410h2v3l3-1v4l3 1v2h3l-1 4-11-11z"/><path fill="#F8A639" d="m374 323 2 4-2 1-2-1-1 5-7 2c3.208-3.806 6.407-7.546 10-11"/><path fill="#F9E4C7" d="m545 287 2 1a210 210 0 0 1-3.187 4l-1.793 2.25c-2.02 1.75-2.02 1.75-4.758 2L535 296c3.17-3.26 6.4-6.222 10-9"/><path fill="#FDEECA" d="m489 212-12 10-1-4 5-1v-2h2l-1-3c3.01-.934 3.867-1.044 7 0"/><path fill="#DAF4D5" d="M196 114c-2.915 1.555-5.77 2.63-8.937 3.563l-2.528.753c-2.498.674-4.993 1.206-7.535 1.684l-1-2c6.648-3.185 12.564-4.232 20-4"/><path fill="#F8CCC3" d="M794 722h1c.77 6.93-1.91 11.898-5 18l-2-1a366 366 0 0 1 6-17"/><path fill="#FBD0C5" d="m522 712 1.906.586c5.336 1.623 10.672 3.109 16.094 4.414-2.295 1.431-3.467 2.087-6.184 1.645-4.19-1.547-8.143-3.038-11.816-5.645z"/><path fill="#EBF0EF" d="M120 703c3.072 4.608 3.339 9.628 2.563 15.063L122 720h-2z"/><path fill="#DDE8F3" d="M200 500h6l-5 11c-.968-3.873-1.076-7.036-1-11"/><path fill="#68A964" d="M416 492c5.117 3.502 8.906 6.586 12 12-7.742-2.524-7.742-2.524-9.562-5.875C417 495 417 495 416 492"/><path fill="#F7A235" d="m463 235 1 2-1.937 2.375c-2.044 2.42-2.044 2.42-3.063 4.625-2.314.73-4.648 1.401-7 2 3.381-4.136 6.666-7.813 11-11"/><path fill="#68B571" d="m176 120 2 1c-4.308 4.923-4.308 4.923-7.812 5.313L168 126v3h-5c3.506-4.116 8.046-6.906 13-9"/><path fill="#2A72B8" d="m432 684 2 3c-3.197 2.649-6.395 4.94-10 7v-5c2.906-1.257 4.796-2 8-2z"/><path fill="#E8544D" d="m513 636 3 1-3 2zm-4 2 4 2c-3.288 2.912-5.599 4.497-10 5l2-3h2z"/><path fill="#E55A51" d="M766 628q1.659 1.404 3.313 2.813l1.863 1.582c3.344 2.942 3.344 2.942 4.824 4.605v2c-1.937-.375-1.937-.375-4-1l-1-2h-2v-4h-3z"/><path fill="#57AF5F" d="M387 568c2.25.25 2.25.25 4 1-1.393 3.367-2.979 4.986-6 7l-2-4c1.75-2.062 1.75-2.062 4-4"/><path fill="#C9EBCD" d="M189 355h1q.72 3.563 1.438 7.125l.408 2.016A307 307 0 0 1 194 376l-2-1a109 109 0 0 1-1-7h-2c-.838-4.655-1.016-8.37 0-13"/><path fill="#F1AD46" d="m628 318 3 1v23h-1l-.184-3.727-.254-4.898-.119-2.45c-.231-4.377-.612-8.61-1.443-12.925"/><path fill="#F0A42A" d="m760 272 3 2a1399 1399 0 0 1-5.312 3.938l-2.989 2.214C752 282 752 282 749 283v-2h2v-2l2-1v-2l7-1z"/><path fill="#FAD5D3" d="m685 785 17 2c-2.762 2.762-5.207 2.579-9 3v-3h-7z"/><path fill="#FBDCD1" d="m744 780-1 3c-1.89.879-1.89.879-4.25 1.563l-2.45.742-2.3.695a198 198 0 0 0-5 2l-2-2q3.685-1.506 7.375-3l2.117-.867C741.773 780 741.773 780 744 780"/><path fill="#F1A638" d="m672 431 7 1 1 3c2 1.209 2 1.209 4 2l-4 2a1155 1155 0 0 1-4-3.437l-2.25-1.934L672 432z"/><path fill="#6AA967" d="M308 384c4.217 1.562 6.258 4.555 9 8a97 97 0 0 0 3 3l-3 1-1.207-1.496-1.606-1.942-1.582-1.933c-1.613-1.884-1.613-1.884-4.605-2.629z"/><path fill="#E95D51" d="M559 344q1.693 1.4 3.375 2.813l1.898 1.582C566 350 566 350 568 353l-8-1z"/><path fill="#F8E1BD" d="m513 317 2 1c-3.41 6.007-3.41 6.007-6 8-2.687.688-2.687.688-5 1a367 367 0 0 1 2.813-3.437l1.582-1.934C510 320 510 320 513 319z"/><path fill="#5AAC5F" d="M299 288c2.625.375 2.625.375 5 1l-6 7-2-2c.367-2.935.864-3.864 3-6"/><path fill="#63AD66" d="m161 129 4 2c-1.375 1.5-1.375 1.5-3 3h-2l-1 2h-5z"/><path fill="#F0A42F" d="M680 118q-1.934 1.007-3.875 2l-2.18 1.125C672 122 672 122 670 122l-1 4v-2h-5l1.938-.312L668 123l1-3c1.996-.984 1.996-.984 4.438-1.75l2.433-.797C678 117 678 117 680 118"/><path fill="#C9E4F8" d="m245 781 2 1-2 3c-3.375.625-3.375.625-7 1l-2.187.688c-2.466.425-3.66-.525-5.813-1.688l2.52-.621 3.292-.817 3.27-.808A90 90 0 0 0 245 781"/><path fill="#DBF0FB" d="m169 776 14 6-2 2c-3.875-.306-6.056-1.546-9-4l-3-2z"/><path fill="#BBD8F1" d="M380 716v2c-6.07 2.158-11.594 2.209-18 2v-1q3.374-.757 6.75-1.5l3.797-.844C376 716 376 716 380 716"/><path fill="#E0F0F4" d="M447 539c-1.491 3.795-3.757 5.61-7 8v-7c2.49-.687 4.379-1 7-1"/><path fill="#59B161" d="m430 528 1 3-6 5c-.687-2.312-.687-2.312-1-5 1.918-2.781 2.544-3 6-3"/><path fill="#356FBD" d="M256 492c2 0 2 0 4.438 2.25 2.032 2.181 3.85 4.317 5.562 6.75l-8-1z"/><path fill="#FAD5D0" d="M585 370c5.562 1.36 5.562 1.36 7.625 4.375L594 377a89 89 0 0 0 4 4l-1 2-1.102-1.355C592.541 377.607 589.076 374.3 585 371z"/><path fill="#F8DEB7" d="m527 303 1 2c-1.298 3.895-3.733 5.718-7 8-2.875 1.313-2.875 1.313-5 2l2-3h2l2-4h2l.938-1.937C526 304 526 304 527 303"/><path fill="#F7E9DA" d="M615 296c4.875 4.625 4.875 4.625 6 8l-3 3-2-1c-.414-2.285-.414-2.285-.625-5.062l-.227-2.786z"/><path fill="#CCF0D1" d="M419 208c5.76 1.293 9.332 3.38 14 7l-1 3-1.574-1.207c-3.714-2.822-7.412-5.41-11.426-7.793z"/><path fill="#ECA732" d="M789 166c4.938 4.938 5.562 11.345 6 18-2-1-2-1-3.125-3.812C791 177 791 177 791 173h-2z"/><path fill="#ECA739" d="m644 137 2 1-1.277 1.426-1.66 1.887-1.653 1.863c-1.61 1.876-1.61 1.876-2.41 4.824-1.937 2.188-1.937 2.188-4 4h-2c1.378-2.947 2.975-5.47 4.938-8.062l1.527-2.036c1.42-1.76 2.904-3.339 4.535-4.902"/><path fill="#D7E9D4" d="M236 115c5.527-.194 9.756.252 15 2v3a893 893 0 0 1-5.812-1.375l-3.27-.773C239 117 239 117 236 115"/><path fill="#FDE6DF" d="m788 739 3 2-2.375 2.25c-2.19 2.294-3.452 3.872-4.625 6.75l-3-1z"/><path fill="#2A6EB1" d="m165 620 2 1 1 3-2.812.25c-3.273.453-3.273.453-5.063 2.813L159 629l-3-1c2.853-2.932 5.65-5.643 9-8"/><path fill="#2A63BB" d="M397 590h1v7l-7 2c1.835-3.146 3.696-6.173 6-9"/><path fill="#59B061" d="m411 544 4 2-5 6-2-2c.367-2.935.864-3.864 3-6"/><path fill="#58B060" d="M419 536c2.063.438 2.063.438 4 1l-1 3h-2l-2 4-2-3c1.875-3.875 1.875-3.875 3-5"/><path fill="#CFDFF3" d="M553 498c6.665 1.481 6.665 1.481 8.25 3.938L562 504c1.541 1.71 1.541 1.71 3 3l-3 1-1-3-1.812-.875c-2.879-1.48-4.289-3.548-6.188-6.125"/><path fill="#DBEEF3" d="M507 480a858 858 0 0 1-2.937 3.5l-1.653 1.969L501 487h-1v-7c3.01-.934 3.867-1.044 7 0"/><path fill="#69A76C" d="M296 372c5.117 3.502 8.906 6.586 12 12-3.438-1.528-6.19-3.502-9-6v-2l-3-1z"/><path fill="#FADDB6" d="M592 185h16l1 3-17-2z"/><path fill="#F7E2BD" d="M748 120h4l1 3 2 1 2 1 1 3c-4.308-1.566-8.062-3.683-12-6z"/><path fill="#E5E8EB" d="m139 749 2 2c-.023 2.164-.023 2.164-.375 4.625l-.336 2.477L140 760l-4-1v-5h2z"/><path fill="#D6EBF4" d="M301 718h5l-2 1c-.907 2.113-.907 2.113-1.625 4.563-.26.826-.52 1.652-.79 2.503L301 728c-1.055-1.797-1.055-1.797-2-4 .875-3.25.875-3.25 2-6"/><path fill="#FEF0E7" d="m499 649-10 10-1-3 2-1 1.375-2.437c1.999-3.152 3.94-5.406 7.625-3.563"/><path fill="#E26454" d="m720 605 1 3 3.188-.125c3.552.116 5.66.597 8.812 2.125v1q-2.406.079-4.812.125l-2.708.07C723 611 723 611 720 609z"/><path fill="#D7E8F2" d="M380 600h7a962 962 0 0 1-2.937 4l-1.653 2.25L381 608h-1z"/><path fill="#F7E5BD" d="M627 320c2.613 3.002 3.37 4.796 3.293 8.766l-.03 2.695c-.024.92-.05 1.84-.076 2.789l-.04 2.836q-.054 3.458-.147 6.914h-1l-.184-3.902-.254-5.036-.119-2.576-.127-2.45-.11-2.27c-.024-1.79-.024-1.79-1.206-2.766a100 100 0 0 1 0-5"/><path fill="#F6E8C5" d="m756 278 2 1v2h-2l-1 3-9 1c3.235-2.489 6.593-4.754 10-7"/><path fill="#F7A73E" d="m476 223-1 4-4 1-1 4-4-1 5-5 1.688-1.812C474 223 474 223 476 223"/><path fill="#F5EAC6" d="M544 187v1l-3.875.938c-2.226.538-4.072 1.036-6.125 2.062-2 .04-4 .043-6 0l1-3c5.07-.712 9.882-1.107 15-1"/><path fill="#F1EDD3" d="M787 160h7c-1.125 2.972-2.223 5.334-4 8z"/><path fill="#F5DEDB" d="m661 775 10 4c-3.873.968-7.036 1.076-11 1z"/><path fill="#3574B7" d="m150 632 1 2c-1.312 2.625-1.312 2.625-3 5h-2l-1 3-3-1z"/><path fill="#DAE8F8" d="M287 594h2v2h2l4 9h-3a805 805 0 0 1-2.5-4.375l-1.406-2.46C287 596 287 596 287 594"/><path fill="#58B061" d="M395 560c2.063.438 2.063.438 4 1-1.37 3.161-1.99 3.993-5 6v-2h-2c1.875-3.875 1.875-3.875 3-5"/><path fill="#DCF4DE" d="M383 458c2.763.523 5.326 1.109 8 2l-1 4h2l-1 2a1155 1155 0 0 1-4-3.437l-2.25-1.934L383 459z"/><path fill="#CAE8C8" d="m389 281 1 4-4 1-1 4-5 1 2-3h2l1-3a90 90 0 0 1 4-4"/><path fill="#F0A940" d="m568.901 276.751 2.11.175 2.296.166 2.38.22 2.417.186c1.966.153 3.931.326 5.896.502v1l-20 1c3-3 3-3 4.901-3.249"/><path fill="#FCA133" d="m426 271 2 4-1.937.875c-2.215.953-2.215.953-3.063 3.125l-3-2c3.75-4.875 3.75-4.875 6-6"/><path fill="#C8ECC5" d="M356 185c2.772.087 5.541.194 8.313.313l2.38.068 2.295.107 2.11.08c2.396.544 3.335 1.59 4.902 3.432l-2.54-.434a506 506 0 0 0-10.835-1.629l-3.773-.535L356 186z"/><path fill="#DCF0D8" d="m260 120 1 2h2l4 7-12-6 2-1 3 1z"/><path fill="#E56B5E" d="M677 782q3.188.212 6.375.438l3.586.246C690 783 690 783 692 784v2c-5.273-.445-10.018-1.084-15-3z"/><path fill="#F4E8DF" d="M520 620h7a858 858 0 0 1-2.937 3.5l-1.653 1.969L521 627h-1z"/><path fill="#C1D8F0" d="m587 532 2 1c-1.671 5.013-5.766 8.02-10 11l-2-1 2.313-1.75c2.696-2.084 2.696-2.084 4.375-4.5L585 535h2z"/><path fill="#DDECF3" d="M460 520h7a858 858 0 0 1-2.937 3.5l-1.653 1.969L461 527h-1z"/><path fill="#F9DDB0" d="M431 399c0 4.077-1.52 5.832-4 9-2.25.875-2.25.875-4 1v2l-2-1 1-2h2l2-4h2l.938-1.937C430 400 430 400 431 399"/><path fill="#E5614D" d="m583 368 10 10-2 1-1-2a101 101 0 0 0-6-2z"/><path fill="#F5E2CB" d="m488 342 2 3-1.875.188L486 346a104 104 0 0 0-2 5c-2.125 2.313-2.125 2.313-4 4 1.756-4.976 4.256-9.256 8-13"/><path fill="#D8EDD2" d="M283 341c4.429 5.143 4.429 5.143 5 9h-2l-1 3c-1.998-4.12-2.178-7.452-2-12"/><path fill="#D3EFD2" d="M350 280c5.11 1.145 9.372 2.455 14 5-3.937 1.312-6.125.243-10-1v-2h-4z"/><path fill="#F29F30" d="m696 114-1.937.938c-2 .897-2 .897-3.063 2.062-1.853.072-3.708.084-5.562.063l-3.067-.028L680 117c5.58-2.836 9.775-3.104 16-3"/><path fill="#FCD8CB" d="m765 766 1 2c-.937 2.125-.937 2.125-2 4h-3l-1 2h-3l-1 2-2-2 1.898-1.242 2.477-1.633 2.46-1.617c2.24-1.467 2.24-1.467 4.165-3.508"/><path fill="#E65652" d="M552 717v2l2 1a424 424 0 0 1-4.75-.375c-.882-.07-1.763-.14-2.672-.21-2.569-.414-4.336-1.127-6.578-2.415 4.316-.762 7.744-1.16 12 0"/><path fill="#F4E3DF" d="M507 640v2c-1.531 1.29-1.531 1.29-3.5 2.625l-1.969 1.352L500 647v-6c2.463-1.231 4.28-1.072 7-1"/><path fill="#DEECD9" d="M400 562v5l-7 3-1-2a997 997 0 0 1 3.438-3l1.933-1.687C399 562 399 562 400 562"/><path fill="#C5E1F2" d="M288 523h4v3l1.875.25c2.125.75 2.125.75 3.438 2.625C298 531 298 531 297 534l-.773-1.8c-1.346-2.413-2.707-3.67-4.852-5.388-1.14-.919-2.27-1.851-3.375-2.812z"/><path fill="#E05F56" d="M703 495c2.787 1.394 3.265 3.165 4.625 5.938l1.352 2.714C710 506 710 506 710 508h-3c-3.286-8.429-3.286-8.429-4-13"/><path fill="#CDEDCE" d="M359 434c3.554.296 4.803.803 7.375 3.375L368 440l-1 3q-2.004-1.966-4-3.937l-2.25-2.215C359 435 359 435 359 434"/><path fill="#F49F21" d="m424 407-2 1-.937 2C420 412 420 412 417 413l-1-5c2.928-.976 4.956-1.082 8-1"/><path fill="#F6A83D" d="M342 355c0 3 0 3-2 6v2a101 101 0 0 1-6 3l-2-1z"/><path fill="#D4EAD0" d="M320 282v4l-7-1v2l-4-1a418 418 0 0 1 3.813-2l2.144-1.125C317 282 317 282 320 282"/><path fill="#F9E4CD" d="M766 272v6h-8c5.846-6 5.846-6 8-6"/><path fill="#FCE3B5" d="M791 169c3 1 3 1 4 3 .23 2.204.41 4.414.563 6.625l.253 3.602L796 185c-2.31-3.466-2.418-5.926-3-10l-2-3z"/><path fill="#4178B6" d="M190 783c4.869.596 9.328 1.57 14 3-3.404 1.137-5.775.84-9.25.063l-2.703-.59L190 785z"/><path fill="#286AB6" d="m393 706 2 1c2 .04 4 .043 6 0-2.938 2.503-5.179 3.47-9 4 0-4 0-4 1-5"/><path fill="#DFE9F0" d="m451 670 2 2c-4.75 5.75-4.75 5.75-7 8v-2l-2-1z"/><path fill="#E75C54" d="m480 667 2 1c-.312 1.875-.312 1.875-1 4l-3 2-4-1z"/><path fill="#69AB67" d="M408 484q2.007 1.426 4 2.875l2.25 1.617L416 490v2c-2.312-.187-2.312-.187-5-1-3-4.034-3-4.034-3-7"/><path fill="#3068BA" d="M235 471c6.571 4 6.571 4 8 8l-7-2z"/><path fill="#EB5C4B" d="M526 444c4.314.48 6.166 1.746 9 5l-1 3a707 707 0 0 1-3.437-2.875l-1.934-1.617C527 446 527 446 526 444"/><path fill="#E86657" d="M514 432h6v5l2 1 1 3c-3.489-1.163-4.1-2.14-6.187-5.062l-1.606-2.223z"/><path fill="#FCF1D0" d="M665 425c2.867 1.285 4.976 2.571 7 5v2l-4-1v-2l-4-1z"/><path fill="#E85D55" d="M476 394c3.356.6 5.378 1.846 8 4l-1 4c-2.648-2.578-4.944-4.916-7-8"/><path fill="#F4A12A" d="M432 392h6c-3.75 5.875-3.75 5.875-6 7z"/><path fill="#F7FDF8" d="M400 274v6h-6c.25-1.875.25-1.875 1-4 3.2-2 3.2-2 5-2"/><path fill="#EEA52B" d="M774 143c5.785 4.43 5.785 4.43 6.875 7.313L781 152h-5l-.437-2.25c-.465-2.27-.982-4.508-1.563-6.75"/><path fill="#D7EFDF" d="M279 140h5l1 4h3v2l-3 1c-4.875-4.75-4.875-4.75-6-7"/><path fill="#F5DDB7" d="M660 120c2.169.506 4 1 6 2v-2l3 1c-1 2-1 2-2.848 2.633l-2.215.492-2.222.508L660 125z"/><path fill="#E0645D" d="M792 665c1.724 2.585 2.447 4.038 3.188 6.938l.542 2.027c.303 2.282-.042 3.855-.73 6.035v-2h-2z"/><path fill="#3676B9" d="m452 664 4 1-6 7c-1-3-1-3 0-6h2z"/><path fill="#F9E4D7" d="M488 660a418 418 0 0 1-2.875 3.5l-1.617 1.969L482 667h-2c.599-2.352 1.27-4.686 2-7 2.49-1.245 3.41-.777 6 0"/><path fill="#FCDFE1" d="M717 523h3l1 13c-1.6-3.199-2.426-5.355-3.125-8.75l-.508-2.422z"/><path fill="#C5E4F0" d="M255 490c3.775 1.09 6.47 1.908 9 5l-1 3a105 105 0 0 1-5-4v-2l-3-1z"/><path fill="#F0A736" d="m712 392 1 2c-.996 2.383-.996 2.383-2.437 5.125l-1.434 2.758L708 404l-2-2v-4l3-1c1.699-2.498 1.699-2.498 3-5"/><path fill="#FAAB45" d="m411 286 1 2a244 244 0 0 1-2.75 3.438l-1.547 1.933c-1.9 1.817-3.139 2.233-5.703 2.629q1.398-1.943 2.813-3.875l1.582-2.18C408 288 408 288 411 286"/><path fill="#FEF6D8" d="m404 288 4 2-7 6c.547-3.375 1.055-5.082 3-8"/><path fill="#F5A42E" d="m510 199 2 1-2.437 1.313c-2.841 1.492-2.841 1.492-3.563 4.687l-6-1c1.967-1.967 3.544-2.937 6-4.187l2.125-1.106z"/><path fill="#3975B4" d="M151 762h6v5h2l-1 2a858 858 0 0 1-3.5-2.937l-1.969-1.653L151 763z"/><path fill="#316CBE" d="M142 752h6v5h-3c-1.687-2.5-1.687-2.5-3-5"/><path fill="#C6D9E8" d="m473 647 1 2c-1.125 3.063-1.125 3.063-3 6-2.687.875-2.687.875-5 1 1.235-3.706 3.197-5.337 6-8z"/><path fill="#E75151" d="M752 619c3.375 1.186 5.647 2.276 8 5h-7z"/><path fill="#CBE6F6" d="M411 572h4l-1 3h-2l-.875 1.938C410 579 410 579 408 580v-4l2-1z"/><path fill="#1E62C7" d="M424 567c-1.074 2.915-1.778 4.778-4 7h-3c.386-2.798.801-3.82 2.938-5.75C422 567 422 567 424 567"/><path fill="#FDE4DA" d="M696 480c2.799 2.528 4.458 4.204 5 8h-3l-4-7z"/><path fill="#FBD2CC" d="M608 393c2.938.75 2.938.75 6 2 .75 2.063.75 2.063 1 4l2 1c-3 0-3 0-4.605-1.531l-1.582-1.969-1.606-1.969z"/><path fill="#FEEAC7" d="M616 375c2 1.375 2 1.375 4 3v2l1.938.875C624 382 624 382 625 384c-2.648-.358-4.555-.682-6.75-2.25-1.568-2.195-1.892-4.102-2.25-6.75"/><path fill="#E55443" d="M544 329c3.815 2.462 3.815 2.462 4.75 5.188L549 336h-5z"/><path fill="#FAF1D6" d="m380 313 4 1-7 6-1-4 3-1z"/><path fill="#5BAC62" d="m416 207 9 5-1 2-4-1v-2l-4-1z"/><path fill="#E4F3E8" d="M373 184h3v3l4-1v4c-3.375-1.186-5.647-2.276-8-5z"/><path fill="#3173B8" d="m492 624 4 1a318 318 0 0 1-5 6h-1v-5h2z"/><path fill="#E4EDF8" d="M340 624v3l-12-1v-1c4.064-.774 7.864-1.098 12-1"/><path fill="#3274B9" d="m500 616 4 1a318 318 0 0 1-5 6h-1v-5h2z"/><path fill="#FEDDD9" d="M556 475q1.723 1.432 3.438 2.875l1.933 1.617C563 481 563 481 564 483l-4 1c-4-6.75-4-6.75-4-9"/><path fill="#E9FBFE" d="m510 472 4 2-6 6-3-1 3-1v-2h2z"/><path fill="#FBD0C7" d="m678 463 6 1 2 7q-2.008-1.426-4-2.875l-2.25-1.617L678 465z"/><path fill="#FEEAC3" d="M625 384q1.723 1.432 3.438 2.875l1.933 1.617C632 390 632 390 633 392c-2.702-.365-4.584-.699-6.812-2.312C625 388 625 388 625 384"/><path fill="#F39E2C" d="M618 376h5c1.063 1.813 1.063 1.813 2 4l-1 3c-4.875-4.75-4.875-4.75-6-7"/><path fill="#E35951" d="M501 356c0 3.668-.79 5.105-3 8-2.687.813-2.687.813-5 1q1.436-1.688 2.875-3.375l1.617-1.898A76 76 0 0 1 501 356"/><path fill="#71B86F" d="M157 273h4v2l7 2v3c-4.108-1.45-7.469-3.454-11-6z"/><path fill="#5AB266" d="M416 248h4c-.312 2.375-.312 2.375-1 5l-3 2c-1.044-3.133-.934-3.99 0-7"/><path fill="#FDE5AF" d="M794 224h1v8h-2l-.375 2.438L792 237l-2 1 .621-2.047.817-2.703.808-2.672A141 141 0 0 0 794 224"/><path fill="#E4F9E9" d="M143 143h2c-1.312 3.937-2.92 6.227-6 9l1-7h3z"/><path fill="#FDE0D1" d="M632 747c3.255 3.023 5.618 6.257 8 10l-5-1z"/><path fill="#E55847" d="M519 709h3v2l2.875.375C528 712 528 712 530 714c-4.195-.6-8.01-1.575-12-3z"/><path fill="#E06660" d="M783 648c3.285 2.792 5.013 6.232 7 10v2l-3-1c-1.753-3.573-3.218-7.088-4-11"/><path fill="#3771BF" d="m206 500 2 4-3 1c-.733 2.015-.733 2.015-1 4h-2c1.059-3.403 2.009-6.014 4-9"/><path fill="#D8F3DA" d="M416 491h5l1 5h2l-1 2a858 858 0 0 1-3.5-2.937l-1.969-1.653L416 492z"/><path fill="#EEA335" d="M383 431c2.313.188 2.313.188 5 1 1.688 2.438 1.688 2.438 3 5l2 2c-3 0-3 0-4.824-1.496l-1.863-1.942-1.887-1.933C383 432 383 432 383 431"/><path fill="#FDE8B6" d="m420 411 1 2c-2.773 3.08-5.063 4.688-9 6l2-3h2l.875-1.937C418 412 418 412 420 411"/><path fill="#E76052" d="M488 406c3.375 1.186 5.647 2.276 8 5l-1 3q-1.755-1.716-3.5-3.437l-1.969-1.934C488 407 488 407 488 406"/><path fill="#DD6454" d="M473 384v5a91 91 0 0 0 4 4c-3 0-3 0-5.187-2L470 389c1.875-3.875 1.875-3.875 3-5"/><path fill="#F59F29" d="M363 334c.688 1.813.688 1.813 1 4-1.312 1.563-1.312 1.563-3 3l-2 3c.615-6.523.615-6.523 2.563-8.937z"/><path fill="#FAEED4" d="m356 336 4 2-7 6v-4h3z"/><path fill="#FDE3DD" d="m516 336 4 2-7 6v-4l3-2z"/><path fill="#F3A228" d="M514 312c2.125.375 2.125.375 4 1-1.375 2-1.375 2-3 4h-2l-1 2c-.125-2.375-.125-2.375 0-5z"/><path fill="#FEF5D7" d="m429 264 3 2-7 6-1-4 1.938-.875c2.214-.953 2.214-.953 3.062-3.125"/><path fill="#F99E28" d="M451 247c1.245 2.49.777 3.41 0 6l-7 1c2.22-2.908 3.93-4.953 7-7"/><path fill="#59AE60" d="M131 237h5l-.562 1.813c-.659 2.351-.659 2.351.562 5.187l-2 1z"/><path fill="#CFEFCC" d="m403 197 5 2v2h3l1 3c-3.791-1.45-7.387-3.152-11-5z"/><path fill="#C9DAEC" d="M124 713h1l2 10-3-3h-2c-.125-2.375-.125-2.375 0-5z"/><path fill="#DAEAF3" d="m417 698 2 1v5l-4 1v-2l-2-1z"/><path fill="#CBE3EF" d="M439 681h1v6l-7 1q1.464-1.754 2.938-3.5l1.652-1.969z"/><path fill="#E1645C" d="M473 674c0 3 0 3-1 5l4 1-2 3-4-4c1.875-3.875 1.875-3.875 3-5"/><path fill="#D0DEEE" d="m508 613 1 2-4 5-3-1z"/><path fill="#D0E1EE" d="M519 601c.934 3.01 1.044 3.867 0 7h-5c1.293-2.884 2.66-4.872 5-7"/><path fill="#DAEFF8" d="m425 560 2 1-7 6v-5c2.375-1.062 2.375-1.062 5-2"/><path fill="#E0F1DD" d="m296 505 5 5-2 2h-3z"/><path fill="#E5553F" d="M656 442a318 318 0 0 1 6 5v1c-1.666.043-3.334.04-5 0-1-1-1-1-1.062-3.562z"/><path fill="#FDD9D6" d="M656 441c4.75.75 4.75.75 7 3v3c-3.367-1.393-4.986-2.979-7-6"/><path fill="#69A866" d="M352 428a279 279 0 0 1 3.438 2.313l1.933 1.3C359 433 359 433 360 436c-2.312-.187-2.312-.187-5-1-3-4.034-3-4.034-3-7"/><path fill="#F8DDAB" d="m410 420 2 1-1 3h-2v2l-5 1z"/><path fill="#F9D0CA" d="m601 386 7 2v5a858 858 0 0 1-3.5-2.937l-1.969-1.653L601 387z"/><path fill="#FDF8DA" d="m348 345 4 1-7 6-1-4 4-2z"/><path fill="#E45951" d="m523 334 1 3-6 5-2-1z"/><path fill="#E0EFDE" d="m291 307 2 1-1.937 2.375c-2.044 2.42-2.044 2.42-3.063 4.625h-2c.542-3.796 2.201-5.472 5-8"/><path fill="#F8A43C" d="M401 296c0 3.169-.206 4.437-2 7-2.625.75-2.625.75-5 1l2.938-3.437 1.652-1.934A50 50 0 0 1 401 296"/><path fill="#F09814" d="m530 297 3 1-7 7-1-3 3-1c1.209-2 1.209-2 2-4"/><path fill="#F0AD3E" d="m599 284 8 1 1 4c-3.46-1.25-6.147-2.675-9-5"/><path fill="#F9A037" d="M419 278c1.245 2.49.777 3.41 0 6l-7 2 2.938-3.437 1.652-1.934A50 50 0 0 1 419 278"/><path fill="#F5F1E7" d="M760 277c2.25.25 2.25.25 4 1v2c-4.625 2.125-4.625 2.125-8 1 1.75-2.062 1.75-2.062 4-4"/><path fill="#FBE6C1" d="M510 199c-5.143 4.429-5.143 4.429-9 5v-3c3.435-2.29 4.985-2.178 9-2"/><path fill="#D5EFD4" d="M299 172h2c1.688 2.375 1.688 2.375 3 5l-1 2a100 100 0 0 0 0 5c-2.214-3.795-3.01-7.756-4-12"/><path fill="#CEECD6" d="m271 132 5 1v2l3 1-1 4c-2.648-2.578-4.944-4.916-7-8"/><path fill="#FBDCD2" d="m780 751 1 2c-1.215 3.424-3.018 5.012-6 7l-2-1z"/><path fill="#D8E7F0" d="M479 641h1v6h-3l-1 2h-2c1.37-2.951 2.932-5.483 5-8"/><path fill="#D9E6EF" d="m487 634 2 3c-1.812 1.563-1.812 1.563-4 3l-3-1z"/><path fill="#F9D4CE" d="M748 616c6.523.615 6.523.615 8.938 2.563L758 620l-2 1c-1.945-.777-1.945-.777-4.125-1.937l-2.195-1.153L748 617z"/><path fill="#2C6FB6" d="m508 609 3 1c-1.812 2.5-1.812 2.5-4 5h-3v-3h2z"/><path fill="#CDE4F8" d="M233 466c-1.377 2.754-3.367 3.515-6 5l-2-2c2.466-3.115 4.108-3.316 8-3"/><path fill="#CFEDD5" d="m376 451 6 1 1 6a858 858 0 0 1-3.5-2.937l-1.969-1.653L376 452z"/><path fill="#D8F1DD" d="M232 441q1.693 1.4 3.375 2.813l1.898 1.582C239 447 239 447 241 450c-4.406-1.346-6.43-3.194-9-7z"/><path fill="#64A55F" d="M332 411c2.71.155 4.466.482 6.445 2.402 1.232 1.496 2.398 3.044 3.555 4.598h-3v-2h-2l-2-3z"/><path fill="#F9E2BE" d="m450 381 2 1-4 5-4-1z"/><path fill="#DAF1DB" d="m296 371 5 1 1 3 2 1-1 2a858 858 0 0 1-3.5-2.937l-1.969-1.653L296 372z"/><path fill="#F7DBAF" d="m469 361 1 2-1 2h-2v3l-5 1a105 105 0 0 1 4-5h2z"/><path fill="#70B36D" d="M284 350c1.991 2.986 2.941 5.597 4 9l-3 1z"/><path fill="#F8A946" d="M350 347c0 3.576-1.088 5.053-3 8l-4-1z"/><path fill="#ED5745" d="m538 323 4 4-7 1v-3h3z"/><path fill="#F9AA3F" d="M389 308c0 2.621-.313 4.51-1 7h-5z"/><path fill="#FDFEF9" d="M535 296h5v4h-5z"/><path fill="#79BA7D" d="M169 281h5v2l6 1-1 2c-7.571-1.857-7.571-1.857-10-5"/><path fill="#E3F9DE" d="m154 271 9 6c-3 1-3 1-5.062.375C156 276 156 276 154 271"/><path fill="#60B56B" d="m394 272 3 1-2 4h-2l-1 2v-5h2z"/><path fill="#6FAF75" d="m150 266 6 2 1 5a858 858 0 0 1-3.5-2.937l-1.969-1.653L150 267z"/><path fill="#50AD5E" d="M400 264h4c-.312 1.875-.312 1.875-1 4l-3 2c-1.245-2.49-.777-3.41 0-6"/><path fill="#FDEED2" d="m437 257 3 1-7 6-1-4 5-1z"/><path fill="#CFE9D1" d="m156 129 2 1v3c-3 2.188-3 2.188-6 4 .375-1.937.375-1.937 1-4l2-1z"/><path fill="#71B676" d="M245 118c2.929.628 5.361 1.586 8 3l-1 2c-2.937-.812-2.937-.812-6-2z"/><path fill="#F0ECE4" d="m680 784 5 1 1 3-6-1z"/><path fill="#2F6BB5" d="M250 779c-3.285 2.19-6.207 2.998-10 4l1-3c2.966-1.165 5.846-1.088 9-1"/><path fill="#FACAC5" d="m752 775 2 1c-1.125 2-1.125 2-3 4-3.187.25-3.187.25-6 0 2.116-2.327 4.05-3.858 7-5"/><path fill="#2E6BAE" d="m291 739 2 1-4 7h-1c.256-2.343.593-4.678 1-7z"/><path fill="#DEEAF4" d="m133 739 2 4-5 1-1-3z"/><path fill="#F9D5C4" d="M614 716h6v4h-3v-2h-3z"/><path fill="#F9DDDA" d="M469 677c2.648 2.578 4.944 4.916 7 8l-5-2v-2l-3-1z"/><path fill="#DBE8F0" d="M459 662h1v5l-6 1a318 318 0 0 1 5-6"/><path fill="#E0F5F4" d="m296 608 2.313.563c2.777.665 2.777.665 5.687-.563l-2 4h-3c-1.687-2-1.687-2-3-4"/><path fill="#CADBEF" d="M284 585h4l-1 9c-2.762-2.762-2.579-5.207-3-9"/><path fill="#68B06B" d="m377 579 1 2 2 1-2 2c-2-.187-2-.187-4-1l-2-3 4 1z"/><path fill="#2D72BB" d="m548 569 3 2-7 5c.96-3.837 1.236-4.597 4-7"/><path fill="#C2D8EA" d="M575 545c1.333 2.667.671 4.167 0 7l-4-1c1.152-2.468 2.048-4.048 4-6"/><path fill="#DAECD6" d="m417 544 3 3-3 1c-1.667 1.5-1.667 1.5-3 3l-2-2z"/><path fill="#3D79B6" d="m201 509 2 3c-.875 3.188-.875 3.188-2 6h-3z"/><path fill="#DBF7DA" d="m432 507 5 1 1 5a318 318 0 0 1-6-5z"/><path fill="#65A765" d="m428 504 7 6-2 1c-2.625-1.187-2.625-1.187-5-3z"/><path fill="#E2563D" d="m562 480 5 1 1 5a318 318 0 0 1-6-5z"/><path fill="#E3ECF7" d="M530 474c2.169.506 4 1 6 2 .625 2.563.625 2.563 1 5a858 858 0 0 1-3.5-2.937l-1.969-1.653L530 475z"/><path fill="#E45742" d="m554 472 6 1v5a318 318 0 0 1-6-5z"/><path fill="#FDE3DD" d="m673 458 7 2-1 4a318 318 0 0 1-6-5z"/><path fill="#F7DEB6" d="M687 433c0 2.621-.313 4.51-1 7h-6z"/><path fill="#E5F6DE" d="M219 428c3.367 1.393 4.986 2.979 7 6l-6-1z"/><path fill="#F1A228" d="M398 429h3c-1.393 3.367-2.979 4.986-6 7l-1-4 3-2z"/><path fill="#FAD0D4" d="m638 423 6 2 1 5a858 858 0 0 1-3.5-2.937l-1.969-1.653L638 424z"/><path fill="#FCEDD0" d="m358 407 7 6-4 1c-2-3-2-3-3-7"/><path fill="#D0EFD0" d="M200 394c5 7.5 5 7.5 5 10h-3c-1.316-3.62-2-6.096-2-10"/><path fill="#E2543F" d="m608 394 6 5c-3 1-3 1-6 0z"/><path fill="#F59D1F" d="M440 384h2a109 109 0 0 1-1 7l-2 1c-.125-5.75-.125-5.75 1-8"/><path fill="#F7E2DE" d="m476 376 4 2-4 3-3-2z"/><path fill="#EFAB41" d="m619 367 1 2-1 3h-2l1 4-3-2c1.074-2.915 1.778-4.778 4-7"/><path fill="#F69712" d="M355 345v3h-3v4l-4-1c4.75-4.875 4.75-4.875 7-6"/><path fill="#E66255" d="m553 338 6 5c-2.463 1.231-4.28 1.072-7 1v-2h2z"/><path fill="#F7E7D6" d="M506 326v3c-2.5 2.188-2.5 2.188-5 4 0-3 0-3 1.375-4.625C504 327 504 327 506 326"/><path fill="#F5B04A" d="M775 261v3c-3 2.188-3 2.188-6 4l-1-3 2.938-1.437c2.867-1.265 2.867-1.265 4.062-2.563"/><path fill="#FEF6D7" d="m468 225 4 1-1.875.75c-2.476 1.456-3.076 2.628-4.125 5.25l-1-3h2z"/><path fill="#F4A222" d="m480 218 3 1-3 4-4-1z"/><path fill="#E4F2E2" d="M433 218a85 85 0 0 1 7 2v3c-2.886-.398-3.822-.79-5.75-3.062z"/><path fill="#F5DFBD" d="M772 140h6l-1 3c.39 2.143.39 2.143 1 4-4.875-4.75-4.875-4.75-6-7"/><path fill="#EAA62B" d="m660 125 2 1-1.937.813c-2.394 1.074-2.394 1.074-3.063 4.187l-5 1c2.578-2.648 4.916-4.944 8-7"/><path fill="#DBEAF8" d="m263 775-1.812.875c-2.381 1.172-2.381 1.172-5.188 3.125l-2-2c5.625-3.125 5.625-3.125 9-2"/><path fill="#E9454B" d="M641 755h2v2h2l1 4c-3.161-1.37-3.993-1.99-6-5z"/><path fill="#E2524F" d="m743 614 9 4-3 2a125 125 0 0 1-6-4z"/><path fill="#4E78C9" d="M391 596c.625 1.875.625 1.875 1 4l-2 2c-2.125-.375-2.125-.375-4-1z"/><path fill="#DFEED7" d="m407 554 1 3-2 3-4-1z"/><path fill="#D2DFF0" d="m285 552 3 4-2 4h-2z"/><path fill="#4478C3" d="M445 542c0 3.204-.743 5.094-2 8l-4-2z"/><path fill="#E26450" d="M580 498c2.438.813 2.438.813 5 2l1 3 2 1-1 2c-2.648-2.578-4.944-4.916-7-8"/><path fill="#FBEDCF" d="m378 427 7 6-2 1-3-1c-1.187-3.062-1.187-3.062-2-6"/><path fill="#F1A439" d="M658 416h4v3h2l-1 3a283 283 0 0 1-5-5z"/><path fill="#FBF3DE" d="m435 396 1 3-5 5-2-1z"/><path fill="#E25949" d="M487 370c.553 2.076 1 3.844 1 6h-6z"/><path fill="#F49F1F" d="m474 352 4 1-4 4-2-1z"/><path fill="#EFEFEF" d="M542 320h3l-1 6-4-4h2z"/><path fill="#F1A92B" d="m624 308 4 1v7c-1.777-2.666-2.875-5.028-4-8"/><path fill="#F2A73F" d="M719 296c3.006 3.006 2.596 5.824 3 10-1.5-1.062-1.5-1.062-3-3-.187-3.687-.187-3.687 0-7"/><path fill="#FDDEBB" d="M584 280c5.415-.37 5.415-.37 8.375 1.5L594 283c-5.415.37-5.415.37-8.375-1.5z"/><path fill="#C2E7C4" d="m405 265 1 4c-1.875 1.063-1.875 1.063-4 2l-2-1z"/><path fill="#5AAC65" d="M137 250h4l2 7c-4.875-4.75-4.875-4.75-6-7"/><path fill="#64B66D" d="m428 239 3 2-5 4-1-3z"/><path fill="#68B971" d="m434 232 1 2 2 1-5 4-1-3 1-2h2z"/><path fill="#D4F6C9" d="m303 184 9 2c-3.767 1.883-5.03 2.22-9 2z"/><path fill="#CEECCD" d="M290 153c1.938.563 1.938.563 4 2 .75 3.625.75 3.625 1 7-2.325-2.853-3.75-5.54-5-9"/><path fill="#EFA531" d="M757 128c6.875 3.75 6.875 3.75 8 6l-7-2z"/><path fill="#FEF2C3" d="m658 125 2 1-7 5-1-3a101 101 0 0 1 6-3"/></svg>