<?xml version="1.0" standalone="no"?>
<!DOCTYPE svg PUBLIC "-//W3C//DTD SVG 20010904//EN"
 "http://www.w3.org/TR/2001/REC-SVG-20010904/DTD/svg10.dtd">
<svg version="1.0" xmlns="http://www.w3.org/2000/svg"
 width="920.000000pt" height="920.000000pt" viewBox="0 0 920.000000 920.000000"
 preserveAspectRatio="xMidYMid meet">

<g transform="translate(0.000000,920.000000) scale(0.100000,-0.100000)"
fill="#000000" stroke="none">
<path d="M6079 8976 c-2 -3 -70 -14 -149 -26 -80 -12 -199 -35 -265 -52 -213
-54 -206 -53 -318 -40 -318 39 -766 48 -927 18 -223 -40 -443 -111 -599 -192
-47 -24 -96 -44 -111 -44 -14 0 -100 21 -190 46 -404 112 -626 153 -935 174
-417 27 -712 -2 -1010 -101 -572 -190 -965 -624 -1119 -1237 -43 -169 -78
-405 -66 -437 12 -32 6 -61 -15 -69 -13 -4 -15 -44 -15 -247 0 -235 0 -241 22
-258 19 -16 20 -21 10 -47 -10 -23 -9 -53 3 -148 30 -227 171 -901 256 -1226
287 -1089 577 -1799 900 -2205 310 -391 683 -516 1046 -349 40 18 99 51 131
73 32 23 62 41 66 41 5 0 35 -25 68 -55 179 -166 585 -271 940 -244 150 11
237 28 370 71 54 17 100 29 103 26 3 -3 10 -140 15 -304 8 -272 33 -579 61
-759 39 -253 171 -612 284 -771 49 -68 157 -177 225 -225 65 -47 196 -106 287
-130 117 -30 321 -37 453 -15 254 43 492 115 650 197 227 118 410 308 539 561
56 110 147 377 185 550 49 218 89 575 105 947 7 137 12 186 22 192 8 5 86 9
174 9 182 0 296 11 440 39 254 51 362 84 510 159 278 140 499 331 586 507 37
74 42 93 47 173 6 112 -19 205 -75 280 -138 181 -306 211 -746 132 -133 -24
-267 -36 -267 -24 0 5 39 81 86 169 230 428 363 709 529 1120 173 428 342
1051 400 1475 9 64 19 231 22 376 10 460 -28 652 -175 874 -97 146 -390 430
-574 557 -172 118 -407 236 -604 302 -124 41 -164 51 -404 104 l-145 32 -411
3 c-225 1 -412 0 -415 -2z m645 -221 c349 -19 762 -143 1059 -318 197 -117
458 -341 597 -514 69 -85 131 -209 153 -303 21 -86 37 -279 37 -432 0 -120
-29 -441 -51 -563 -23 -129 -50 -261 -70 -339 -201 -804 -556 -1645 -976
-2314 -116 -186 -110 -168 -66 -190 130 -66 363 -65 778 3 234 39 310 32 376
-34 107 -107 62 -252 -129 -417 -226 -195 -472 -304 -817 -359 -144 -24 -496
-31 -607 -13 l-87 14 -6 -55 c-4 -31 -15 -123 -25 -206 -11 -82 -28 -229 -40
-325 -11 -96 -29 -240 -40 -320 -11 -80 -29 -215 -41 -300 -73 -538 -155 -765
-346 -958 -143 -144 -316 -234 -598 -307 -173 -45 -285 -59 -425 -52 -300 16
-508 134 -681 389 -62 91 -127 236 -154 343 -47 186 -79 565 -90 1060 -3 149
-8 347 -11 442 l-6 171 -107 -66 c-235 -145 -345 -180 -606 -189 -263 -9 -439
21 -604 104 -151 75 -221 159 -221 262 0 61 24 113 72 157 69 64 125 85 379
148 342 84 351 89 513 308 l28 37 -24 5 c-12 2 -63 10 -112 16 -76 10 -175 39
-303 91 -30 12 -34 11 -59 -11 -30 -28 -432 -478 -621 -695 -66 -78 -148 -162
-182 -188 -200 -158 -440 -164 -647 -18 -210 147 -440 485 -624 916 -197 460
-418 1183 -565 1850 -186 839 -211 1153 -134 1680 57 391 186 674 420 919 206
216 460 351 789 420 169 35 260 43 490 45 380 3 755 -59 1199 -198 106 -34
199 -61 206 -61 7 0 44 19 81 42 138 84 333 159 509 197 267 58 641 52 988
-16 75 -15 94 -15 135 -4 259 72 546 126 748 141 237 17 299 17 518 5z"/>
<path d="M6345 8499 c-121 -7 -371 -34 -435 -47 l-35 -8 100 -53 c397 -214
660 -442 948 -823 210 -278 373 -592 448 -863 21 -78 22 -86 11 -280 -6 -110
-24 -281 -39 -380 -38 -250 -38 -478 1 -845 25 -229 28 -289 22 -445 -8 -255
-27 -339 -123 -553 -44 -96 -53 -126 -44 -135 16 -15 19 -10 125 168 222 373
370 680 577 1198 182 453 310 923 380 1387 40 271 35 625 -12 777 -62 201
-474 560 -820 715 -312 139 -715 207 -1104 187z"/>
<path d="M4562 8399 c-236 -21 -490 -113 -682 -247 -86 -60 -227 -198 -305
-297 -180 -230 -323 -551 -400 -900 -30 -134 -75 -407 -75 -453 0 -34 0 -34
24 -19 82 54 364 154 511 182 109 20 316 23 400 6 171 -36 325 -144 406 -286
55 -95 88 -230 151 -610 20 -124 23 -171 22 -410 -2 -297 -13 -418 -50 -555
-13 -50 -85 -245 -160 -433 -108 -271 -204 -527 -204 -543 0 -1 40 -4 88 -6
78 -3 97 -7 164 -40 129 -64 240 -206 267 -341 6 -32 12 -340 14 -792 4 -759
10 -891 52 -1220 26 -202 65 -312 160 -455 111 -167 297 -269 492 -270 156 0
500 88 633 162 228 128 334 308 399 678 61 343 188 1390 221 1805 15 192 44
272 134 360 33 32 79 63 129 85 42 19 76 39 77 43 0 4 -31 47 -68 95 -102 130
-143 193 -215 337 -36 72 -97 189 -137 260 -121 219 -346 678 -398 812 -100
255 -139 424 -149 639 -8 200 22 328 107 454 95 140 264 236 475 271 39 6 154
14 257 18 l186 6 -113 230 c-165 336 -290 513 -534 755 -143 142 -267 241
-428 342 -410 258 -945 382 -1451 337z"/>
<path d="M2125 8380 c-237 -26 -389 -66 -550 -144 -351 -171 -565 -467 -659
-908 -43 -201 -50 -282 -50 -548 -1 -249 0 -261 37 -485 190 -1150 574 -2363
927 -2935 149 -241 313 -381 446 -381 107 0 169 47 376 285 73 83 223 252 333
376 110 124 206 233 214 242 12 16 5 27 -63 98 -220 235 -346 549 -346 865 0
55 9 188 20 295 29 284 35 507 21 835 -14 313 -9 440 29 730 46 351 142 677
286 968 69 138 123 221 245 377 54 69 98 129 99 134 4 32 -515 152 -780 181
-176 19 -476 27 -585 15z"/>
<path d="M6681 6450 c-167 -35 -274 -106 -321 -212 -33 -76 -45 -194 -32 -310
21 -175 63 -312 196 -633 38 -92 222 -456 314 -621 28 -51 78 -147 112 -214
45 -90 64 -119 71 -109 25 38 69 206 79 301 14 125 2 377 -31 668 -26 226 -22
513 9 735 29 203 47 384 38 392 -11 11 -384 13 -435 3z m188 -108 c31 -15 36
-22 39 -57 6 -83 -92 -176 -200 -191 -60 -8 -116 9 -165 51 -52 44 -65 80 -47
124 34 81 265 127 373 73z"/>
<path d="M3663 6400 c-157 -34 -325 -99 -463 -180 -115 -67 -114 -65 -105
-179 9 -112 9 -510 0 -691 -4 -69 -16 -199 -27 -290 -32 -264 -8 -440 88 -639
57 -119 113 -198 200 -282 155 -148 314 -223 535 -254 l47 -6 40 128 c36 113
106 291 252 638 89 214 125 404 124 675 0 256 -36 559 -94 792 -37 149 -103
235 -216 278 -85 33 -255 37 -381 10z m403 -129 c106 -46 135 -114 79 -187
-76 -100 -238 -120 -344 -44 -45 33 -101 121 -101 160 0 34 26 69 64 86 50 23
237 14 302 -15z"/>
<path d="M7070 3562 c-82 -40 -104 -84 -124 -242 -3 -25 -2 -51 2 -57 4 -7 46
-22 92 -34 77 -19 104 -21 275 -16 260 7 435 41 623 119 92 38 342 202 297
194 -202 -34 -383 -51 -550 -50 -195 2 -289 19 -402 74 -98 48 -136 50 -213
12z"/>
<path d="M4220 3548 c-19 -13 -88 -87 -152 -163 -64 -77 -135 -157 -158 -177
-94 -84 -196 -125 -485 -193 -110 -26 -202 -48 -203 -50 -8 -8 77 -44 148 -63
283 -77 587 -45 803 84 34 21 107 83 163 139 123 123 144 166 126 253 -29 139
-156 228 -242 170z"/>
</g>
</svg>
