<?xml version="1.0" encoding="UTF-8"?>
<svg version="1.1" xmlns="http://www.w3.org/2000/svg" width="360" height="440">
<path d="M0 0 C8.07191686 6.0070079 11.84406011 13.97216342 15.83203125 23 C16.39539618 24.24702203 16.96011314 25.49343407 17.52612305 26.73925781 C18.66449069 29.25082969 19.79513098 31.7656266 20.91796875 34.28417969 C23.20275106 39.4068288 25.51591703 44.51645922 27.83203125 49.625 C28.24001953 50.52798828 28.64800781 51.43097656 29.06835938 52.36132812 C31.38478055 57.4649878 33.78870509 62.50588033 36.33203125 67.5 C39.83501269 74.38161769 43.0970184 81.36381595 46.33203125 88.375 C51.75378143 100.12105093 57.27171453 111.81892646 62.83203125 123.5 C68.87432269 136.19827779 74.9069401 148.90082021 80.89453125 161.625 C81.22477295 162.3267334 81.55501465 163.0284668 81.89526367 163.75146484 C86.23939484 172.98634679 90.54733539 182.23736629 94.83203125 191.5 C100.89418632 204.60143067 107.09075707 217.63755481 113.29345703 230.67285156 C120.08961669 244.95682666 126.83613023 259.26360215 133.56031799 273.58157349 C135.96295137 278.69569476 138.37466566 283.80548585 140.7890625 288.9140625 C144.1505139 296.02733141 147.49859377 303.14673777 150.83251953 310.27294922 C151.87685892 312.50278762 152.92412841 314.73125943 153.97607422 316.95751953 C155.1494294 319.44506806 156.30666803 321.93925837 157.45703125 324.4375 C157.76898438 325.09041016 158.0809375 325.74332031 158.40234375 326.41601562 C161.33819947 332.90108659 162.44345927 339.94320904 160.3671875 346.83203125 C157.24579091 354.35502855 152.9395614 359.34811303 145.51953125 362.875 C139.88203289 364.89374422 134.14827156 366.53585708 128.39453125 368.1875 C126.62879404 368.70435054 124.86342338 369.22245471 123.09838867 369.74169922 C119.26922813 370.86657731 115.43824812 371.98495651 111.60595703 373.09912109 C105.40276175 374.90527308 99.208427 376.74060236 93.015625 378.58203125 C90.84595116 379.22698251 88.67627338 379.87192049 86.5065918 380.5168457 C85.41196625 380.84222321 84.3173407 381.16760071 83.18954468 381.50283813 C67.51889936 386.15692821 51.83971218 390.78228576 36.16015625 395.40625 C35.19754474 395.69013895 35.19754474 395.69013895 34.21548653 395.97976303 C28.37559408 397.70201837 22.53568144 399.42420508 16.69552612 401.14556885 C1.55835324 405.6073619 -13.57299756 410.0877261 -28.69262695 414.60864258 C-35.31870157 416.58954168 -41.94854906 418.55766754 -48.57923889 420.52305603 C-53.81014553 422.07531195 -59.03463167 423.64718554 -64.25497437 425.23458862 C-67.49000224 426.21428025 -70.72962628 427.17802098 -73.97064209 428.13769531 C-75.44560727 428.57813326 -76.9185944 429.02526661 -78.38922119 429.47998047 C-88.49780081 432.60155978 -97.39961905 434.53308573 -107.29296875 429.75 C-114.05530377 425.95681401 -118.27077233 418.97927272 -122.16796875 412.5 C-123.04305565 411.0734726 -123.91939859 409.64771508 -124.796875 408.22265625 C-125.2417627 407.49836426 -125.68665039 406.77407227 -126.14501953 406.02783203 C-128.25075421 402.63324915 -130.42601368 399.2850555 -132.60546875 395.9375 C-137.22246686 388.83384829 -141.79442953 381.70219954 -146.35546875 374.5625 C-152.85187788 364.39830579 -159.40417332 354.27209942 -165.98974609 344.16552734 C-168.36845814 340.51058525 -170.73742215 336.84935808 -173.10546875 333.1875 C-173.54826172 332.50300781 -173.99105469 331.81851562 -174.44726562 331.11328125 C-176.76591528 327.52837051 -179.08278182 323.9423141 -181.3984375 320.35546875 C-181.88296387 319.60547607 -182.36749023 318.8554834 -182.86669922 318.08276367 C-183.77903975 316.67052549 -184.69087283 315.25795926 -185.60205078 313.8449707 C-186.23216064 312.86983521 -186.23216064 312.86983521 -186.875 311.875 C-187.29088379 311.21749756 -187.70676758 310.55999512 -188.13525391 309.88256836 C-189.46648749 307.83093999 -189.46648749 307.83093999 -191.10302734 305.86938477 C-196.26027075 299.21351432 -196.56588254 293.06614082 -196.48046875 284.8125 C-196.46757812 283.5133667 -196.4546875 282.2142334 -196.44140625 280.87573242 C-196.03674379 270.24602173 -193.66447464 264.24386766 -187.15380859 256.10400391 C-183.65826238 251.44769563 -180.79483123 246.35709183 -177.79296875 241.375 C-176.40889764 239.11686464 -175.02216102 236.86036095 -173.6328125 234.60546875 C-172.59616455 232.92203369 -172.59616455 232.92203369 -171.53857422 231.20458984 C-168.33287093 226.01842359 -165.09474908 220.85273591 -161.85546875 215.6875 C-156.41825001 207.01521066 -151.0680199 198.29425544 -145.76269531 189.54077148 C-140.84660714 181.443399 -135.84047063 173.40424919 -130.8046875 165.38085938 C-126.32192197 158.2373878 -121.89339456 151.06179574 -117.48046875 143.875 C-116.24111958 141.860533 -115.00154017 139.84620764 -113.76171875 137.83203125 C-113.148125 136.83494141 -112.53453125 135.83785156 -111.90234375 134.81054688 C-107.08463542 126.98177083 -102.26692708 119.15299479 -97.44921875 111.32421875 C-96.79348877 110.25864746 -96.13775879 109.19307617 -95.4621582 108.09521484 C-94.13781299 105.94317427 -92.81343131 103.79115615 -91.48901367 101.63916016 C-88.11681971 96.15970573 -84.74529207 90.67984323 -81.375 85.19921875 C-80.01437564 82.98694674 -78.65369889 80.77470695 -77.29296875 78.5625 C-76.62668457 77.47928467 -75.96040039 76.39606934 -75.27392578 75.2800293 C-70.62442894 67.72473991 -65.95511871 60.18193986 -61.27709961 52.64428711 C-57.86968356 47.14486628 -54.50139513 41.62293078 -51.15136719 36.08837891 C-48.82132384 32.24361733 -46.47880116 28.40660741 -44.13085938 24.57275391 C-43.0582351 22.81942577 -41.98902866 21.06400052 -40.92382812 19.30615234 C-39.50007299 16.96479355 -38.05621811 14.63720096 -36.60546875 12.3125 C-36.20183105 11.64057617 -35.79819336 10.96865234 -35.38232422 10.27636719 C-31.68960502 4.4451287 -26.8266325 0.47533919 -20.60546875 -2.5 C-12.8586132 -4.04937111 -7.1193202 -3.49295438 0 0 Z M-9.10949707 53.01309204 C-10.97901778 55.55207628 -11.39546994 57.83079773 -12.04101562 60.91552734 C-12.30829468 62.16484039 -12.57557373 63.41415344 -12.85095215 64.70132446 C-13.1339118 66.07948692 -13.41666068 67.45769266 -13.69921875 68.8359375 C-14.00408568 70.28116643 -14.30997426 71.72618017 -14.61682129 73.17098999 C-15.26037565 76.21095973 -15.89713281 79.25223852 -16.52832031 82.2947998 C-17.43010728 86.64082914 -18.34762506 90.98339577 -19.26953125 95.32519531 C-21.01462589 103.55555006 -22.74006899 111.7899651 -24.4626236 120.02506256 C-25.17848421 123.4463753 -25.89534135 126.86747899 -26.6121769 130.28858757 C-28.38826887 138.76503444 -30.1628768 147.24179114 -31.93652344 155.71875 C-33.6703697 164.00545572 -35.40547638 172.29189644 -37.14160156 180.578125 C-43.16070741 209.30750717 -49.16742092 238.03945636 -55.16315365 266.77372551 C-56.88638681 275.03125983 -58.61184682 283.28832718 -60.3382206 291.54520535 C-62.92322573 303.90893358 -65.50361768 316.27361249 -68.07766724 328.63962746 C-69.37084244 334.85170725 -70.66597892 341.06336199 -71.96612549 347.27398682 C-73.17833118 353.06500325 -74.3848939 358.85716632 -75.58707237 364.65027237 C-76.02959007 366.77777151 -76.47415798 368.90484538 -76.92090797 371.03145981 C-77.53085445 373.93652057 -78.13341114 376.84301949 -78.73413086 379.75 C-79.00261432 381.01571933 -79.00261432 381.01571933 -79.27652168 382.30700874 C-81.01160748 390.18582041 -81.01160748 390.18582041 -78.98046875 397.75 C-76.14593346 400.159355 -74.70182697 400.30604704 -71.06228638 400.19833374 C-65.21703436 399.46630403 -59.62299293 397.52329645 -54.0078125 395.80078125 C-52.55530119 395.36417448 -51.10248289 394.92858795 -49.64938354 394.49394226 C-46.53414963 393.55993511 -43.42105498 392.61921614 -40.30947876 391.6730957 C-35.35824014 390.16771418 -30.40258928 388.67725806 -25.44604492 387.18945312 C-20.29400576 385.64230484 -15.14222669 384.09432576 -9.99195862 382.54129028 C6.06678081 377.69954668 22.14893313 372.93879711 38.23657227 368.19412231 C42.6837813 366.88226659 47.13010172 365.56741871 51.57617188 364.25170898 C52.65751341 363.93172424 52.65751341 363.93172424 53.76070023 363.60527515 C55.20088439 363.17909046 56.64106614 362.75289761 58.08124542 362.3266964 C67.94932351 359.40649089 77.81874107 356.49098995 87.69163513 353.58709717 C92.13787529 352.27840668 96.58284442 350.96544043 101.02749634 349.65136719 C103.03436219 349.0591582 105.04181308 348.46892745 107.04989624 347.88085938 C109.75094082 347.08971945 112.44989348 346.29180766 115.1484375 345.4921875 C115.91981049 345.26820282 116.69118347 345.04421814 117.4859314 344.81344604 C124.94483799 342.73676685 124.94483799 342.73676685 130.95703125 338.1875 C132.88063969 330.27933198 128.66072935 323.33260742 125.20669556 316.48397827 C123.91191542 313.91562594 122.64391471 311.33434686 121.37434387 308.75346375 C120.71605267 307.41538724 120.05652756 306.07791711 119.39579773 304.74104309 C116.26571405 298.39800676 113.28634927 291.98913785 110.33203125 285.5625 C104.97984994 273.95886394 99.51405112 262.41181994 94.01953125 250.875 C88.61404194 239.5232078 83.23040032 228.16391816 77.95703125 216.75 C72.93727505 205.88607216 67.83691603 195.06226642 62.70703125 184.25 C62.32427032 183.44322815 61.9415094 182.6364563 61.54714966 181.80523682 C61.16428802 180.99826355 60.78142639 180.19129028 60.38696289 179.35986328 C59.61472188 177.73210784 58.84250505 176.10434093 58.0703125 174.4765625 C57.68831192 173.67131134 57.30631134 172.86606018 56.91273499 172.03640747 C51.4083759 160.42864703 45.94624273 148.80100321 40.48175049 137.17443848 C38.13157936 132.17471508 35.77746779 127.17685848 33.421875 122.1796875 C32.05842501 119.28653782 30.69518363 116.39328991 29.33203125 113.5 C28.99967468 112.79470154 28.66731812 112.08940308 28.32489014 111.36273193 C24.24678201 102.70606249 20.19757997 94.03681078 16.18334961 85.3503418 C12.13288899 76.58553727 8.08394189 67.8262715 3.76953125 59.1875 C3.44597656 58.53958496 3.12242187 57.89166992 2.7890625 57.22412109 C1.4347545 54.35867511 1.4347545 54.35867511 -0.48046875 51.875 C-5.03263694 51.373847 -5.03263694 51.373847 -9.10949707 53.01309204 Z " fill="#ffffff" transform="translate(195.48046875,6.125)"/>
</svg>
