<?xml version="1.0" encoding="UTF-8"?>
<!DOCTYPE svg PUBLIC "-//W3C//DTD SVG 1.1//EN" "http://www.w3.org/Graphics/SVG/1.1/DTD/svg11.dtd">
<svg xmlns="http://www.w3.org/2000/svg" version="1.1" width="260px" height="260px" style="shape-rendering:geometricPrecision; text-rendering:geometricPrecision; image-rendering:optimizeQuality; fill-rule:evenodd; clip-rule:evenodd" xmlns:xlink="http://www.w3.org/1999/xlink">
<g><path style="opacity:1" fill="#fefefe" d="M -0.5,-0.5 C 6.16667,-0.5 12.8333,-0.5 19.5,-0.5C 19.5,6.16667 19.5,12.8333 19.5,19.5C 12.8333,19.5 6.16667,19.5 -0.5,19.5C -0.5,12.8333 -0.5,6.16667 -0.5,-0.5 Z"/></g>
<g><path style="opacity:1" fill="#eeeeee" d="M 19.5,-0.5 C 26.1667,-0.5 32.8333,-0.5 39.5,-0.5C 39.5,6.16667 39.5,12.8333 39.5,19.5C 32.8333,19.5 26.1667,19.5 19.5,19.5C 19.5,12.8333 19.5,6.16667 19.5,-0.5 Z"/></g>
<g><path style="opacity:1" fill="#fefefe" d="M 39.5,-0.5 C 46.1667,-0.5 52.8333,-0.5 59.5,-0.5C 59.5,6.16667 59.5,12.8333 59.5,19.5C 52.8333,19.5 46.1667,19.5 39.5,19.5C 39.5,12.8333 39.5,6.16667 39.5,-0.5 Z"/></g>
<g><path style="opacity:1" fill="#eeeeee" d="M -0.5,19.5 C 6.16667,19.5 12.8333,19.5 19.5,19.5C 19.5,26.1667 19.5,32.8333 19.5,39.5C 12.8333,39.5 6.16667,39.5 -0.5,39.5C -0.5,32.8333 -0.5,26.1667 -0.5,19.5 Z"/></g>
<g><path style="opacity:1" fill="#fefefe" d="M 19.5,19.5 C 26.1667,19.5 32.8333,19.5 39.5,19.5C 39.5,26.1667 39.5,32.8333 39.5,39.5C 32.8333,39.5 26.1667,39.5 19.5,39.5C 19.5,32.8333 19.5,26.1667 19.5,19.5 Z"/></g>
<g><path style="opacity:1" fill="#f6f6f6" d="M 59.5,-0.5 C 126.167,-0.5 192.833,-0.5 259.5,-0.5C 259.5,46.1667 259.5,92.8333 259.5,139.5C 252.833,139.5 246.167,139.5 239.5,139.5C 239.5,132.833 239.5,126.167 239.5,119.5C 232.833,119.5 226.167,119.5 219.5,119.5C 219.5,112.833 219.5,106.167 219.5,99.5C 219.5,92.8333 219.5,86.1667 219.5,79.5C 219.5,72.8333 219.5,66.1667 219.5,59.5C 212.833,59.5 206.167,59.5 199.5,59.5C 199.5,52.8333 199.5,46.1667 199.5,39.5C 193.167,39.5 186.833,39.5 180.5,39.5C 179.833,39.5 179.5,39.1667 179.5,38.5C 179.5,32.1667 179.5,25.8333 179.5,19.5C 173.5,19.5 167.5,19.5 161.5,19.5C 127.113,1.47173 97.613,7.47173 73,37.5C 64.7181,49.3887 59.2181,62.3887 56.5,76.5C 52.2336,96.9766 52.9002,117.31 58.5,137.5C 54.2853,139.436 49.6186,140.103 44.5,139.5C 43.1693,133.839 41.836,128.173 40.5,122.5C 39.8902,121.609 39.5569,120.609 39.5,119.5C 39.5,112.833 39.5,106.167 39.5,99.5C 39.5,92.8333 39.5,86.1667 39.5,79.5C 39.5,72.8333 39.5,66.1667 39.5,59.5C 39.5,52.8333 39.5,46.1667 39.5,39.5C 39.5,32.8333 39.5,26.1667 39.5,19.5C 46.1667,19.5 52.8333,19.5 59.5,19.5C 59.5,12.8333 59.5,6.16667 59.5,-0.5 Z"/></g>
<g><path style="opacity:1" fill="#edeced" d="M 161.5,19.5 C 167.5,19.5 173.5,19.5 179.5,19.5C 179.5,25.8333 179.5,32.1667 179.5,38.5C 174.203,31.5356 168.203,25.2023 161.5,19.5 Z"/></g>
<g><path style="opacity:1" fill="#8355c5" d="M 161.5,19.5 C 168.203,25.2023 174.203,31.5356 179.5,38.5C 179.5,39.1667 179.833,39.5 180.5,39.5C 183.655,46.4784 186.821,53.4784 190,60.5C 192.234,69.366 193.734,78.366 194.5,87.5C 189.083,86.4791 183.75,85.1457 178.5,83.5C 178.599,80.7628 178.265,78.0961 177.5,75.5C 177.59,72.8478 176.924,70.5145 175.5,68.5C 170.713,50.0733 160.046,36.24 143.5,27C 133.299,23.5214 123.299,23.6881 113.5,27.5C 104.787,29.7059 97.1207,33.8726 90.5,40C 72.2475,63.384 65.5808,89.884 70.5,119.5C 68.955,120.23 68.1216,121.563 68,123.5C 67.7618,119.778 67.2618,116.111 66.5,112.5C 67.7584,108.856 68.4251,105.023 68.5,101C 68.3333,97.5 68.1667,94 68,90.5C 67.6667,92.1667 67.3333,93.8333 67,95.5C 66.4905,90.2248 67.3238,85.2248 69.5,80.5C 68.7528,80.2635 67.9195,79.9302 67,79.5C 66.6667,80.5 66.3333,81.5 66,82.5C 65.6667,82.1667 65.3333,81.8333 65,81.5C 64.6667,83.5 64.3333,85.5 64,87.5C 63.231,84.9009 63.3977,82.4009 64.5,80C 63.8742,79.2496 63.3742,78.4162 63,77.5C 62.3333,78.8333 61.6667,80.1667 61,81.5C 61.9938,78.1031 61.6604,74.7698 60,71.5C 59.6667,73.1667 59.3333,74.8333 59,76.5C 58.2303,75.4019 57.397,75.4019 56.5,76.5C 59.2181,62.3887 64.7181,49.3887 73,37.5C 97.613,7.47173 127.113,1.47173 161.5,19.5 Z"/></g>
<g><path style="opacity:1" fill="#fefefe" d="M -0.5,39.5 C 6.16667,39.5 12.8333,39.5 19.5,39.5C 19.5,46.1667 19.5,52.8333 19.5,59.5C 12.8333,59.5 6.16667,59.5 -0.5,59.5C -0.5,52.8333 -0.5,46.1667 -0.5,39.5 Z"/></g>
<g><path style="opacity:1" fill="#eeeeee" d="M 19.5,39.5 C 26.1667,39.5 32.8333,39.5 39.5,39.5C 39.5,46.1667 39.5,52.8333 39.5,59.5C 32.8333,59.5 26.1667,59.5 19.5,59.5C 19.5,52.8333 19.5,46.1667 19.5,39.5 Z"/></g>
<g><path style="opacity:1" fill="#f6f6f6" d="M 178.5,83.5 C 179.119,86.2479 179.452,89.0812 179.5,92C 179.475,94.9294 178.809,97.4294 177.5,99.5C 160.917,95.6215 144.25,93.2882 127.5,92.5C 131.5,92.5 135.5,92.5 139.5,92.5C 139.5,88.1667 139.5,83.8333 139.5,79.5C 132.833,79.5 126.167,79.5 119.5,79.5C 119.5,72.8333 119.5,66.1667 119.5,59.5C 112.833,59.5 106.167,59.5 99.5,59.5C 99.5,66.1667 99.5,72.8333 99.5,79.5C 92.8333,79.5 86.1667,79.5 79.5,79.5C 79.5,86.1667 79.5,92.8333 79.5,99.5C 79.5,106.167 79.5,112.833 79.5,119.5C 76.8333,119.5 74.1667,119.5 71.5,119.5C 71.1667,119.5 70.8333,119.5 70.5,119.5C 65.5808,89.884 72.2475,63.384 90.5,40C 97.1207,33.8726 104.787,29.7059 113.5,27.5C 115.262,27.6427 116.929,27.3094 118.5,26.5C 119.492,30.7828 119.826,35.1161 119.5,39.5C 126.167,39.5 132.833,39.5 139.5,39.5C 139.5,46.1667 139.5,52.8333 139.5,59.5C 146.167,59.5 152.833,59.5 159.5,59.5C 159.5,66.1667 159.5,72.8333 159.5,79.5C 165.5,79.5 171.5,79.5 177.5,79.5C 177.232,81.099 177.566,82.4324 178.5,83.5 Z"/></g>
<g><path style="opacity:1" fill="#f0f0f1" d="M 175.5,68.5 C 175.41,71.1522 176.076,73.4855 177.5,75.5C 178.265,78.0961 178.599,80.7628 178.5,83.5C 177.566,82.4324 177.232,81.099 177.5,79.5C 171.5,79.5 165.5,79.5 159.5,79.5C 159.5,72.8333 159.5,66.1667 159.5,59.5C 152.833,59.5 146.167,59.5 139.5,59.5C 139.5,52.8333 139.5,46.1667 139.5,39.5C 132.833,39.5 126.167,39.5 119.5,39.5C 119.826,35.1161 119.492,30.7828 118.5,26.5C 116.929,27.3094 115.262,27.6427 113.5,27.5C 123.299,23.6881 133.299,23.5214 143.5,27C 160.046,36.24 170.713,50.0733 175.5,68.5 Z"/></g>
<g><path style="opacity:1" fill="#eeeeee" d="M -0.5,59.5 C 6.16667,59.5 12.8333,59.5 19.5,59.5C 19.5,66.1667 19.5,72.8333 19.5,79.5C 12.8333,79.5 6.16667,79.5 -0.5,79.5C -0.5,72.8333 -0.5,66.1667 -0.5,59.5 Z"/></g>
<g><path style="opacity:1" fill="#fefefe" d="M 19.5,59.5 C 26.1667,59.5 32.8333,59.5 39.5,59.5C 39.5,66.1667 39.5,72.8333 39.5,79.5C 32.8333,79.5 26.1667,79.5 19.5,79.5C 19.5,72.8333 19.5,66.1667 19.5,59.5 Z"/></g>
<g><path style="opacity:1" fill="#c8b5de" d="M 175.5,68.5 C 176.924,70.5145 177.59,72.8478 177.5,75.5C 176.076,73.4855 175.41,71.1522 175.5,68.5 Z"/></g>
<g><path style="opacity:1" fill="#fefefe" d="M -0.5,79.5 C 6.16667,79.5 12.8333,79.5 19.5,79.5C 19.5,86.1667 19.5,92.8333 19.5,99.5C 12.8333,99.5 6.16667,99.5 -0.5,99.5C -0.5,92.8333 -0.5,86.1667 -0.5,79.5 Z"/></g>
<g><path style="opacity:1" fill="#eeeeee" d="M 19.5,79.5 C 26.1667,79.5 32.8333,79.5 39.5,79.5C 39.5,86.1667 39.5,92.8333 39.5,99.5C 32.8333,99.5 26.1667,99.5 19.5,99.5C 19.5,92.8333 19.5,86.1667 19.5,79.5 Z"/></g>
<g><path style="opacity:1" fill="#fbfbfb" d="M 127.5,92.5 C 117.913,81.0427 107.746,80.7094 97,91.5C 95.878,93.4068 95.0447,95.4068 94.5,97.5C 89.807,99.3598 84.807,100.026 79.5,99.5C 79.5,92.8333 79.5,86.1667 79.5,79.5C 86.1667,79.5 92.8333,79.5 99.5,79.5C 99.5,72.8333 99.5,66.1667 99.5,59.5C 106.167,59.5 112.833,59.5 119.5,59.5C 119.5,66.1667 119.5,72.8333 119.5,79.5C 126.167,79.5 132.833,79.5 139.5,79.5C 139.5,83.8333 139.5,88.1667 139.5,92.5C 135.5,92.5 131.5,92.5 127.5,92.5 Z"/></g>
<g><path style="opacity:1" fill="#fefefe" d="M 219.5,79.5 C 219.5,86.1667 219.5,92.8333 219.5,99.5C 212.833,99.5 206.167,99.5 199.5,99.5C 199.5,92.8333 199.5,86.1667 199.5,79.5C 206.167,79.5 212.833,79.5 219.5,79.5 Z"/></g>
<g><path style="opacity:1" fill="#8356c5" d="M 70.5,119.5 C 70.8333,119.5 71.1667,119.5 71.5,119.5C 73.0177,134.386 77.351,148.386 84.5,161.5C 82.6096,161.703 81.1096,161.037 80,159.5C 79.5078,160.549 79.6744,161.549 80.5,162.5C 82.1492,163.148 83.4825,164.148 84.5,165.5C 81.9133,165.183 80.08,166.517 79,169.5C 78.6667,168.833 78.3333,168.167 78,167.5C 77.3333,168.833 76.6667,168.833 76,167.5C 75.0087,169.447 74.6753,171.447 75,173.5C 75.5354,171.729 76.3687,171.396 77.5,172.5C 77.1667,173.167 76.8333,173.833 76.5,174.5C 77.5203,178.14 78.0203,181.806 78,185.5C 77.1376,183.913 76.4709,182.246 76,180.5C 74.1967,184.512 73.1967,184.178 73,179.5C 72.5026,182.146 72.3359,184.813 72.5,187.5C 71.6618,187.158 71.3284,186.492 71.5,185.5C 71.3942,180.622 71.8942,175.956 73,171.5C 66.8725,160.587 62.0392,149.253 58.5,137.5C 52.9002,117.31 52.2336,96.9766 56.5,76.5C 57.397,75.4019 58.2303,75.4019 59,76.5C 59.3333,74.8333 59.6667,73.1667 60,71.5C 61.6604,74.7698 61.9938,78.1031 61,81.5C 61.6667,80.1667 62.3333,78.8333 63,77.5C 63.3742,78.4162 63.8742,79.2496 64.5,80C 63.3977,82.4009 63.231,84.9009 64,87.5C 64.3333,85.5 64.6667,83.5 65,81.5C 65.3333,81.8333 65.6667,82.1667 66,82.5C 66.3333,81.5 66.6667,80.5 67,79.5C 67.9195,79.9302 68.7528,80.2635 69.5,80.5C 67.3238,85.2248 66.4905,90.2248 67,95.5C 67.3333,93.8333 67.6667,92.1667 68,90.5C 68.1667,94 68.3333,97.5 68.5,101C 68.4251,105.023 67.7584,108.856 66.5,112.5C 67.2618,116.111 67.7618,119.778 68,123.5C 68.1216,121.563 68.955,120.23 70.5,119.5 Z"/></g>
<g><path style="opacity:1" fill="#8355c5" d="M 127.5,92.5 C 144.25,93.2882 160.917,95.6215 177.5,99.5C 209.682,110.021 234.015,130.021 250.5,159.5C 251.808,162.73 252.808,166.064 253.5,169.5C 253.41,172.152 254.076,174.485 255.5,176.5C 256.717,185.779 256.717,195.113 255.5,204.5C 254.21,205.058 253.377,206.058 253,207.5C 252.333,204.833 251.667,202.167 251,199.5C 250.138,201.087 249.471,202.754 249,204.5C 248.536,198.825 247.869,198.492 247,203.5C 246.458,198.279 245.624,198.279 244.5,203.5C 243.719,202.271 243.219,200.938 243,199.5C 242.867,202.525 241.867,205.192 240,207.5C 239.536,206.906 239.369,206.239 239.5,205.5C 244.31,188.722 241.643,173.389 231.5,159.5C 230.364,155.229 228.198,151.563 225,148.5C 204.606,125.741 179.106,112.741 148.5,109.5C 142.013,108.346 135.346,108.179 128.5,109C 127.748,109.671 127.414,110.504 127.5,111.5C 121.902,118.578 114.569,121.078 105.5,119C 96.9576,114.417 93.2909,107.25 94.5,97.5C 95.0447,95.4068 95.878,93.4068 97,91.5C 107.746,80.7094 117.913,81.0427 127.5,92.5 Z"/></g>
<g><path style="opacity:1" fill="#eeeeee" d="M -0.5,99.5 C 6.16667,99.5 12.8333,99.5 19.5,99.5C 19.5,106.167 19.5,112.833 19.5,119.5C 12.8333,119.5 6.16667,119.5 -0.5,119.5C -0.5,112.833 -0.5,106.167 -0.5,99.5 Z"/></g>
<g><path style="opacity:1" fill="#fefefe" d="M 19.5,99.5 C 26.1667,99.5 32.8333,99.5 39.5,99.5C 39.5,106.167 39.5,112.833 39.5,119.5C 32.8333,119.5 26.1667,119.5 19.5,119.5C 19.5,112.833 19.5,106.167 19.5,99.5 Z"/></g>
<g><path style="opacity:1" fill="#eeedef" d="M 180.5,39.5 C 186.833,39.5 193.167,39.5 199.5,39.5C 199.5,46.1667 199.5,52.8333 199.5,59.5C 206.167,59.5 212.833,59.5 219.5,59.5C 219.5,66.1667 219.5,72.8333 219.5,79.5C 212.833,79.5 206.167,79.5 199.5,79.5C 199.5,86.1667 199.5,92.8333 199.5,99.5C 206.167,99.5 212.833,99.5 219.5,99.5C 219.5,106.167 219.5,112.833 219.5,119.5C 226.167,119.5 232.833,119.5 239.5,119.5C 239.5,126.167 239.5,132.833 239.5,139.5C 246.167,139.5 252.833,139.5 259.5,139.5C 259.5,146.167 259.5,152.833 259.5,159.5C 256.5,159.5 253.5,159.5 250.5,159.5C 234.015,130.021 209.682,110.021 177.5,99.5C 178.809,97.4294 179.475,94.9294 179.5,92C 179.452,89.0812 179.119,86.2479 178.5,83.5C 183.75,85.1457 189.083,86.4791 194.5,87.5C 193.734,78.366 192.234,69.366 190,60.5C 186.821,53.4784 183.655,46.4784 180.5,39.5 Z"/></g>
<g><path style="opacity:1" fill="#ccbae2" d="M 148.5,109.5 C 141.292,108.996 134.292,109.663 127.5,111.5C 127.414,110.504 127.748,109.671 128.5,109C 135.346,108.179 142.013,108.346 148.5,109.5 Z"/></g>
<g><path style="opacity:1" fill="#fefefe" d="M -0.5,119.5 C 6.16667,119.5 12.8333,119.5 19.5,119.5C 19.5,126.167 19.5,132.833 19.5,139.5C 12.8333,139.5 6.16667,139.5 -0.5,139.5C -0.5,132.833 -0.5,126.167 -0.5,119.5 Z"/></g>
<g><path style="opacity:1" fill="#fefefe" d="M 79.5,119.5 C 86.1667,119.5 92.8333,119.5 99.5,119.5C 99.5,126.167 99.5,132.833 99.5,139.5C 99.5,132.833 99.5,126.167 99.5,119.5C 92.8333,119.5 86.1667,119.5 79.5,119.5 Z"/></g>
<g><path style="opacity:1" fill="#efeeef" d="M 94.5,97.5 C 93.2909,107.25 96.9576,114.417 105.5,119C 114.569,121.078 121.902,118.578 127.5,111.5C 134.292,109.663 141.292,108.996 148.5,109.5C 179.106,112.741 204.606,125.741 225,148.5C 228.198,151.563 230.364,155.229 231.5,159.5C 227.5,159.5 223.5,159.5 219.5,159.5C 212.833,159.5 206.167,159.5 199.5,159.5C 199.5,152.833 199.5,146.167 199.5,139.5C 192.833,139.5 186.167,139.5 179.5,139.5C 179.5,132.833 179.5,126.167 179.5,119.5C 172.833,119.5 166.167,119.5 159.5,119.5C 159.5,126.167 159.5,132.833 159.5,139.5C 152.833,139.5 146.167,139.5 139.5,139.5C 139.5,132.833 139.5,126.167 139.5,119.5C 132.682,119.118 126.016,119.118 119.5,119.5C 119.5,126.167 119.5,132.833 119.5,139.5C 112.833,139.5 106.167,139.5 99.5,139.5C 99.5,132.833 99.5,126.167 99.5,119.5C 92.8333,119.5 86.1667,119.5 79.5,119.5C 79.5,112.833 79.5,106.167 79.5,99.5C 84.807,100.026 89.807,99.3598 94.5,97.5 Z"/></g>
<g><path style="opacity:1" fill="#fefefe" d="M 139.5,139.5 C 132.833,139.5 126.167,139.5 119.5,139.5C 119.5,132.833 119.5,126.167 119.5,119.5C 126.016,119.118 132.682,119.118 139.5,119.5C 139.5,126.167 139.5,132.833 139.5,139.5 Z"/></g>
<g><path style="opacity:1" fill="#f0eff0" d="M 19.5,119.5 C 26.1667,119.5 32.8333,119.5 39.5,119.5C 39.5569,120.609 39.8902,121.609 40.5,122.5C 21.9399,134.401 9.93988,151.067 4.5,172.5C 3.07215,177.088 2.40549,181.921 2.5,187C 2.50224,190.021 2.83558,192.854 3.5,195.5C 4.03659,204.875 6.70325,213.542 11.5,221.5C 14.4756,225.482 17.4756,229.482 20.5,233.5C 20.1307,235.441 19.464,237.275 18.5,239C 12.1754,239.5 5.84209,239.666 -0.5,239.5C -0.5,206.167 -0.5,172.833 -0.5,139.5C 6.16667,139.5 12.8333,139.5 19.5,139.5C 19.5,132.833 19.5,126.167 19.5,119.5 Z"/></g>
<g><path style="opacity:1" fill="#eeedef" d="M 58.5,137.5 C 62.0392,149.253 66.8725,160.587 73,171.5C 71.8942,175.956 71.3942,180.622 71.5,185.5C 70.5386,183.735 70.2053,181.735 70.5,179.5C 66.8333,179.5 63.1667,179.5 59.5,179.5C 59.5,172.833 59.5,166.167 59.5,159.5C 52.8333,159.5 46.1667,159.5 39.5,159.5C 39.5,166.167 39.5,172.833 39.5,179.5C 32.7894,179.579 26.2894,179.579 20,179.5C 19.3891,186.164 18.8891,192.83 18.5,199.5C 18.1667,199.5 17.8333,199.5 17.5,199.5C 14.5525,174.066 23.5525,154.066 44.5,139.5C 49.6186,140.103 54.2853,139.436 58.5,137.5 Z"/></g>
<g><path style="opacity:1" fill="#efeeef" d="M 71.5,119.5 C 74.1667,119.5 76.8333,119.5 79.5,119.5C 79.5,126.167 79.5,132.833 79.5,139.5C 86.1667,139.5 92.8333,139.5 99.5,139.5C 99.5,146.167 99.5,152.833 99.5,159.5C 106.167,159.5 112.833,159.5 119.5,159.5C 119.5,166.167 119.5,172.833 119.5,179.5C 115.833,179.5 112.167,179.5 108.5,179.5C 108.795,181.735 108.461,183.735 107.5,185.5C 107.505,171.67 100.505,164.503 86.5,164C 85.9341,163.005 85.2674,162.172 84.5,161.5C 77.351,148.386 73.0177,134.386 71.5,119.5 Z"/></g>
<g><path style="opacity:1" fill="#fefefe" d="M 99.5,139.5 C 106.167,139.5 112.833,139.5 119.5,139.5C 119.5,146.167 119.5,152.833 119.5,159.5C 112.833,159.5 106.167,159.5 99.5,159.5C 99.5,152.833 99.5,146.167 99.5,139.5 Z"/></g>
<g><path style="opacity:1" fill="#eeeeee" d="M 119.5,139.5 C 126.167,139.5 132.833,139.5 139.5,139.5C 139.5,146.167 139.5,152.833 139.5,159.5C 132.833,159.5 126.167,159.5 119.5,159.5C 119.5,152.833 119.5,146.167 119.5,139.5 Z"/></g>
<g><path style="opacity:1" fill="#fbfbfb" d="M 199.5,159.5 C 198.167,159.5 196.833,159.5 195.5,159.5C 195.768,157.901 195.434,156.568 194.5,155.5C 192.268,147.932 187.268,143.599 179.5,142.5C 178.551,141.848 177.385,141.514 176,141.5C 173.779,141.393 171.946,142.06 170.5,143.5C 164.356,145.651 160.689,149.984 159.5,156.5C 158.596,157.209 158.263,158.209 158.5,159.5C 152.167,159.5 145.833,159.5 139.5,159.5C 139.5,152.833 139.5,146.167 139.5,139.5C 146.167,139.5 152.833,139.5 159.5,139.5C 159.5,132.833 159.5,126.167 159.5,119.5C 166.167,119.5 172.833,119.5 179.5,119.5C 179.5,126.167 179.5,132.833 179.5,139.5C 186.167,139.5 192.833,139.5 199.5,139.5C 199.5,146.167 199.5,152.833 199.5,159.5 Z"/></g>
<g><path style="opacity:1" fill="#9f7fce" d="M 179.5,142.5 C 176.921,142.083 174.754,142.75 173,144.5C 172.329,143.748 171.496,143.414 170.5,143.5C 171.946,142.06 173.779,141.393 176,141.5C 177.385,141.514 178.551,141.848 179.5,142.5 Z"/></g>
<g><path style="opacity:1" fill="#8254c5" d="M 179.5,142.5 C 187.268,143.599 192.268,147.932 194.5,155.5C 196.79,164.746 193.79,171.579 185.5,176C 183.26,176.977 180.927,177.477 178.5,177.5C 175.028,185.111 171.028,192.444 166.5,199.5C 162.824,203.541 159.157,207.541 155.5,211.5C 152.827,211.316 152.16,210.149 153.5,208C 151.223,206.858 148.89,206.358 146.5,206.5C 148.047,204.455 149.381,202.289 150.5,200C 149.571,198.923 148.904,197.756 148.5,196.5C 151.737,192.37 154.737,188.037 157.5,183.5C 159.873,180.445 161.873,177.111 163.5,173.5C 162.511,171.506 161.511,169.506 160.5,167.5C 159.656,163.901 159.323,160.234 159.5,156.5C 160.689,149.984 164.356,145.651 170.5,143.5C 171.496,143.414 172.329,143.748 173,144.5C 174.754,142.75 176.921,142.083 179.5,142.5 Z"/></g>
<g><path style="opacity:1" fill="#fefefe" d="M 59.5,179.5 C 52.8333,179.5 46.1667,179.5 39.5,179.5C 39.5,172.833 39.5,166.167 39.5,159.5C 46.1667,159.5 52.8333,159.5 59.5,159.5C 59.5,166.167 59.5,172.833 59.5,179.5 Z"/></g>
<g><path style="opacity:1" fill="#fefefe" d="M 119.5,159.5 C 126.167,159.5 132.833,159.5 139.5,159.5C 139.5,166.167 139.5,172.833 139.5,179.5C 132.833,179.5 126.167,179.5 119.5,179.5C 119.5,172.833 119.5,166.167 119.5,159.5 Z"/></g>
<g><path style="opacity:1" fill="#eeeeef" d="M 139.5,159.5 C 145.833,159.5 152.167,159.5 158.5,159.5C 158.337,161.857 158.503,164.19 159,166.5C 159.383,167.056 159.883,167.389 160.5,167.5C 161.511,169.506 162.511,171.506 163.5,173.5C 161.873,177.111 159.873,180.445 157.5,183.5C 157.5,182.167 157.5,180.833 157.5,179.5C 151.5,179.5 145.5,179.5 139.5,179.5C 139.5,172.833 139.5,166.167 139.5,159.5 Z"/></g>
<g><path style="opacity:1" fill="#fefefe" d="M 199.5,159.5 C 206.167,159.5 212.833,159.5 219.5,159.5C 219.5,166.167 219.5,172.833 219.5,179.5C 212.833,179.5 206.167,179.5 199.5,179.5C 199.5,172.833 199.5,166.167 199.5,159.5 Z"/></g>
<g><path style="opacity:1" fill="#8254c5" d="M 84.5,161.5 C 85.2674,162.172 85.9341,163.005 86.5,164C 100.505,164.503 107.505,171.67 107.5,185.5C 106.172,190.165 103.839,194.165 100.5,197.5C 99.2905,197.932 98.2905,198.599 97.5,199.5C 92.1667,200.833 86.8333,200.833 81.5,199.5C 79.5248,197.863 77.5248,196.196 75.5,194.5C 74.2271,192.287 73.2271,189.954 72.5,187.5C 72.3359,184.813 72.5026,182.146 73,179.5C 73.1967,184.178 74.1967,184.512 76,180.5C 76.4709,182.246 77.1376,183.913 78,185.5C 78.0203,181.806 77.5203,178.14 76.5,174.5C 76.8333,173.833 77.1667,173.167 77.5,172.5C 76.3687,171.396 75.5354,171.729 75,173.5C 74.6753,171.447 75.0087,169.447 76,167.5C 76.6667,168.833 77.3333,168.833 78,167.5C 78.3333,168.167 78.6667,168.833 79,169.5C 80.08,166.517 81.9133,165.183 84.5,165.5C 83.4825,164.148 82.1492,163.148 80.5,162.5C 79.6744,161.549 79.5078,160.549 80,159.5C 81.1096,161.037 82.6096,161.703 84.5,161.5 Z"/></g>
<g><path style="opacity:1" fill="#cebde6" d="M 159.5,156.5 C 159.323,160.234 159.656,163.901 160.5,167.5C 159.883,167.389 159.383,167.056 159,166.5C 158.503,164.19 158.337,161.857 158.5,159.5C 158.263,158.209 158.596,157.209 159.5,156.5 Z"/></g>
<g><path style="opacity:1" fill="#8254c5" d="M 40.5,122.5 C 41.836,128.173 43.1693,133.839 44.5,139.5C 23.5525,154.066 14.5525,174.066 17.5,199.5C 17.2792,202.097 16.7792,202.097 16,199.5C 15.2217,202.275 15.7217,204.775 17.5,207C 17.0496,208.285 16.3829,209.452 15.5,210.5C 16.311,211.216 16.9777,212.05 17.5,213C 16.6458,213.574 15.6458,214.241 14.5,215C 13.2643,216.856 13.2643,218.689 14.5,220.5C 13.675,221.386 12.675,221.719 11.5,221.5C 6.70325,213.542 4.03659,204.875 3.5,195.5C 3.52341,187.817 3.85675,180.15 4.5,172.5C 9.93988,151.067 21.9399,134.401 40.5,122.5 Z"/></g>
<g><path style="opacity:1" fill="#a484d5" d="M 253.5,169.5 C 254.924,171.515 255.59,173.848 255.5,176.5C 254.076,174.485 253.41,172.152 253.5,169.5 Z"/></g>
<g><path style="opacity:1" fill="#fefefe" d="M 39.5,179.5 C 39.5,186.167 39.5,192.833 39.5,199.5C 32.5,199.5 25.5,199.5 18.5,199.5C 18.8891,192.83 19.3891,186.164 20,179.5C 26.2894,179.579 32.7894,179.579 39.5,179.5 Z"/></g>
<g><path style="opacity:1" fill="#eeeeee" d="M 39.5,179.5 C 46.1667,179.5 52.8333,179.5 59.5,179.5C 59.5,186.167 59.5,192.833 59.5,199.5C 52.8333,199.5 46.1667,199.5 39.5,199.5C 39.5,192.833 39.5,186.167 39.5,179.5 Z"/></g>
<g><path style="opacity:1" fill="#fdfdfe" d="M 59.5,179.5 C 63.1667,179.5 66.8333,179.5 70.5,179.5C 70.2053,181.735 70.5386,183.735 71.5,185.5C 71.3284,186.492 71.6618,187.158 72.5,187.5C 73.2271,189.954 74.2271,192.287 75.5,194.5C 75.4208,195.93 75.7542,197.264 76.5,198.5C 70.8722,199.495 65.2055,199.829 59.5,199.5C 59.5,192.833 59.5,186.167 59.5,179.5 Z"/></g>
<g><path style="opacity:1" fill="#fdfcfd" d="M 119.5,179.5 C 119.5,186.167 119.5,192.833 119.5,199.5C 112.745,200.123 106.412,199.456 100.5,197.5C 103.839,194.165 106.172,190.165 107.5,185.5C 108.461,183.735 108.795,181.735 108.5,179.5C 112.167,179.5 115.833,179.5 119.5,179.5 Z"/></g>
<g><path style="opacity:1" fill="#eeeeee" d="M 119.5,179.5 C 126.167,179.5 132.833,179.5 139.5,179.5C 139.5,186.167 139.5,192.833 139.5,199.5C 132.833,199.5 126.167,199.5 119.5,199.5C 119.5,192.833 119.5,186.167 119.5,179.5 Z"/></g>
<g><path style="opacity:1" fill="#fefefe" d="M 199.5,179.5 C 199.5,186.167 199.5,192.833 199.5,199.5C 192.833,199.5 186.167,199.5 179.5,199.5C 179.334,193.158 179.5,186.825 180,180.5C 186.41,179.522 192.91,179.189 199.5,179.5 Z"/></g>
<g><path style="opacity:1" fill="#eeeeee" d="M 199.5,179.5 C 206.167,179.5 212.833,179.5 219.5,179.5C 219.5,186.167 219.5,192.833 219.5,199.5C 212.833,199.5 206.167,199.5 199.5,199.5C 199.5,192.833 199.5,186.167 199.5,179.5 Z"/></g>
<g><path style="opacity:1" fill="#fefefe" d="M 219.5,179.5 C 226.167,179.5 232.833,179.5 239.5,179.5C 239.5,186.167 239.5,192.833 239.5,199.5C 232.833,199.5 226.167,199.5 219.5,199.5C 219.5,192.833 219.5,186.167 219.5,179.5 Z"/></g>
<g><path style="opacity:1" fill="#9d7dcf" d="M 4.5,172.5 C 3.85675,180.15 3.52341,187.817 3.5,195.5C 2.83558,192.854 2.50224,190.021 2.5,187C 2.40549,181.921 3.07215,177.088 4.5,172.5 Z"/></g>
<g><path style="opacity:1" fill="#eae8ec" d="M 194.5,155.5 C 195.434,156.568 195.768,157.901 195.5,159.5C 196.833,159.5 198.167,159.5 199.5,159.5C 199.5,166.167 199.5,172.833 199.5,179.5C 192.91,179.189 186.41,179.522 180,180.5C 179.5,186.825 179.334,193.158 179.5,199.5C 175.167,199.5 170.833,199.5 166.5,199.5C 171.028,192.444 175.028,185.111 178.5,177.5C 180.927,177.477 183.26,176.977 185.5,176C 193.79,171.579 196.79,164.746 194.5,155.5 Z"/></g>
<g><path style="opacity:1" fill="#fefefe" d="M 39.5,199.5 C 46.1667,199.5 52.8333,199.5 59.5,199.5C 59.5,206.167 59.5,212.833 59.5,219.5C 52.8333,219.5 46.1667,219.5 39.5,219.5C 39.5,212.833 39.5,206.167 39.5,199.5 Z"/></g>
<g><path style="opacity:1" fill="#eeeeee" d="M 75.5,194.5 C 77.5248,196.196 79.5248,197.863 81.5,199.5C 79.5411,205.75 78.8745,212.416 79.5,219.5C 72.8333,219.5 66.1667,219.5 59.5,219.5C 59.5,212.833 59.5,206.167 59.5,199.5C 65.2055,199.829 70.8722,199.495 76.5,198.5C 75.7542,197.264 75.4208,195.93 75.5,194.5 Z"/></g>
<g><path style="opacity:1" fill="#fdfdfd" d="M 81.5,199.5 C 86.8333,200.833 92.1667,200.833 97.5,199.5C 99.4589,205.75 100.126,212.416 99.5,219.5C 92.8333,219.5 86.1667,219.5 79.5,219.5C 78.8745,212.416 79.5411,205.75 81.5,199.5 Z"/></g>
<g><path style="opacity:1" fill="#efefef" d="M 100.5,197.5 C 106.412,199.456 112.745,200.123 119.5,199.5C 119.5,205.833 119.5,212.167 119.5,218.5C 107.267,226.247 93.9334,231.247 79.5,233.5C 79.5,228.833 79.5,224.167 79.5,219.5C 86.1667,219.5 92.8333,219.5 99.5,219.5C 100.126,212.416 99.4589,205.75 97.5,199.5C 98.2905,198.599 99.2905,197.932 100.5,197.5 Z"/></g>
<g><path style="opacity:1" fill="#fcfbfc" d="M 139.5,179.5 C 145.5,179.5 151.5,179.5 157.5,179.5C 157.5,180.833 157.5,182.167 157.5,183.5C 154.737,188.037 151.737,192.37 148.5,196.5C 139.77,205.036 130.103,212.369 119.5,218.5C 119.5,212.167 119.5,205.833 119.5,199.5C 126.167,199.5 132.833,199.5 139.5,199.5C 139.5,192.833 139.5,186.167 139.5,179.5 Z"/></g>
<g><path style="opacity:1" fill="#eeedee" d="M 219.5,159.5 C 223.5,159.5 227.5,159.5 231.5,159.5C 241.643,173.389 244.31,188.722 239.5,205.5C 232.783,219.381 222.117,228.881 207.5,234C 204.854,234.497 202.187,234.664 199.5,234.5C 199.5,229.5 199.5,224.5 199.5,219.5C 206.167,219.5 212.833,219.5 219.5,219.5C 219.5,212.833 219.5,206.167 219.5,199.5C 226.167,199.5 232.833,199.5 239.5,199.5C 239.5,192.833 239.5,186.167 239.5,179.5C 232.833,179.5 226.167,179.5 219.5,179.5C 219.5,172.833 219.5,166.167 219.5,159.5 Z"/></g>
<g><path style="opacity:1" fill="#edebee" d="M 18.5,199.5 C 25.5,199.5 32.5,199.5 39.5,199.5C 39.5,206.167 39.5,212.833 39.5,219.5C 46.1667,219.5 52.8333,219.5 59.5,219.5C 59.5,224.167 59.5,228.833 59.5,233.5C 66.1667,233.5 72.8333,233.5 79.5,233.5C 79.1583,234.338 78.4916,234.672 77.5,234.5C 63.3737,235.98 50.0403,233.48 37.5,227C 28.0648,219.959 21.7315,210.792 18.5,199.5 Z"/></g>
<g><path style="opacity:1" fill="#fefefe" d="M 59.5,219.5 C 66.1667,219.5 72.8333,219.5 79.5,219.5C 79.5,224.167 79.5,228.833 79.5,233.5C 72.8333,233.5 66.1667,233.5 59.5,233.5C 59.5,228.833 59.5,224.167 59.5,219.5 Z"/></g>
<g><path style="opacity:1" fill="#f7f7f7" d="M 166.5,199.5 C 170.833,199.5 175.167,199.5 179.5,199.5C 186.167,199.5 192.833,199.5 199.5,199.5C 206.167,199.5 212.833,199.5 219.5,199.5C 219.5,206.167 219.5,212.833 219.5,219.5C 212.833,219.5 206.167,219.5 199.5,219.5C 199.5,224.5 199.5,229.5 199.5,234.5C 186.534,236.295 173.867,234.628 161.5,229.5C 156.562,232.436 151.895,235.77 147.5,239.5C 144.833,239.5 142.167,239.5 139.5,239.5C 139.5,246.167 139.5,252.833 139.5,259.5C 106.167,259.5 72.8333,259.5 39.5,259.5C 38.8969,254.381 39.5636,249.715 41.5,245.5C 45.9755,247.286 50.6422,248.452 55.5,249C 66.9371,249.99 78.2704,249.49 89.5,247.5C 115.324,242.259 137.324,230.259 155.5,211.5C 159.157,207.541 162.824,203.541 166.5,199.5 Z"/></g>
<g><path style="opacity:1" fill="#efeff0" d="M 250.5,159.5 C 253.5,159.5 256.5,159.5 259.5,159.5C 259.5,186.167 259.5,212.833 259.5,239.5C 252.833,239.5 246.167,239.5 239.5,239.5C 239.5,246.167 239.5,252.833 239.5,259.5C 232.833,259.5 226.167,259.5 219.5,259.5C 219.821,254.305 219.487,249.305 218.5,244.5C 237.058,236.942 249.391,223.608 255.5,204.5C 256.717,195.113 256.717,185.779 255.5,176.5C 255.59,173.848 254.924,171.515 253.5,169.5C 252.808,166.064 251.808,162.73 250.5,159.5 Z"/></g>
<g><path style="opacity:1" fill="#8356c5" d="M 148.5,196.5 C 148.904,197.756 149.571,198.923 150.5,200C 149.381,202.289 148.047,204.455 146.5,206.5C 148.89,206.358 151.223,206.858 153.5,208C 152.16,210.149 152.827,211.316 155.5,211.5C 137.324,230.259 115.324,242.259 89.5,247.5C 90.5043,244.816 92.5043,243.316 95.5,243C 92.8333,242.667 90.1667,242.333 87.5,242C 92.627,241.526 92.627,240.526 87.5,239C 89.2556,238.798 90.9223,238.298 92.5,237.5C 89.2254,236.556 85.892,235.889 82.5,235.5C 78.8562,236.415 75.1895,236.581 71.5,236C 73.7078,235.809 75.7078,235.309 77.5,234.5C 78.4916,234.672 79.1583,234.338 79.5,233.5C 93.9334,231.247 107.267,226.247 119.5,218.5C 130.103,212.369 139.77,205.036 148.5,196.5 Z"/></g>
<g><path style="opacity:1" fill="#8355c5" d="M 17.5,199.5 C 17.8333,199.5 18.1667,199.5 18.5,199.5C 21.7315,210.792 28.0648,219.959 37.5,227C 50.0403,233.48 63.3737,235.98 77.5,234.5C 75.7078,235.309 73.7078,235.809 71.5,236C 75.1895,236.581 78.8562,236.415 82.5,235.5C 85.892,235.889 89.2254,236.556 92.5,237.5C 90.9223,238.298 89.2556,238.798 87.5,239C 92.627,240.526 92.627,241.526 87.5,242C 90.1667,242.333 92.8333,242.667 95.5,243C 92.5043,243.316 90.5043,244.816 89.5,247.5C 78.2704,249.49 66.9371,249.99 55.5,249C 50.6422,248.452 45.9755,247.286 41.5,245.5C 37.0953,243.8 32.762,241.8 28.5,239.5C 26.1401,237.147 23.4735,235.147 20.5,233.5C 17.4756,229.482 14.4756,225.482 11.5,221.5C 12.675,221.719 13.675,221.386 14.5,220.5C 13.2643,218.689 13.2643,216.856 14.5,215C 15.6458,214.241 16.6458,213.574 17.5,213C 16.9777,212.05 16.311,211.216 15.5,210.5C 16.3829,209.452 17.0496,208.285 17.5,207C 15.7217,204.775 15.2217,202.275 16,199.5C 16.7792,202.097 17.2792,202.097 17.5,199.5 Z"/></g>
<g><path style="opacity:1" fill="#8355c5" d="M 255.5,204.5 C 249.391,223.608 237.058,236.942 218.5,244.5C 195.997,252.834 173.664,252.334 151.5,243C 149.676,242.34 148.343,241.173 147.5,239.5C 151.895,235.77 156.562,232.436 161.5,229.5C 173.867,234.628 186.534,236.295 199.5,234.5C 202.187,234.664 204.854,234.497 207.5,234C 222.117,228.881 232.783,219.381 239.5,205.5C 239.369,206.239 239.536,206.906 240,207.5C 241.867,205.192 242.867,202.525 243,199.5C 243.219,200.938 243.719,202.271 244.5,203.5C 245.624,198.279 246.458,198.279 247,203.5C 247.869,198.492 248.536,198.825 249,204.5C 249.471,202.754 250.138,201.087 251,199.5C 251.667,202.167 252.333,204.833 253,207.5C 253.377,206.058 254.21,205.058 255.5,204.5 Z"/></g>
<g><path style="opacity:1" fill="#fefefe" d="M 20.5,233.5 C 23.4735,235.147 26.1401,237.147 28.5,239.5C 25.5,239.5 22.5,239.5 19.5,239.5C 19.5,246.167 19.5,252.833 19.5,259.5C 12.8333,259.5 6.16667,259.5 -0.5,259.5C -0.5,252.833 -0.5,246.167 -0.5,239.5C 5.84209,239.666 12.1754,239.5 18.5,239C 19.464,237.275 20.1307,235.441 20.5,233.5 Z"/></g>
<g><path style="opacity:1" fill="#ededee" d="M 28.5,239.5 C 32.762,241.8 37.0953,243.8 41.5,245.5C 39.5636,249.715 38.8969,254.381 39.5,259.5C 32.8333,259.5 26.1667,259.5 19.5,259.5C 19.5,252.833 19.5,246.167 19.5,239.5C 22.5,239.5 25.5,239.5 28.5,239.5 Z"/></g>
<g><path style="opacity:1" fill="#f3f2f3" d="M 147.5,239.5 C 148.343,241.173 149.676,242.34 151.5,243C 173.664,252.334 195.997,252.834 218.5,244.5C 219.487,249.305 219.821,254.305 219.5,259.5C 192.833,259.5 166.167,259.5 139.5,259.5C 139.5,252.833 139.5,246.167 139.5,239.5C 142.167,239.5 144.833,239.5 147.5,239.5 Z"/></g>
<g><path style="opacity:1" fill="#fefefe" d="M 259.5,239.5 C 259.5,246.167 259.5,252.833 259.5,259.5C 252.833,259.5 246.167,259.5 239.5,259.5C 239.5,252.833 239.5,246.167 239.5,239.5C 246.167,239.5 252.833,239.5 259.5,239.5 Z"/></g>
</svg>
