<?xml version="1.0" standalone="no"?>
<!DOCTYPE svg PUBLIC "-//W3C//DTD SVG 20010904//EN"
 "http://www.w3.org/TR/2001/REC-SVG-20010904/DTD/svg10.dtd">
<svg version="1.0" xmlns="http://www.w3.org/2000/svg"
 width="360.000000pt" height="258.000000pt" viewBox="0 0 360.000000 258.000000"
 preserveAspectRatio="xMidYMid meet">

<g transform="translate(0.000000,258.000000) scale(0.100000,-0.100000)"
fill="#0175c9" stroke="none">
<path d="M590 1288 l0 -1208 1210 0 1210 0 0 1208 0 1209 -1210 0 -1210 -1 0
-1208z m1945 97 c56 -8 136 -56 181 -111 46 -56 44 -62 -58 -127 l-75 -48 -45
46 c-42 42 -49 45 -97 45 -45 0 -57 -4 -83 -30 -27 -27 -30 -36 -25 -71 3 -22
11 -47 18 -56 8 -8 82 -48 165 -88 243 -118 304 -191 304 -363 0 -131 -60
-221 -185 -279 -51 -23 -76 -28 -166 -31 -189 -7 -318 51 -410 185 l-29 42 22
14 c13 8 55 33 93 55 l70 41 45 -49 c25 -27 59 -55 75 -63 116 -56 255 -7 255
90 0 50 -44 89 -166 143 -187 84 -247 129 -289 213 -76 157 -20 339 129 414
73 37 140 44 271 28z m-555 -105 l0 -100 -160 0 -160 0 0 -450 0 -450 -115 0
-115 0 0 450 0 450 -160 0 -160 0 0 78 c0 42 3 87 6 100 l6 22 429 0 429 0 0
-100z"/>
</g>
</svg>
