<svg xmlns="http://www.w3.org/2000/svg" width="480" height="344" version="1.0" viewBox="0 0 360 258"><path fill="#0175c9" d="M59 129.2V250h242V8.3H180L59 8.4zm194.5-9.7c5.6.8 13.6 5.6 18.1 11.1 4.6 5.6 4.4 6.2-5.8 12.7l-7.5 4.8-4.5-4.6c-4.2-4.2-4.9-4.5-9.7-4.5-4.5 0-5.7.4-8.3 3-2.7 2.7-3 3.6-2.5 7.1.3 2.2 1.1 4.7 1.8 5.6.8.8 8.2 4.8 16.5 8.8 24.3 11.8 30.4 19.1 30.4 36.3 0 13.1-6 22.1-18.5 27.9-5.1 2.3-7.6 2.8-16.6 3.1-18.9.7-31.8-5.1-41-18.5l-2.9-4.2 2.2-1.4c1.3-.8 5.5-3.3 9.3-5.5l7-4.1 4.5 4.9c2.5 2.7 5.9 5.5 7.5 6.3 11.6 5.6 25.5.7 25.5-9 0-5-4.4-8.9-16.6-14.3-18.7-8.4-24.7-12.9-28.9-21.3-7.6-15.7-2-33.9 12.9-41.4 7.3-3.7 14-4.4 27.1-2.8M198 130v10h-32v90h-23v-90h-32v-7.8c0-4.2.3-8.7.6-10l.6-2.2H198z"/></svg>