<?xml version="1.0" encoding="UTF-8"?>
<!DOCTYPE svg PUBLIC "-//W3C//DTD SVG 1.1//EN" "http://www.w3.org/Graphics/SVG/1.1/DTD/svg11.dtd">
<svg xmlns="http://www.w3.org/2000/svg" version="1.1" width="225px" height="225px" style="shape-rendering:geometricPrecision; text-rendering:geometricPrecision; image-rendering:optimizeQuality; fill-rule:evenodd; clip-rule:evenodd" xmlns:xlink="http://www.w3.org/1999/xlink">
<g><path style="opacity:1" fill="#ededed" d="M 66.5,-0.5 C 87.1667,-0.5 107.833,-0.5 128.5,-0.5C 128.5,1.16667 128.5,2.83333 128.5,4.5C 126.833,4.5 125.167,4.5 123.5,4.5C 124.031,7.77945 126.031,9.11278 129.5,8.5C 129.5,7.5 129.5,6.5 129.5,5.5C 131.167,5.5 132.833,5.5 134.5,5.5C 133.915,8.26053 134.915,9.9272 137.5,10.5C 139.532,9.44934 140.865,7.78268 141.5,5.5C 141.677,8.07819 142.843,8.07819 145,5.5C 145.667,6.83333 145.667,8.16667 145,9.5C 143.16,8.16686 142.66,8.33353 143.5,10C 142.376,10.2492 141.376,10.7492 140.5,11.5C 143.213,14.0607 145.546,13.894 147.5,11C 148.793,10.51 150.127,10.3433 151.5,10.5C 151.5,12.5 151.5,14.5 151.5,16.5C 154.878,15.8911 156.878,17.2244 157.5,20.5C 153.245,18.6371 148.912,16.9704 144.5,15.5C 124.754,9.57779 104.754,8.91112 84.5,13.5C 79.6322,14.7879 74.9655,16.4545 70.5,18.5C 69.713,16.8958 68.3797,16.2291 66.5,16.5C 66.1667,12.1667 68.1667,10.1667 72.5,10.5C 72.1667,8.5 71.8333,6.5 71.5,4.5C 68.1667,4.5 66.5,2.83333 66.5,-0.5 Z"/></g>
<g><path style="opacity:1" fill="#f5f5f5" d="M 128.5,-0.5 C 156.833,-0.5 185.167,-0.5 213.5,-0.5C 213.5,1.16667 213.5,2.83333 213.5,4.5C 215.167,4.5 216.833,4.5 218.5,4.5C 218.5,6.5 218.5,8.5 218.5,10.5C 216.5,10.5 214.5,10.5 212.5,10.5C 212.5,8.83333 212.5,7.16667 212.5,5.5C 210.833,5.5 209.167,5.5 207.5,5.5C 207.5,7.16667 207.5,8.83333 207.5,10.5C 203.799,10.8051 201.466,9.13844 200.5,5.5C 199.264,4.75415 197.93,4.42082 196.5,4.5C 196.205,6.73535 196.539,8.73535 197.5,10.5C 197.573,14.9263 195.407,17.2596 191,17.5C 190.51,18.7932 190.343,20.1266 190.5,21.5C 192.167,21.5 193.833,21.5 195.5,21.5C 194.83,18.4096 195.997,16.743 199,16.5C 200.607,16.7692 201.774,17.6026 202.5,19C 200.495,20.8714 198.161,22.2047 195.5,23C 196.38,24.3561 196.714,25.8561 196.5,27.5C 198.167,27.5 199.833,27.5 201.5,27.5C 202.009,31.3999 200.342,33.7333 196.5,34.5C 197.025,35.1924 197.692,35.6924 198.5,36C 197.692,36.3076 197.025,36.8076 196.5,37.5C 200.342,38.2667 202.009,40.6001 201.5,44.5C 199.833,44.5 198.167,44.5 196.5,44.5C 196.5,46.1667 196.5,47.8333 196.5,49.5C 195.533,48.1938 194.199,47.5271 192.5,47.5C 191.36,44.9752 190.693,42.3085 190.5,39.5C 186.363,39.5181 183.863,37.5181 183,33.5C 181.391,34.1501 179.891,33.6501 178.5,32C 179.38,30.6439 179.714,29.1439 179.5,27.5C 177.533,27.2606 175.699,27.5939 174,28.5C 171.635,26.635 171.468,24.9683 173.5,23.5C 170.874,22.5508 168.208,22.5508 165.5,23.5C 165.517,19.6235 164.351,18.9568 162,21.5C 160.644,20.6198 159.144,20.2865 157.5,20.5C 156.878,17.2244 154.878,15.8911 151.5,16.5C 151.5,14.5 151.5,12.5 151.5,10.5C 150.127,10.3433 148.793,10.51 147.5,11C 145.546,13.894 143.213,14.0607 140.5,11.5C 141.376,10.7492 142.376,10.2492 143.5,10C 142.66,8.33353 143.16,8.16686 145,9.5C 145.667,8.16667 145.667,6.83333 145,5.5C 142.843,8.07819 141.677,8.07819 141.5,5.5C 140.865,7.78268 139.532,9.44934 137.5,10.5C 134.915,9.9272 133.915,8.26053 134.5,5.5C 132.833,5.5 131.167,5.5 129.5,5.5C 129.5,6.5 129.5,7.5 129.5,8.5C 126.031,9.11278 124.031,7.77945 123.5,4.5C 125.167,4.5 126.833,4.5 128.5,4.5C 128.5,2.83333 128.5,1.16667 128.5,-0.5 Z"/></g>
<g><path style="opacity:1" fill="#1c86bb" d="M 144.5,15.5 C 145.058,16.7899 146.058,17.6232 147.5,18C 146.255,18.7914 144.922,19.2914 143.5,19.5C 124.353,13.7095 105.02,13.0428 85.5,17.5C 83.4727,17.6621 81.4727,17.4955 79.5,17C 81.1341,16.5065 82.8008,16.3398 84.5,16.5C 84.5,15.5 84.5,14.5 84.5,13.5C 104.754,8.91112 124.754,9.57779 144.5,15.5 Z"/></g>
<g><path style="opacity:1" fill="#f1f1f1" d="M 32.5,-0.5 C 43.8333,-0.5 55.1667,-0.5 66.5,-0.5C 66.5,2.83333 68.1667,4.5 71.5,4.5C 71.8333,6.5 72.1667,8.5 72.5,10.5C 68.1667,10.1667 66.1667,12.1667 66.5,16.5C 68.3797,16.2291 69.713,16.8958 70.5,18.5C 55.4917,25.1846 42.825,34.8512 32.5,47.5C 32.5858,46.5041 32.2524,45.6708 31.5,45C 27.9704,44.3282 26.6371,42.1616 27.5,38.5C 25.712,38.7852 24.0453,38.4519 22.5,37.5C 23.8333,36.5 23.8333,35.5 22.5,34.5C 26.8502,34.1221 28.5168,31.7888 27.5,27.5C 31.5,28.1667 33.1667,26.5 32.5,22.5C 28.9319,22.2407 27.5985,20.2407 28.5,16.5C 32.9083,16.938 34.5749,14.938 33.5,10.5C 38.1585,10.0146 39.4919,11.848 37.5,16C 36.2068,16.49 34.8734,16.6567 33.5,16.5C 33.5,18.1667 33.5,19.8333 33.5,21.5C 35.1667,21.5 36.8333,21.5 38.5,21.5C 37.899,17.091 39.5657,15.7576 43.5,17.5C 44.2458,18.7362 44.5792,20.0695 44.5,21.5C 45.9305,21.4208 47.2638,21.7542 48.5,22.5C 49.4656,20.604 49.7989,18.604 49.5,16.5C 47.8333,16.5 46.1667,16.5 44.5,16.5C 45.1679,11.8394 43.1679,9.83943 38.5,10.5C 38.5,8.83333 38.5,7.16667 38.5,5.5C 34.062,4.42508 32.062,6.09175 32.5,10.5C 30.8333,10.5 29.1667,10.5 27.5,10.5C 27.5,8.5 27.5,6.5 27.5,4.5C 29.1667,4.5 30.8333,4.5 32.5,4.5C 32.5,2.83333 32.5,1.16667 32.5,-0.5 Z"/></g>
<g><path style="opacity:1" fill="#f6f6f6" d="M -0.5,-0.5 C 10.5,-0.5 21.5,-0.5 32.5,-0.5C 32.5,1.16667 32.5,2.83333 32.5,4.5C 30.8333,4.5 29.1667,4.5 27.5,4.5C 27.5,6.5 27.5,8.5 27.5,10.5C 29.1667,10.5 30.8333,10.5 32.5,10.5C 32.062,6.09175 34.062,4.42508 38.5,5.5C 38.5,7.16667 38.5,8.83333 38.5,10.5C 43.1679,9.83943 45.1679,11.8394 44.5,16.5C 46.1667,16.5 47.8333,16.5 49.5,16.5C 49.7989,18.604 49.4656,20.604 48.5,22.5C 47.2638,21.7542 45.9305,21.4208 44.5,21.5C 44.5792,20.0695 44.2458,18.7362 43.5,17.5C 39.5657,15.7576 37.899,17.091 38.5,21.5C 36.8333,21.5 35.1667,21.5 33.5,21.5C 33.5,19.8333 33.5,18.1667 33.5,16.5C 34.8734,16.6567 36.2068,16.49 37.5,16C 39.4919,11.848 38.1585,10.0146 33.5,10.5C 34.5749,14.938 32.9083,16.938 28.5,16.5C 27.5985,20.2407 28.9319,22.2407 32.5,22.5C 33.1667,26.5 31.5,28.1667 27.5,27.5C 28.5168,31.7888 26.8502,34.1221 22.5,34.5C 23.8333,35.5 23.8333,36.5 22.5,37.5C 24.0453,38.4519 25.712,38.7852 27.5,38.5C 26.6371,42.1616 27.9704,44.3282 31.5,45C 32.2524,45.6708 32.5858,46.5041 32.5,47.5C 31.5637,48.9744 30.2303,49.9744 28.5,50.5C 27.5386,48.7354 27.2053,46.7354 27.5,44.5C 25.8333,44.5 24.1667,44.5 22.5,44.5C 22.3398,46.1992 22.5065,47.8659 23,49.5C 23.7412,50.6405 24.5745,50.6405 25.5,49.5C 28.4646,51.627 28.1313,52.7937 24.5,53C 25.5709,54.8255 24.9042,55.9921 22.5,56.5C 21.5481,58.0453 21.2148,59.712 21.5,61.5C 17.7747,61.2204 16.608,59.2204 18,55.5C 19.7173,56.3881 20.884,55.7214 21.5,53.5C 21.2811,51.0847 19.9477,50.0847 17.5,50.5C 17.5123,54.4459 15.5123,56.1126 11.5,55.5C 11.6567,54.1266 11.49,52.7932 11,51.5C 9.33333,50.5 7.66667,49.5 6,48.5C 5.51722,47.552 5.35055,46.552 5.5,45.5C 3.83333,45.5 2.16667,45.5 0.5,45.5C 0.5,46.8333 0.5,48.1667 0.5,49.5C 4.314,49.6509 5.98066,51.6509 5.5,55.5C 3.83333,55.5 2.16667,55.5 0.5,55.5C 0.737305,54.209 0.403972,53.209 -0.5,52.5C -0.5,34.8333 -0.5,17.1667 -0.5,-0.5 Z"/></g>
<g><path style="opacity:1" fill="#f2f2f2" d="M 213.5,-0.5 C 217.167,-0.5 220.833,-0.5 224.5,-0.5C 224.5,14.5 224.5,29.5 224.5,44.5C 220.167,44.8333 218.167,42.8333 218.5,38.5C 216.396,38.7989 214.396,38.4656 212.5,37.5C 213.668,36.0944 213.335,34.9277 211.5,34C 210.207,33.51 208.873,33.3433 207.5,33.5C 207.5,31.5 207.5,29.5 207.5,27.5C 205.833,27.5 204.167,27.5 202.5,27.5C 201.887,23.4877 203.554,21.4877 207.5,21.5C 207.5,19.8333 207.5,18.1667 207.5,16.5C 203.579,17.07 201.412,15.4033 201,11.5C 199.989,10.6634 198.822,10.33 197.5,10.5C 196.539,8.73535 196.205,6.73535 196.5,4.5C 197.93,4.42082 199.264,4.75415 200.5,5.5C 201.466,9.13844 203.799,10.8051 207.5,10.5C 207.5,8.83333 207.5,7.16667 207.5,5.5C 209.167,5.5 210.833,5.5 212.5,5.5C 212.5,7.16667 212.5,8.83333 212.5,10.5C 214.5,10.5 216.5,10.5 218.5,10.5C 218.5,8.5 218.5,6.5 218.5,4.5C 216.833,4.5 215.167,4.5 213.5,4.5C 213.5,2.83333 213.5,1.16667 213.5,-0.5 Z"/></g>
<g><path style="opacity:1" fill="#e3e3e4" d="M 143.5,19.5 C 146.428,20.8167 149.428,22.15 152.5,23.5C 152.389,24.1174 152.056,24.6174 151.5,25C 154.112,25.6395 156.446,26.8062 158.5,28.5C 159.833,30.5 159.833,32.5 158.5,34.5C 159.908,35.2432 161.241,36.0766 162.5,37C 159.493,37.3013 156.493,37.1346 153.5,36.5C 151.833,35.8333 150.167,35.1667 148.5,34.5C 148.414,33.5041 148.748,32.6708 149.5,32C 146.833,31.6667 144.167,31.3333 141.5,31C 132.826,25.4248 123.326,23.2582 113,24.5C 105.824,24.4755 98.824,25.4755 92,27.5C 89.6357,26.1642 87.4691,26.4975 85.5,28.5C 83.8333,27.5 82.1667,26.5 80.5,25.5C 80.1667,25.6667 79.8333,25.8333 79.5,26C 80.0611,27.676 81.0611,29.0094 82.5,30C 79.248,31.5661 76.248,33.3994 73.5,35.5C 65.2578,40.7395 57.5912,46.7395 50.5,53.5C 48.8762,53.6399 47.7096,52.9733 47,51.5C 46,52.1667 45,52.8333 44,53.5C 44.4087,55.2251 44.2421,56.8918 43.5,58.5C 42.2322,57.5721 40.8989,57.4054 39.5,58C 40.1667,58.3333 40.8333,58.6667 41.5,59C 38.589,59.33 36.089,60.4967 34,62.5C 32.2942,61.6921 31.4609,60.3588 31.5,58.5C 44.8561,38.822 62.8561,25.1554 85.5,17.5C 105.02,13.0428 124.353,13.7095 143.5,19.5 Z"/></g>
<g><path style="opacity:1" fill="#c3c9cf" d="M 148.5,34.5 C 130.511,26.5867 111.845,24.7534 92.5,29C 85.9149,30.6358 79.5815,32.8024 73.5,35.5C 76.248,33.3994 79.248,31.5661 82.5,30C 81.0611,29.0094 80.0611,27.676 79.5,26C 79.8333,25.8333 80.1667,25.6667 80.5,25.5C 82.1667,26.5 83.8333,27.5 85.5,28.5C 87.4691,26.4975 89.6357,26.1642 92,27.5C 98.824,25.4755 105.824,24.4755 113,24.5C 123.326,23.2582 132.826,25.4248 141.5,31C 144.167,31.3333 146.833,31.6667 149.5,32C 148.748,32.6708 148.414,33.5041 148.5,34.5 Z"/></g>
<g><path style="opacity:1" fill="#1c648f" d="M 144.5,15.5 C 148.912,16.9704 153.245,18.6371 157.5,20.5C 163.383,23.3858 168.716,27.0525 173.5,31.5C 173.5,32.5 173.5,33.5 173.5,34.5C 174.5,34.5 175.5,34.5 176.5,34.5C 176.737,35.791 176.404,36.791 175.5,37.5C 171.12,35.2999 167.12,32.4665 163.5,29C 159.807,27.1534 156.14,25.3201 152.5,23.5C 149.428,22.15 146.428,20.8167 143.5,19.5C 144.922,19.2914 146.255,18.7914 147.5,18C 146.058,17.6232 145.058,16.7899 144.5,15.5 Z"/></g>
<g><path style="opacity:1" fill="#79bde4" d="M 84.5,13.5 C 84.5,14.5 84.5,15.5 84.5,16.5C 82.8008,16.3398 81.1341,16.5065 79.5,17C 81.4727,17.4955 83.4727,17.6621 85.5,17.5C 62.8561,25.1554 44.8561,38.822 31.5,58.5C 29.4357,61.2431 27.769,64.2431 26.5,67.5C 22.1151,75.3204 19.1151,83.6537 17.5,92.5C 16.83,89.4969 15.1633,88.8303 12.5,90.5C 13.4858,85.0399 14.9858,79.7066 17,74.5C 21.3042,66.6453 25.1376,58.6453 28.5,50.5C 30.2303,49.9744 31.5637,48.9744 32.5,47.5C 42.825,34.8512 55.4917,25.1846 70.5,18.5C 74.9655,16.4545 79.6322,14.7879 84.5,13.5 Z"/></g>
<g><path style="opacity:1" fill="#154264" d="M 148.5,34.5 C 150.167,35.1667 151.833,35.8333 153.5,36.5C 157.267,39.0871 160.933,41.9205 164.5,45C 163.756,46.0386 162.756,46.5386 161.5,46.5C 158.337,45.4159 155.337,44.0825 152.5,42.5C 152.762,41.0222 152.429,39.6888 151.5,38.5C 147.789,36.4048 143.789,35.2381 139.5,35C 138.072,31.8913 136.405,31.3913 134.5,33.5C 103.308,25.6197 76.3081,33.2864 53.5,56.5C 52.0476,57.9397 51.0476,59.6064 50.5,61.5C 48.396,61.7989 46.396,61.4656 44.5,60.5C 46.5227,58.1472 48.5227,55.8138 50.5,53.5C 57.5912,46.7395 65.2578,40.7395 73.5,35.5C 79.5815,32.8024 85.9149,30.6358 92.5,29C 111.845,24.7534 130.511,26.5867 148.5,34.5 Z"/></g>
<g><path style="opacity:1" fill="#016696" d="M 161.5,46.5 C 159.194,48.1394 157.194,50.1394 155.5,52.5C 154.178,52.33 153.011,52.6634 152,53.5C 152.684,50.8404 152.517,48.1738 151.5,45.5C 144.471,43.3287 137.471,41.3287 130.5,39.5C 130.5,38.5 130.5,37.5 130.5,36.5C 123.303,37.1419 116.136,37.1419 109,36.5C 102.013,38.7185 94.8463,40.0518 87.5,40.5C 85.0243,41.8088 83.0243,43.6421 81.5,46C 76.8452,46.4992 72.1785,46.6658 67.5,46.5C 67.6841,49.3213 66.3507,50.9879 63.5,51.5C 62.5481,53.0453 62.2148,54.712 62.5,56.5C 60.1432,56.3367 57.8098,56.5034 55.5,57C 65.8498,58.2002 65.5164,59.2002 54.5,60C 56.3817,60.1981 58.0484,60.6981 59.5,61.5C 56.5,61.5 53.5,61.5 50.5,61.5C 51.0476,59.6064 52.0476,57.9397 53.5,56.5C 76.3081,33.2864 103.308,25.6197 134.5,33.5C 136.405,31.3913 138.072,31.8913 139.5,35C 143.789,35.2381 147.789,36.4048 151.5,38.5C 152.429,39.6888 152.762,41.0222 152.5,42.5C 155.337,44.0825 158.337,45.4159 161.5,46.5 Z"/></g>
<g><path style="opacity:1" fill="#0373a6" d="M 155.5,52.5 C 151.899,58.6145 151.566,64.9478 154.5,71.5C 153.876,71.9169 153.543,72.5836 153.5,73.5C 154.651,75.3254 155.318,77.3254 155.5,79.5C 154.167,79.5 152.833,79.5 151.5,79.5C 151.675,75.4594 151.842,71.4594 152,67.5C 151.692,68.3081 151.192,68.9747 150.5,69.5C 148.016,67.517 145.683,65.3504 143.5,63C 142.004,62.4926 140.837,62.9926 140,64.5C 139.617,63.944 139.117,63.6107 138.5,63.5C 138.167,63.5 137.833,63.5 137.5,63.5C 136.05,61.6174 134.05,60.6174 131.5,60.5C 129.955,60.5108 128.622,60.8442 127.5,61.5C 116.654,61.8278 105.987,61.4944 95.5,60.5C 93.369,59.6862 91.0356,59.1862 88.5,59C 90.2556,58.7978 91.9223,58.2978 93.5,57.5C 90.5967,56.0956 87.9301,56.429 85.5,58.5C 83.9411,57.9264 82.4411,57.2598 81,56.5C 80.4054,57.8989 80.5721,59.2322 81.5,60.5C 79.1515,60.8348 77.4848,62.5014 76.5,65.5C 74.7314,63.5417 74.0647,61.5417 74.5,59.5C 70.6973,60.1037 67.0306,60.7704 63.5,61.5C 62.1667,61.5 60.8333,61.5 59.5,61.5C 58.0484,60.6981 56.3817,60.1981 54.5,60C 65.5164,59.2002 65.8498,58.2002 55.5,57C 57.8098,56.5034 60.1432,56.3367 62.5,56.5C 62.2148,54.712 62.5481,53.0453 63.5,51.5C 66.3507,50.9879 67.6841,49.3213 67.5,46.5C 72.1785,46.6658 76.8452,46.4992 81.5,46C 83.0243,43.6421 85.0243,41.8088 87.5,40.5C 94.8463,40.0518 102.013,38.7185 109,36.5C 116.136,37.1419 123.303,37.1419 130.5,36.5C 130.5,37.5 130.5,38.5 130.5,39.5C 137.471,41.3287 144.471,43.3287 151.5,45.5C 152.517,48.1738 152.684,50.8404 152,53.5C 153.011,52.6634 154.178,52.33 155.5,52.5 Z"/></g>
<g><path style="opacity:1" fill="#d4d5d6" d="M 152.5,23.5 C 156.14,25.3201 159.807,27.1534 163.5,29C 167.12,32.4665 171.12,35.2999 175.5,37.5C 177.144,39.4807 178.81,41.4807 180.5,43.5C 179.264,45.8275 177.264,46.9942 174.5,47C 175.444,49.7191 175.777,52.5525 175.5,55.5C 172.833,55.5 170.167,55.5 167.5,55.5C 167.719,51.4726 166.552,50.8059 164,53.5C 163.502,56.8168 163.335,60.1501 163.5,63.5C 161.833,63.5 160.167,63.5 158.5,63.5C 157.494,66.2097 156.494,68.8763 155.5,71.5C 155.167,71.5 154.833,71.5 154.5,71.5C 151.566,64.9478 151.899,58.6145 155.5,52.5C 157.194,50.1394 159.194,48.1394 161.5,46.5C 162.756,46.5386 163.756,46.0386 164.5,45C 160.933,41.9205 157.267,39.0871 153.5,36.5C 156.493,37.1346 159.493,37.3013 162.5,37C 161.241,36.0766 159.908,35.2432 158.5,34.5C 159.833,32.5 159.833,30.5 158.5,28.5C 156.446,26.8062 154.112,25.6395 151.5,25C 152.056,24.6174 152.389,24.1174 152.5,23.5 Z"/></g>
<g><path style="opacity:1" fill="#d2d2d2" d="M 196.5,49.5 C 198.413,52.5673 199.747,55.9006 200.5,59.5C 194.114,50.9364 187.114,42.7697 179.5,35C 177.595,33.5787 175.595,32.412 173.5,31.5C 168.716,27.0525 163.383,23.3858 157.5,20.5C 159.144,20.2865 160.644,20.6198 162,21.5C 164.351,18.9568 165.517,19.6235 165.5,23.5C 168.208,22.5508 170.874,22.5508 173.5,23.5C 171.468,24.9683 171.635,26.635 174,28.5C 175.699,27.5939 177.533,27.2606 179.5,27.5C 179.714,29.1439 179.38,30.6439 178.5,32C 179.891,33.6501 181.391,34.1501 183,33.5C 183.863,37.5181 186.363,39.5181 190.5,39.5C 190.693,42.3085 191.36,44.9752 192.5,47.5C 194.199,47.5271 195.533,48.1938 196.5,49.5 Z"/></g>
<g><path style="opacity:1" fill="#18537a" d="M 173.5,31.5 C 175.595,32.412 177.595,33.5787 179.5,35C 187.114,42.7697 194.114,50.9364 200.5,59.5C 200.912,61.8867 201.912,63.8867 203.5,65.5C 205.335,70.3709 207.335,75.0376 209.5,79.5C 211.766,85.9109 213.099,92.5776 213.5,99.5C 213.632,108.191 213.299,116.858 212.5,125.5C 211.778,125.918 211.278,126.584 211,127.5C 210.667,123.167 210.333,118.833 210,114.5C 209.802,116.382 209.302,118.048 208.5,119.5C 209.625,104.303 207.458,89.6362 202,75.5C 200.619,71.796 198.786,68.4627 196.5,65.5C 192.32,57.3212 186.987,49.9878 180.5,43.5C 178.81,41.4807 177.144,39.4807 175.5,37.5C 176.404,36.791 176.737,35.791 176.5,34.5C 175.5,34.5 174.5,34.5 173.5,34.5C 173.5,33.5 173.5,32.5 173.5,31.5 Z"/></g>
<g><path style="opacity:1" fill="#d1d2d2" d="M 180.5,43.5 C 186.987,49.9878 192.32,57.3212 196.5,65.5C 196.033,67.711 195.033,69.711 193.5,71.5C 192.749,70.624 192.249,69.624 192,68.5C 191.667,69.8333 191.333,71.1667 191,72.5C 190.667,72.1667 190.333,71.8333 190,71.5C 187.833,75.165 187,79.165 187.5,83.5C 187.072,92.5444 185.072,101.211 181.5,109.5C 179.501,110.857 178.335,110.19 178,107.5C 177.086,111.185 176.419,110.852 176,106.5C 175.667,108.167 175.333,109.833 175,111.5C 174.829,106.136 174.329,100.802 173.5,95.5C 172.408,101.258 170.741,106.592 168.5,111.5C 168.903,102.481 167.403,93.8138 164,85.5C 162.723,83.2528 161.223,81.2528 159.5,79.5C 158.678,76.5229 157.345,73.8563 155.5,71.5C 156.494,68.8763 157.494,66.2097 158.5,63.5C 160.167,63.5 161.833,63.5 163.5,63.5C 163.335,60.1501 163.502,56.8168 164,53.5C 166.552,50.8059 167.719,51.4726 167.5,55.5C 170.167,55.5 172.833,55.5 175.5,55.5C 175.777,52.5525 175.444,49.7191 174.5,47C 177.264,46.9942 179.264,45.8275 180.5,43.5 Z"/></g>
<g><path style="opacity:1" fill="#e0e0e1" d="M 50.5,53.5 C 48.5227,55.8138 46.5227,58.1472 44.5,60.5C 46.396,61.4656 48.396,61.7989 50.5,61.5C 53.5,61.5 56.5,61.5 59.5,61.5C 60.8333,61.5 62.1667,61.5 63.5,61.5C 66.1873,61.3359 68.854,61.5026 71.5,62C 73.1554,63.4443 73.822,65.2776 73.5,67.5C 73.5,68.1667 73.1667,68.5 72.5,68.5C 68.0983,68.7719 63.7649,68.4386 59.5,67.5C 59.1667,68 58.8333,68.5 58.5,69C 60.7667,71.9591 60.9334,75.1258 59,78.5C 58.7506,75.8232 57.7506,73.4899 56,71.5C 55.0561,74.3471 55.5561,76.8471 57.5,79C 51.5,79.3333 45.5,79.6667 39.5,80C 38.8366,81.5185 37.8366,82.6851 36.5,83.5C 35.8698,81.2504 34.8698,79.2504 33.5,77.5C 31.4896,75.9769 31.1563,74.1436 32.5,72C 31.6753,70.3117 30.6753,70.1451 29.5,71.5C 28.0656,70.4116 27.0656,69.0783 26.5,67.5C 27.769,64.2431 29.4357,61.2431 31.5,58.5C 31.4609,60.3588 32.2942,61.6921 34,62.5C 36.089,60.4967 38.589,59.33 41.5,59C 40.8333,58.6667 40.1667,58.3333 39.5,58C 40.8989,57.4054 42.2322,57.5721 43.5,58.5C 44.2421,56.8918 44.4087,55.2251 44,53.5C 45,52.8333 46,52.1667 47,51.5C 47.7096,52.9733 48.8762,53.6399 50.5,53.5 Z"/></g>
<g><path style="opacity:1" fill="#f7f7f7" d="M 197.5,10.5 C 198.822,10.33 199.989,10.6634 201,11.5C 201.412,15.4033 203.579,17.07 207.5,16.5C 207.5,18.1667 207.5,19.8333 207.5,21.5C 203.554,21.4877 201.887,23.4877 202.5,27.5C 204.167,27.5 205.833,27.5 207.5,27.5C 207.5,29.5 207.5,31.5 207.5,33.5C 208.873,33.3433 210.207,33.51 211.5,34C 213.335,34.9277 213.668,36.0944 212.5,37.5C 214.396,38.4656 216.396,38.7989 218.5,38.5C 218.167,42.8333 220.167,44.8333 224.5,44.5C 224.5,49.5 224.5,54.5 224.5,59.5C 222.858,61.0808 220.858,61.7475 218.5,61.5C 218.5,63.1667 218.5,64.8333 218.5,66.5C 216.833,66.5 215.167,66.5 213.5,66.5C 213.825,63.4758 212.492,61.8091 209.5,61.5C 208.353,61.8178 207.519,62.4844 207,63.5C 207.438,60.8014 207.272,58.1347 206.5,55.5C 204.997,56.0522 203.331,56.0522 201.5,55.5C 201.768,57.099 201.434,58.4324 200.5,59.5C 199.747,55.9006 198.413,52.5673 196.5,49.5C 196.5,47.8333 196.5,46.1667 196.5,44.5C 198.167,44.5 199.833,44.5 201.5,44.5C 202.009,40.6001 200.342,38.2667 196.5,37.5C 197.025,36.8076 197.692,36.3076 198.5,36C 197.692,35.6924 197.025,35.1924 196.5,34.5C 200.342,33.7333 202.009,31.3999 201.5,27.5C 199.833,27.5 198.167,27.5 196.5,27.5C 196.714,25.8561 196.38,24.3561 195.5,23C 198.161,22.2047 200.495,20.8714 202.5,19C 201.774,17.6026 200.607,16.7692 199,16.5C 195.997,16.743 194.83,18.4096 195.5,21.5C 193.833,21.5 192.167,21.5 190.5,21.5C 190.343,20.1266 190.51,18.7932 191,17.5C 195.407,17.2596 197.573,14.9263 197.5,10.5 Z"/></g>
<g><path style="opacity:1" fill="#036a9b" d="M 154.5,71.5 C 154.833,71.5 155.167,71.5 155.5,71.5C 157.345,73.8563 158.678,76.5229 159.5,79.5C 160.72,81.6633 160.72,83.83 159.5,86C 160.296,87.0921 160.963,88.2588 161.5,89.5C 160.176,99.7869 157.843,109.787 154.5,119.5C 153.5,119.5 152.5,119.5 151.5,119.5C 151.657,118.127 151.49,116.793 151,115.5C 149.817,116.731 148.651,116.731 147.5,115.5C 146.833,113.167 146.167,110.833 145.5,108.5C 144.5,107.833 143.5,107.167 142.5,106.5C 143.732,102.995 143.565,99.3287 142,95.5C 141.29,96.9733 140.124,97.6399 138.5,97.5C 138.888,92.1665 137.554,87.3331 134.5,83C 135.337,81.9887 135.67,80.8221 135.5,79.5C 137.199,79.6602 138.866,79.4935 140.5,79C 139.18,76.785 139.847,75.285 142.5,74.5C 143.647,72.2351 143.814,69.9018 143,67.5C 142.667,68.1667 142.333,68.8333 142,69.5C 141.764,67.8807 140.931,66.8807 139.5,66.5C 138.596,65.791 138.263,64.791 138.5,63.5C 139.117,63.6107 139.617,63.944 140,64.5C 140.837,62.9926 142.004,62.4926 143.5,63C 145.683,65.3504 148.016,67.517 150.5,69.5C 151.192,68.9747 151.692,68.3081 152,67.5C 151.842,71.4594 151.675,75.4594 151.5,79.5C 152.833,79.5 154.167,79.5 155.5,79.5C 155.318,77.3254 154.651,75.3254 153.5,73.5C 153.543,72.5836 153.876,71.9169 154.5,71.5 Z"/></g>
<g><path style="opacity:1" fill="#dfe0e1" d="M 95.5,60.5 C 105.987,61.4944 116.654,61.8278 127.5,61.5C 123.285,63.4364 118.619,64.1031 113.5,63.5C 113.5,66.1667 113.5,68.8333 113.5,71.5C 114.5,71.5 115.5,71.5 116.5,71.5C 116.5,76.8333 116.5,82.1667 116.5,87.5C 114.5,87.5 112.5,87.5 110.5,87.5C 110.261,89.4672 110.594,91.3005 111.5,93C 109.945,92.5751 108.445,91.7418 107,90.5C 105.69,91.1301 104.856,92.1301 104.5,93.5C 101.971,87.914 99.638,82.2473 97.5,76.5C 97.1307,74.5588 96.464,72.7255 95.5,71C 92.5184,70.502 89.5184,70.3354 86.5,70.5C 82.9694,67.7905 82.6361,64.6238 85.5,61C 88.8168,60.5017 92.1501,60.335 95.5,60.5 Z"/></g>
<g><path style="opacity:1" fill="#dbdbdc" d="M 137.5,63.5 C 137.683,65.9363 137.016,68.103 135.5,70C 131.833,70.3333 128.167,70.6667 124.5,71C 132.157,89.1191 138.824,107.619 144.5,126.5C 144.5,126.833 144.5,127.167 144.5,127.5C 144.162,130.157 144.829,132.49 146.5,134.5C 145.675,135.386 144.675,135.719 143.5,135.5C 143.5,136.5 143.5,137.5 143.5,138.5C 138.167,138.5 132.833,138.5 127.5,138.5C 127.309,141.989 126.976,142.156 126.5,139C 127.45,136.765 127.45,134.598 126.5,132.5C 124.5,130.833 122.5,129.167 120.5,127.5C 119.735,128.612 118.735,129.279 117.5,129.5C 116.342,126.011 115.009,122.678 113.5,119.5C 112.153,120.171 110.986,120.171 110,119.5C 109.692,120.308 109.192,120.975 108.5,121.5C 106.679,120.272 105.679,118.606 105.5,116.5C 106.29,112.794 107.29,109.128 108.5,105.5C 106.963,101.556 105.63,97.5559 104.5,93.5C 104.856,92.1301 105.69,91.1301 107,90.5C 108.445,91.7418 109.945,92.5751 111.5,93C 110.594,91.3005 110.261,89.4672 110.5,87.5C 112.5,87.5 114.5,87.5 116.5,87.5C 116.5,82.1667 116.5,76.8333 116.5,71.5C 115.5,71.5 114.5,71.5 113.5,71.5C 113.5,68.8333 113.5,66.1667 113.5,63.5C 118.619,64.1031 123.285,63.4364 127.5,61.5C 128.622,60.8442 129.955,60.5108 131.5,60.5C 134.05,60.6174 136.05,61.6174 137.5,63.5 Z"/></g>
<g><path style="opacity:1" fill="#a3a7ac" d="M 203.5,65.5 C 206.838,69.4916 208.838,74.1583 209.5,79.5C 207.335,75.0376 205.335,70.3709 203.5,65.5 Z"/></g>
<g><path style="opacity:1" fill="#e0e1e1" d="M 26.5,67.5 C 27.0656,69.0783 28.0656,70.4116 29.5,71.5C 30.6753,70.1451 31.6753,70.3117 32.5,72C 31.1563,74.1436 31.4896,75.9769 33.5,77.5C 33.5,77.8333 33.5,78.1667 33.5,78.5C 32.8826,78.6107 32.3826,78.944 32,79.5C 30.9035,85.0225 29.2369,90.3558 27,95.5C 26.2102,104.036 26.3769,112.536 27.5,121C 26.9221,122.811 26.4221,124.645 26,126.5C 25.6667,126.167 25.3333,125.833 25,125.5C 23.8904,127.037 22.3904,127.703 20.5,127.5C 20.5,130.167 20.5,132.833 20.5,135.5C 18.5487,130.438 17.2154,125.104 16.5,119.5C 16.2518,110.46 16.5851,101.46 17.5,92.5C 19.1151,83.6537 22.1151,75.3204 26.5,67.5 Z"/></g>
<g><path style="opacity:1" fill="#0d3958" d="M 75.5,66.5 C 75.5,67.1667 75.5,67.8333 75.5,68.5C 74.4148,72.8112 71.5814,75.1445 67,75.5C 66.034,79.1177 66.534,82.451 68.5,85.5C 68.0431,86.2975 67.3764,86.6309 66.5,86.5C 65.1596,81.4824 63.8263,76.4824 62.5,71.5C 66.3453,71.7122 69.6786,70.7122 72.5,68.5C 73.1667,68.5 73.5,68.1667 73.5,67.5C 74.1667,67.1667 74.8333,66.8333 75.5,66.5 Z"/></g>
<g><path style="opacity:1" fill="#0673a5" d="M 95.5,60.5 C 92.1501,60.335 88.8168,60.5017 85.5,61C 82.6361,64.6238 82.9694,67.7905 86.5,70.5C 85.8333,70.5 85.5,70.8333 85.5,71.5C 86.3871,75.9949 89.0538,78.8283 93.5,80C 94.2106,81.2547 95.044,82.4214 96,83.5C 96.6667,82.1667 97.3333,82.1667 98,83.5C 98.5798,86.5475 98.2465,86.8808 97,84.5C 96.6258,85.4162 96.1258,86.2496 95.5,87C 97.0527,92.3521 97.7194,97.8521 97.5,103.5C 93.6494,102.971 90.1494,103.638 87,105.5C 85.2128,101.363 83.8794,97.0298 83,92.5C 80.5603,91.7262 79.227,90.0595 79,87.5C 79.0162,82.786 79.3495,78.1194 80,73.5C 79.6764,70.2945 78.1764,67.9611 75.5,66.5C 74.8333,66.8333 74.1667,67.1667 73.5,67.5C 73.822,65.2776 73.1554,63.4443 71.5,62C 68.854,61.5026 66.1873,61.3359 63.5,61.5C 67.0306,60.7704 70.6973,60.1037 74.5,59.5C 74.0647,61.5417 74.7314,63.5417 76.5,65.5C 77.4848,62.5014 79.1515,60.8348 81.5,60.5C 80.5721,59.2322 80.4054,57.8989 81,56.5C 82.4411,57.2598 83.9411,57.9264 85.5,58.5C 87.9301,56.429 90.5967,56.0956 93.5,57.5C 91.9223,58.2978 90.2556,58.7978 88.5,59C 91.0356,59.1862 93.369,59.6862 95.5,60.5 Z"/></g>
<g><path style="opacity:1" fill="#123f60" d="M 85.5,71.5 C 85.5,70.8333 85.8333,70.5 86.5,70.5C 89.5184,70.3354 92.5184,70.502 95.5,71C 96.464,72.7255 97.1307,74.5588 97.5,76.5C 96.3991,77.5983 95.0657,77.765 93.5,77C 91.2608,74.5332 88.5941,72.6999 85.5,71.5 Z"/></g>
<g><path style="opacity:1" fill="#f1f1f1" d="M 28.5,50.5 C 25.1376,58.6453 21.3042,66.6453 17,74.5C 14.9858,79.7066 13.4858,85.0399 12.5,90.5C 10.6381,100.946 10.3048,111.279 11.5,121.5C 12.5132,128.887 13.8466,136.221 15.5,143.5C 12.1432,141.624 10.6432,138.624 11,134.5C 9.29334,135.138 7.46001,135.138 5.5,134.5C 5.5,136.5 5.5,138.5 5.5,140.5C 1.09098,141.101 -0.242351,139.434 1.5,135.5C 2.25083,136.376 2.75083,137.376 3,138.5C 3.91819,135.411 5.08486,132.411 6.5,129.5C 7.83333,129.167 9.16667,128.833 10.5,128.5C 9.69063,126.929 9.35729,125.262 9.5,123.5C 5.7482,123.499 4.7482,121.833 6.5,118.5C 7.08605,118.709 7.58605,119.043 8,119.5C 8.66667,116.833 8.66667,114.167 8,111.5C 5.96141,112.978 5.12807,114.978 5.5,117.5C 3.83333,117.5 2.16667,117.5 0.5,117.5C -0.166667,113.5 1.5,111.833 5.5,112.5C 6.57492,108.062 4.90825,106.062 0.5,106.5C 0.5,104.833 0.5,103.167 0.5,101.5C 4.71302,101.301 6.04636,99.3012 4.5,95.5C 3.5,96.8333 2.5,96.8333 1.5,95.5C 0.824341,96.6016 0.157674,97.6016 -0.5,98.5C -0.5,83.1667 -0.5,67.8333 -0.5,52.5C 0.403972,53.209 0.737305,54.209 0.5,55.5C 2.16667,55.5 3.83333,55.5 5.5,55.5C 5.98066,51.6509 4.314,49.6509 0.5,49.5C 0.5,48.1667 0.5,46.8333 0.5,45.5C 2.16667,45.5 3.83333,45.5 5.5,45.5C 5.35055,46.552 5.51722,47.552 6,48.5C 7.66667,49.5 9.33333,50.5 11,51.5C 11.49,52.7932 11.6567,54.1266 11.5,55.5C 15.5123,56.1126 17.5123,54.4459 17.5,50.5C 19.9477,50.0847 21.2811,51.0847 21.5,53.5C 20.884,55.7214 19.7173,56.3881 18,55.5C 16.608,59.2204 17.7747,61.2204 21.5,61.5C 21.2148,59.712 21.5481,58.0453 22.5,56.5C 24.9042,55.9921 25.5709,54.8255 24.5,53C 28.1313,52.7937 28.4646,51.627 25.5,49.5C 24.5745,50.6405 23.7412,50.6405 23,49.5C 22.5065,47.8659 22.3398,46.1992 22.5,44.5C 24.1667,44.5 25.8333,44.5 27.5,44.5C 27.2053,46.7354 27.5386,48.7354 28.5,50.5 Z"/></g>
<g><path style="opacity:1" fill="#d9dadb" d="M 72.5,68.5 C 69.6786,70.7122 66.3453,71.7122 62.5,71.5C 63.8263,76.4824 65.1596,81.4824 66.5,86.5C 69.0952,92.2855 71.0952,98.2855 72.5,104.5C 71.7814,106.764 71.448,109.097 71.5,111.5C 68.8333,111.5 66.1667,111.5 63.5,111.5C 63.5,114.167 63.5,116.833 63.5,119.5C 60.1019,119.142 56.9353,119.808 54,121.5C 52.8615,121.011 51.6948,120.678 50.5,120.5C 48.6828,116.889 47.0161,113.222 45.5,109.5C 45.5,109.167 45.5,108.833 45.5,108.5C 42.8757,100.286 39.8757,92.2858 36.5,84.5C 36.5,84.1667 36.5,83.8333 36.5,83.5C 37.8366,82.6851 38.8366,81.5185 39.5,80C 45.5,79.6667 51.5,79.3333 57.5,79C 55.5561,76.8471 55.0561,74.3471 56,71.5C 57.7506,73.4899 58.7506,75.8232 59,78.5C 60.9334,75.1258 60.7667,71.9591 58.5,69C 58.8333,68.5 59.1667,68 59.5,67.5C 63.7649,68.4386 68.0983,68.7719 72.5,68.5 Z"/></g>
<g><path style="opacity:1" fill="#0f496d" d="M 137.5,63.5 C 137.833,63.5 138.167,63.5 138.5,63.5C 138.263,64.791 138.596,65.791 139.5,66.5C 138.374,68.4995 138.207,70.4995 139,72.5C 137.352,73.717 135.519,74.5503 133.5,75C 132.941,75.7247 132.608,76.5581 132.5,77.5C 133.028,80.7847 133.195,84.118 133,87.5C 133.45,90.1059 134.95,91.4392 137.5,91.5C 137.643,93.2624 137.309,94.9291 136.5,96.5C 141.005,103.818 143.505,111.818 144,120.5C 144.925,121.047 145.758,121.713 146.5,122.5C 145.167,123.5 145.167,124.5 146.5,125.5C 146.043,126.298 145.376,126.631 144.5,126.5C 138.824,107.619 132.157,89.1191 124.5,71C 128.167,70.6667 131.833,70.3333 135.5,70C 137.016,68.103 137.683,65.9363 137.5,63.5 Z"/></g>
<g><path style="opacity:1" fill="#f2f3f2" d="M 224.5,59.5 C 224.5,83.1667 224.5,106.833 224.5,130.5C 222.621,129.659 220.621,129.325 218.5,129.5C 217.425,125.062 219.092,123.062 223.5,123.5C 223.5,121.833 223.5,120.167 223.5,118.5C 216.934,116.419 216.934,114.085 223.5,111.5C 222.975,110.808 222.308,110.308 221.5,110C 222.357,109.311 223.023,108.478 223.5,107.5C 221.997,106.948 220.331,106.948 218.5,107.5C 218.59,104.848 217.924,102.515 216.5,100.5C 216.167,100.5 215.833,100.5 215.5,100.5C 215.665,97.1501 215.498,93.8168 215,90.5C 213.636,86.4374 211.802,82.7707 209.5,79.5C 208.838,74.1583 206.838,69.4916 203.5,65.5C 201.912,63.8867 200.912,61.8867 200.5,59.5C 201.434,58.4324 201.768,57.099 201.5,55.5C 203.331,56.0522 204.997,56.0522 206.5,55.5C 207.272,58.1347 207.438,60.8014 207,63.5C 207.519,62.4844 208.353,61.8178 209.5,61.5C 212.492,61.8091 213.825,63.4758 213.5,66.5C 215.167,66.5 216.833,66.5 218.5,66.5C 218.5,64.8333 218.5,63.1667 218.5,61.5C 220.858,61.7475 222.858,61.0808 224.5,59.5 Z"/></g>
<g><path style="opacity:1" fill="#056897" d="M 75.5,66.5 C 78.1764,67.9611 79.6764,70.2945 80,73.5C 79.3495,78.1194 79.0162,82.786 79,87.5C 79.227,90.0595 80.5603,91.7262 83,92.5C 83.8794,97.0298 85.2128,101.363 87,105.5C 90.1494,103.638 93.6494,102.971 97.5,103.5C 97.7194,97.8521 97.0527,92.3521 95.5,87C 96.1258,86.2496 96.6258,85.4162 97,84.5C 98.2465,86.8808 98.5798,86.5475 98,83.5C 97.3333,82.1667 96.6667,82.1667 96,83.5C 95.044,82.4214 94.2106,81.2547 93.5,80C 89.0538,78.8283 86.3871,75.9949 85.5,71.5C 88.5941,72.6999 91.2608,74.5332 93.5,77C 95.0657,77.765 96.3991,77.5983 97.5,76.5C 99.638,82.2473 101.971,87.914 104.5,93.5C 105.63,97.5559 106.963,101.556 108.5,105.5C 107.29,109.128 106.29,112.794 105.5,116.5C 101.319,128.894 96.9854,141.228 92.5,153.5C 92.8204,150.102 92.487,146.768 91.5,143.5C 88.2234,136.075 85.2234,128.575 82.5,121C 83.8618,116.58 82.8618,112.747 79.5,109.5C 78.9361,107.181 78.4361,104.847 78,102.5C 77.6667,102.833 77.3333,103.167 77,103.5C 76.4054,102.101 76.5721,100.768 77.5,99.5C 74.987,98.9244 74.3203,97.0911 75.5,94C 72.5564,90.4157 71.0564,86.249 71,81.5C 70.0862,82.6537 69.2529,82.487 68.5,81C 71.5105,77.9895 74.5105,74.9895 77.5,72C 76.9152,70.6976 76.2485,69.531 75.5,68.5C 75.5,67.8333 75.5,67.1667 75.5,66.5 Z"/></g>
<g><path style="opacity:1" fill="#cdcecf" d="M 196.5,65.5 C 198.786,68.4627 200.619,71.796 202,75.5C 207.458,89.6362 209.625,104.303 208.5,119.5C 207.109,125.902 205.442,132.235 203.5,138.5C 202.21,137.942 201.377,136.942 201,135.5C 200.5,136.5 200,137.5 199.5,138.5C 198.998,139.521 198.332,139.688 197.5,139C 200.097,135.198 200.097,131.364 197.5,127.5C 196.749,128.376 196.249,129.376 196,130.5C 195.833,129.667 195.667,128.833 195.5,128C 196.31,124.208 196.644,120.375 196.5,116.5C 196.822,110.642 196.489,104.975 195.5,99.5C 194.787,91.1015 192.621,83.1015 189,75.5C 188.817,78.3647 188.317,81.0314 187.5,83.5C 187,79.165 187.833,75.165 190,71.5C 190.333,71.8333 190.667,72.1667 191,72.5C 191.333,71.1667 191.667,69.8333 192,68.5C 192.249,69.624 192.749,70.624 193.5,71.5C 195.033,69.711 196.033,67.711 196.5,65.5 Z"/></g>
<g><path style="opacity:1" fill="#238cc1" d="M 17.5,92.5 C 16.5851,101.46 16.2518,110.46 16.5,119.5C 14.8829,118.411 14.0496,116.744 14,114.5C 12.8822,116.765 12.0488,119.099 11.5,121.5C 10.3048,111.279 10.6381,100.946 12.5,90.5C 15.1633,88.8303 16.83,89.4969 17.5,92.5 Z"/></g>
<g><path style="opacity:1" fill="#016c9e" d="M 45.5,108.5 C 45.5,108.833 45.5,109.167 45.5,109.5C 45.4356,113.608 46.4356,117.442 48.5,121C 47.904,125.476 47.904,129.809 48.5,134C 50.3282,135.506 50.6616,137.173 49.5,139C 50.1667,139.333 50.8333,139.667 51.5,140C 50.0267,140.71 49.3601,141.876 49.5,143.5C 47.8762,143.36 46.7096,144.027 46,145.5C 45.3333,144.167 44.6667,144.167 44,145.5C 43.3023,142.589 41.8023,141.923 39.5,143.5C 38.9956,140.731 37.9956,137.731 36.5,134.5C 37.8169,131.258 37.3169,128.258 35,125.5C 34.2973,115.076 34.964,104.743 37,94.5C 40.7157,97.9545 42.7157,102.288 43,107.5C 43.6708,108.252 44.5041,108.586 45.5,108.5 Z"/></g>
<g><path style="opacity:1" fill="#07517b" d="M 75.5,68.5 C 76.2485,69.531 76.9152,70.6976 77.5,72C 74.5105,74.9895 71.5105,77.9895 68.5,81C 69.2529,82.487 70.0862,82.6537 71,81.5C 71.0564,86.249 72.5564,90.4157 75.5,94C 74.3203,97.0911 74.987,98.9244 77.5,99.5C 76.5721,100.768 76.4054,102.101 77,103.5C 77.3333,103.167 77.6667,102.833 78,102.5C 78.4361,104.847 78.9361,107.181 79.5,109.5C 82.8618,112.747 83.8618,116.58 82.5,121C 85.2234,128.575 88.2234,136.075 91.5,143.5C 92.487,146.768 92.8204,150.102 92.5,153.5C 92.2914,154.922 91.7914,156.255 91,157.5C 87.4849,147.403 83.9849,137.403 80.5,127.5C 78.2076,119.62 75.541,111.953 72.5,104.5C 71.0952,98.2855 69.0952,92.2855 66.5,86.5C 67.3764,86.6309 68.0431,86.2975 68.5,85.5C 66.534,82.451 66.034,79.1177 67,75.5C 71.5814,75.1445 74.4148,72.8112 75.5,68.5 Z"/></g>
<g><path style="opacity:1" fill="#697074" d="M 213.5,99.5 C 214.165,102.984 214.499,106.651 214.5,110.5C 214.589,117.059 213.923,123.392 212.5,129.5C 212.5,128.167 212.5,126.833 212.5,125.5C 213.299,116.858 213.632,108.191 213.5,99.5 Z"/></g>
<g><path style="opacity:1" fill="#0c5681" d="M 195.5,99.5 C 196.489,104.975 196.822,110.642 196.5,116.5C 194.74,130.539 190.073,143.539 182.5,155.5C 181.791,154.596 180.791,154.263 179.5,154.5C 179.5,155.833 179.5,157.167 179.5,158.5C 178.5,158.5 177.5,158.5 176.5,158.5C 176.388,162.339 175.721,162.339 174.5,158.5C 175.948,156.333 177.115,154 178,151.5C 178.95,144.193 179.617,136.86 180,129.5C 182.03,123.356 184.197,117.356 186.5,111.5C 188.942,111.646 189.609,110.813 188.5,109C 190.487,107.681 191.654,105.848 192,103.5C 192.182,106.226 192.682,108.893 193.5,111.5C 194.494,107.548 195.16,103.548 195.5,99.5 Z"/></g>
<g><path style="opacity:1" fill="#d5d6d6" d="M 72.5,104.5 C 75.541,111.953 78.2076,119.62 80.5,127.5C 79.7369,130.141 79.5702,132.808 80,135.5C 81.4865,134.259 82.3199,134.759 82.5,137C 81.5777,138.099 80.5777,139.599 79.5,141.5C 80.6034,141.998 81.6034,142.331 82.5,142.5C 81.1152,143.551 80.1152,144.884 79.5,146.5C 80.325,147.386 81.325,147.719 82.5,147.5C 82.5391,149.359 81.7058,150.692 80,151.5C 79.5026,154.146 79.3359,156.813 79.5,159.5C 76.8333,159.5 74.1667,159.5 71.5,159.5C 71.3178,164.794 70.8178,164.794 70,159.5C 69.1667,160.5 68.3333,161.5 67.5,162.5C 66.7078,160.535 66.0412,158.535 65.5,156.5C 65.0431,155.702 64.3764,155.369 63.5,155.5C 62.5,154.167 61.5,152.833 60.5,151.5C 57.3245,141.137 53.9912,130.804 50.5,120.5C 51.6948,120.678 52.8615,121.011 54,121.5C 56.9353,119.808 60.1019,119.142 63.5,119.5C 63.5,116.833 63.5,114.167 63.5,111.5C 66.1667,111.5 68.8333,111.5 71.5,111.5C 71.448,109.097 71.7814,106.764 72.5,104.5 Z"/></g>
<g><path style="opacity:1" fill="#d2d3d5" d="M 181.5,109.5 C 176.014,125.774 170.681,142.107 165.5,158.5C 164.5,161.167 163.5,163.833 162.5,166.5C 161.661,165.359 160.994,164.026 160.5,162.5C 162.73,159.804 164.397,156.804 165.5,153.5C 165.167,152.833 164.833,152.167 164.5,151.5C 163.194,152.912 162.36,154.579 162,156.5C 161.275,154.051 160.275,151.717 159,149.5C 158.86,152.043 158.194,154.377 157,156.5C 156.536,155.906 156.369,155.239 156.5,154.5C 157.008,150.803 157.674,147.136 158.5,143.5C 162.401,133.027 165.734,122.36 168.5,111.5C 170.741,106.592 172.408,101.258 173.5,95.5C 174.329,100.802 174.829,106.136 175,111.5C 175.333,109.833 175.667,108.167 176,106.5C 176.419,110.852 177.086,111.185 178,107.5C 178.335,110.19 179.501,110.857 181.5,109.5 Z"/></g>
<g><path style="opacity:1" fill="#0f4264" d="M 33.5,77.5 C 34.8698,79.2504 35.8698,81.2504 36.5,83.5C 36.5,83.8333 36.5,84.1667 36.5,84.5C 34.5697,87.9366 33.0697,91.6033 32,95.5C 31.3333,106.167 31.3333,116.833 32,127.5C 33.9691,131.196 34.9691,135.196 35,139.5C 35.6543,138.304 36.1543,138.304 36.5,139.5C 36.1445,140.522 35.4778,141.189 34.5,141.5C 28.9293,128.401 27.096,114.734 29,100.5C 30.189,93.081 31.689,85.7477 33.5,78.5C 33.5,78.1667 33.5,77.8333 33.5,77.5 Z"/></g>
<g><path style="opacity:1" fill="#065d8a" d="M 139.5,66.5 C 140.931,66.8807 141.764,67.8807 142,69.5C 142.333,68.8333 142.667,68.1667 143,67.5C 143.814,69.9018 143.647,72.2351 142.5,74.5C 139.847,75.285 139.18,76.785 140.5,79C 138.866,79.4935 137.199,79.6602 135.5,79.5C 135.67,80.8221 135.337,81.9887 134.5,83C 137.554,87.3331 138.888,92.1665 138.5,97.5C 140.124,97.6399 141.29,96.9733 142,95.5C 143.565,99.3287 143.732,102.995 142.5,106.5C 143.5,107.167 144.5,107.833 145.5,108.5C 146.167,110.833 146.833,113.167 147.5,115.5C 148.651,116.731 149.817,116.731 151,115.5C 151.49,116.793 151.657,118.127 151.5,119.5C 152.5,119.5 153.5,119.5 154.5,119.5C 157.843,109.787 160.176,99.7869 161.5,89.5C 160.963,88.2588 160.296,87.0921 159.5,86C 160.72,83.83 160.72,81.6633 159.5,79.5C 161.223,81.2528 162.723,83.2528 164,85.5C 167.403,93.8138 168.903,102.481 168.5,111.5C 165.734,122.36 162.401,133.027 158.5,143.5C 157.603,144.598 156.77,144.598 156,143.5C 153.598,138.364 150.932,133.364 148,128.5C 147.329,127.748 146.496,127.414 145.5,127.5C 145.167,127.5 144.833,127.5 144.5,127.5C 144.5,127.167 144.5,126.833 144.5,126.5C 145.376,126.631 146.043,126.298 146.5,125.5C 145.167,124.5 145.167,123.5 146.5,122.5C 145.758,121.713 144.925,121.047 144,120.5C 143.505,111.818 141.005,103.818 136.5,96.5C 137.309,94.9291 137.643,93.2624 137.5,91.5C 134.95,91.4392 133.45,90.1059 133,87.5C 133.195,84.118 133.028,80.7847 132.5,77.5C 132.608,76.5581 132.941,75.7247 133.5,75C 135.519,74.5503 137.352,73.717 139,72.5C 138.207,70.4995 138.374,68.4995 139.5,66.5 Z"/></g>
<g><path style="opacity:1" fill="#9f9c9e" d="M 209.5,79.5 C 211.802,82.7707 213.636,86.4374 215,90.5C 215.498,93.8168 215.665,97.1501 215.5,100.5C 215.666,109.506 215.5,118.506 215,127.5C 211.84,136.475 209.007,145.475 206.5,154.5C 204.913,157.428 202.913,160.094 200.5,162.5C 205.556,151.98 209.556,140.98 212.5,129.5C 213.923,123.392 214.589,117.059 214.5,110.5C 214.499,106.651 214.165,102.984 213.5,99.5C 213.099,92.5776 211.766,85.9109 209.5,79.5 Z"/></g>
<g><path style="opacity:1" fill="#0b4970" d="M 195.5,99.5 C 195.16,103.548 194.494,107.548 193.5,111.5C 192.682,108.893 192.182,106.226 192,103.5C 191.654,105.848 190.487,107.681 188.5,109C 189.609,110.813 188.942,111.646 186.5,111.5C 184.197,117.356 182.03,123.356 180,129.5C 179.617,136.86 178.95,144.193 178,151.5C 177.115,154 175.948,156.333 174.5,158.5C 175.721,162.339 176.388,162.339 176.5,158.5C 177.5,158.5 178.5,158.5 179.5,158.5C 179.5,157.167 179.5,155.833 179.5,154.5C 180.791,154.263 181.791,154.596 182.5,155.5C 179.901,160.764 176.234,165.097 171.5,168.5C 170.863,165.544 170.363,162.544 170,159.5C 168.571,159.53 167.071,159.197 165.5,158.5C 170.681,142.107 176.014,125.774 181.5,109.5C 185.072,101.211 187.072,92.5444 187.5,83.5C 188.317,81.0314 188.817,78.3647 189,75.5C 192.621,83.1015 194.787,91.1015 195.5,99.5 Z"/></g>
<g><path style="opacity:1" fill="#094368" d="M 145.5,127.5 C 146.496,127.414 147.329,127.748 148,128.5C 150.932,133.364 153.598,138.364 156,143.5C 156.77,144.598 157.603,144.598 158.5,143.5C 157.674,147.136 157.008,150.803 156.5,154.5C 155.883,154.611 155.383,154.944 155,155.5C 154.768,154.263 154.268,153.263 153.5,152.5C 150.837,144.178 148.171,135.845 145.5,127.5 Z"/></g>
<g><path style="opacity:1" fill="#166996" d="M 16.5,119.5 C 17.2154,125.104 18.5487,130.438 20.5,135.5C 21.0241,141.209 22.6907,146.542 25.5,151.5C 25.3874,154.049 26.0541,156.382 27.5,158.5C 25.9052,159.434 24.2385,159.434 22.5,158.5C 19.9578,153.512 17.6245,148.512 15.5,143.5C 13.8466,136.221 12.5132,128.887 11.5,121.5C 12.0488,119.099 12.8822,116.765 14,114.5C 14.0496,116.744 14.8829,118.411 16.5,119.5 Z"/></g>
<g><path style="opacity:1" fill="#d5d5d6" d="M 144.5,127.5 C 144.833,127.5 145.167,127.5 145.5,127.5C 148.171,135.845 150.837,144.178 153.5,152.5C 152.897,154.679 152.23,156.846 151.5,159C 145.871,159.052 140.371,158.218 135,156.5C 134.667,157.833 134.333,159.167 134,160.5C 132.853,159.542 131.853,159.875 131,161.5C 131.497,159.802 131.33,158.135 130.5,156.5C 131.603,156.002 132.603,155.669 133.5,155.5C 132.754,154.264 132.421,152.93 132.5,151.5C 130.297,151.935 128.297,151.935 126.5,151.5C 124.975,148.921 123.641,146.254 122.5,143.5C 121.226,138.677 119.559,134.01 117.5,129.5C 118.735,129.279 119.735,128.612 120.5,127.5C 122.5,129.167 124.5,130.833 126.5,132.5C 127.45,134.598 127.45,136.765 126.5,139C 126.976,142.156 127.309,141.989 127.5,138.5C 132.833,138.5 138.167,138.5 143.5,138.5C 143.5,137.5 143.5,136.5 143.5,135.5C 144.675,135.719 145.675,135.386 146.5,134.5C 144.829,132.49 144.162,130.157 144.5,127.5 Z"/></g>
<g><path style="opacity:1" fill="#0c5c87" d="M 36.5,84.5 C 39.8757,92.2858 42.8757,100.286 45.5,108.5C 44.5041,108.586 43.6708,108.252 43,107.5C 42.7157,102.288 40.7157,97.9545 37,94.5C 34.964,104.743 34.2973,115.076 35,125.5C 37.3169,128.258 37.8169,131.258 36.5,134.5C 37.9956,137.731 38.9956,140.731 39.5,143.5C 41.7332,147.132 43.2332,151.132 44,155.5C 46,157.5 48,159.5 50,161.5C 51.6665,160.66 51.8331,161.16 50.5,163C 52,163.833 53.1667,165 54,166.5C 54.3333,166.167 54.6667,165.833 55,165.5C 56.3333,168.167 57.6667,168.167 59,165.5C 59.5396,167.135 59.0396,168.468 57.5,169.5C 58.0253,170.192 58.6919,170.692 59.5,171C 59.1667,171.333 58.8333,171.667 58.5,172C 60.1089,173.801 61.7756,174.967 63.5,175.5C 66.0894,174.278 66.9228,172.278 66,169.5C 64.927,170.28 63.7604,170.113 62.5,169C 63.0585,168.275 63.3918,167.442 63.5,166.5C 62.723,164.553 61.723,162.72 60.5,161C 62.1231,159.124 61.7898,157.79 59.5,157C 60.4061,155.301 60.7394,153.467 60.5,151.5C 61.5,152.833 62.5,154.167 63.5,155.5C 66.1867,164.393 69.1867,173.226 72.5,182C 72.3333,182.5 72.1667,183 72,183.5C 71.3292,182.748 70.4959,182.414 69.5,182.5C 53.1744,172.839 41.5077,159.172 34.5,141.5C 35.4778,141.189 36.1445,140.522 36.5,139.5C 36.1543,138.304 35.6543,138.304 35,139.5C 34.9691,135.196 33.9691,131.196 32,127.5C 31.3333,116.833 31.3333,106.167 32,95.5C 33.0697,91.6033 34.5697,87.9366 36.5,84.5 Z"/></g>
<g><path style="opacity:1" fill="#d0d1d1" d="M 215.5,100.5 C 215.833,100.5 216.167,100.5 216.5,100.5C 217.119,109.214 217.452,117.881 217.5,126.5C 217.239,128.95 216.572,131.283 215.5,133.5C 216.544,134.623 217.21,135.956 217.5,137.5C 216.754,139.677 215.754,141.677 214.5,143.5C 215.583,145.875 215.583,148.208 214.5,150.5C 213.833,149.5 213.167,148.5 212.5,147.5C 211.52,150.086 211.187,152.753 211.5,155.5C 209.708,155.634 208.042,155.301 206.5,154.5C 209.007,145.475 211.84,136.475 215,127.5C 215.5,118.506 215.666,109.506 215.5,100.5 Z"/></g>
<g><path style="opacity:1" fill="#d0d1d2" d="M 105.5,116.5 C 105.679,118.606 106.679,120.272 108.5,121.5C 109.192,120.975 109.692,120.308 110,119.5C 110.986,120.171 112.153,120.171 113.5,119.5C 106.83,139.844 100.163,160.177 93.5,180.5C 91.7561,183.942 91.0894,187.442 91.5,191C 94.1168,191.822 96.7835,192.322 99.5,192.5C 111.484,194.122 123.484,193.456 135.5,190.5C 133.43,192.863 130.763,194.529 127.5,195.5C 116.849,196.332 106.182,196.832 95.5,197C 102.127,197.354 108.794,198.021 115.5,199C 108.364,200.727 101.197,200.894 94,199.5C 91.2696,199.706 89.1029,200.706 87.5,202.5C 83.9756,201.035 80.309,200.035 76.5,199.5C 70.9275,196.375 65.2608,193.208 59.5,190C 58.6195,189.292 57.9528,188.458 57.5,187.5C 59.7736,185.915 62.107,184.249 64.5,182.5C 63.5,181.833 62.5,181.167 61.5,180.5C 61.6667,180.167 61.8333,179.833 62,179.5C 64.4275,180.781 66.9275,181.781 69.5,182.5C 70.4959,182.414 71.3292,182.748 72,183.5C 72.1667,183 72.3333,182.5 72.5,182C 69.1867,173.226 66.1867,164.393 63.5,155.5C 64.3764,155.369 65.0431,155.702 65.5,156.5C 66.0412,158.535 66.7078,160.535 67.5,162.5C 68.3333,161.5 69.1667,160.5 70,159.5C 70.8178,164.794 71.3178,164.794 71.5,159.5C 74.1667,159.5 76.8333,159.5 79.5,159.5C 79.3359,156.813 79.5026,154.146 80,151.5C 81.7058,150.692 82.5391,149.359 82.5,147.5C 81.325,147.719 80.325,147.386 79.5,146.5C 80.1152,144.884 81.1152,143.551 82.5,142.5C 81.6034,142.331 80.6034,141.998 79.5,141.5C 80.5777,139.599 81.5777,138.099 82.5,137C 82.3199,134.759 81.4865,134.259 80,135.5C 79.5702,132.808 79.7369,130.141 80.5,127.5C 83.9849,137.403 87.4849,147.403 91,157.5C 91.7914,156.255 92.2914,154.922 92.5,153.5C 96.9854,141.228 101.319,128.894 105.5,116.5 Z"/></g>
<g><path style="opacity:1" fill="#f6f6f6" d="M 15.5,143.5 C 15.5,144.5 15.5,145.5 15.5,146.5C 14.1667,146.5 12.8333,146.5 11.5,146.5C 11.5,148.167 11.5,149.833 11.5,151.5C 13.1667,151.5 14.8333,151.5 16.5,151.5C 17.5749,155.938 15.9083,157.938 11.5,157.5C 11.5,159.167 11.5,160.833 11.5,162.5C 12.8734,162.657 14.2068,162.49 15.5,162C 19.2244,157.022 21.2244,157.522 21.5,163.5C 19.8333,163.5 18.1667,163.5 16.5,163.5C 16.5,165.167 16.5,166.833 16.5,168.5C 11.8415,168.015 10.5081,169.848 12.5,174C 13.7932,174.49 15.1266,174.657 16.5,174.5C 16.5,176.167 16.5,177.833 16.5,179.5C 14.8333,179.5 13.1667,179.5 11.5,179.5C 11.5,181.5 11.5,183.5 11.5,185.5C 6.5,184.5 4.5,186.5 5.5,191.5C 7.5,191.5 9.5,191.5 11.5,191.5C 11.6971,195.806 9.69712,197.806 5.5,197.5C 5.5,199.167 5.5,200.833 5.5,202.5C 3.11371,202.741 1.11371,202.075 -0.5,200.5C -0.5,166.5 -0.5,132.5 -0.5,98.5C 0.157674,97.6016 0.824341,96.6016 1.5,95.5C 2.5,96.8333 3.5,96.8333 4.5,95.5C 6.04636,99.3012 4.71302,101.301 0.5,101.5C 0.5,103.167 0.5,104.833 0.5,106.5C 4.90825,106.062 6.57492,108.062 5.5,112.5C 1.5,111.833 -0.166667,113.5 0.5,117.5C 2.16667,117.5 3.83333,117.5 5.5,117.5C 5.12807,114.978 5.96141,112.978 8,111.5C 8.66667,114.167 8.66667,116.833 8,119.5C 7.58605,119.043 7.08605,118.709 6.5,118.5C 4.7482,121.833 5.7482,123.499 9.5,123.5C 9.35729,125.262 9.69063,126.929 10.5,128.5C 9.16667,128.833 7.83333,129.167 6.5,129.5C 5.08486,132.411 3.91819,135.411 3,138.5C 2.75083,137.376 2.25083,136.376 1.5,135.5C -0.242351,139.434 1.09098,141.101 5.5,140.5C 5.5,138.5 5.5,136.5 5.5,134.5C 7.46001,135.138 9.29334,135.138 11,134.5C 10.6432,138.624 12.1432,141.624 15.5,143.5 Z"/></g>
<g><path style="opacity:1" fill="#066794" d="M 45.5,109.5 C 47.0161,113.222 48.6828,116.889 50.5,120.5C 53.9912,130.804 57.3245,141.137 60.5,151.5C 60.7394,153.467 60.4061,155.301 59.5,157C 61.7898,157.79 62.1231,159.124 60.5,161C 61.723,162.72 62.723,164.553 63.5,166.5C 63.3918,167.442 63.0585,168.275 62.5,169C 63.7604,170.113 64.927,170.28 66,169.5C 66.9228,172.278 66.0894,174.278 63.5,175.5C 61.7756,174.967 60.1089,173.801 58.5,172C 58.8333,171.667 59.1667,171.333 59.5,171C 58.6919,170.692 58.0253,170.192 57.5,169.5C 59.0396,168.468 59.5396,167.135 59,165.5C 57.6667,168.167 56.3333,168.167 55,165.5C 54.6667,165.833 54.3333,166.167 54,166.5C 53.1667,165 52,163.833 50.5,163C 51.8331,161.16 51.6665,160.66 50,161.5C 48,159.5 46,157.5 44,155.5C 43.2332,151.132 41.7332,147.132 39.5,143.5C 41.8023,141.923 43.3023,142.589 44,145.5C 44.6667,144.167 45.3333,144.167 46,145.5C 46.7096,144.027 47.8762,143.36 49.5,143.5C 49.3601,141.876 50.0267,140.71 51.5,140C 50.8333,139.667 50.1667,139.333 49.5,139C 50.6616,137.173 50.3282,135.506 48.5,134C 47.904,129.809 47.904,125.476 48.5,121C 46.4356,117.442 45.4356,113.608 45.5,109.5 Z"/></g>
<g><path style="opacity:1" fill="#f3f2f3" d="M 216.5,100.5 C 217.924,102.515 218.59,104.848 218.5,107.5C 220.331,106.948 221.997,106.948 223.5,107.5C 223.023,108.478 222.357,109.311 221.5,110C 222.308,110.308 222.975,110.808 223.5,111.5C 216.934,114.085 216.934,116.419 223.5,118.5C 223.5,120.167 223.5,121.833 223.5,123.5C 219.092,123.062 217.425,125.062 218.5,129.5C 220.621,129.325 222.621,129.659 224.5,130.5C 224.5,158.167 224.5,185.833 224.5,213.5C 222.5,213.5 220.5,213.5 218.5,213.5C 218.5,211.833 218.5,210.167 218.5,208.5C 216.833,208.5 215.167,208.5 213.5,208.5C 213.512,212.446 211.512,214.113 207.5,213.5C 208.011,209.612 206.345,207.279 202.5,206.5C 201.841,203.176 199.841,201.843 196.5,202.5C 196.5,200.5 196.5,198.5 196.5,196.5C 200.5,197.167 202.167,195.5 201.5,191.5C 206.168,192.161 208.168,190.161 207.5,185.5C 203.651,185.019 201.651,186.686 201.5,190.5C 200.167,190.5 198.833,190.5 197.5,190.5C 197.579,189.07 197.246,187.736 196.5,186.5C 198.045,185.548 199.712,185.215 201.5,185.5C 201.5,183.833 201.5,182.167 201.5,180.5C 199.833,180.5 198.167,180.5 196.5,180.5C 196.737,181.791 196.404,182.791 195.5,183.5C 195.214,181.723 194.547,180.056 193.5,178.5C 194.304,176.043 195.304,176.043 196.5,178.5C 198.045,179.452 199.712,179.785 201.5,179.5C 201.5,177.833 201.5,176.167 201.5,174.5C 206.168,175.161 208.168,173.161 207.5,168.5C 209.167,168.5 210.833,168.5 212.5,168.5C 212.5,165.167 210.833,163.5 207.5,163.5C 207.5,162.5 207.5,161.5 207.5,160.5C 206.659,158.621 206.325,156.621 206.5,154.5C 208.042,155.301 209.708,155.634 211.5,155.5C 211.187,152.753 211.52,150.086 212.5,147.5C 213.167,148.5 213.833,149.5 214.5,150.5C 215.583,148.208 215.583,145.875 214.5,143.5C 215.754,141.677 216.754,139.677 217.5,137.5C 217.21,135.956 216.544,134.623 215.5,133.5C 216.572,131.283 217.239,128.95 217.5,126.5C 217.452,117.881 217.119,109.214 216.5,100.5 Z"/></g>
<g><path style="opacity:1" fill="#cfcfd0" d="M 162.5,166.5 C 161.372,170.55 160.039,174.55 158.5,178.5C 158.957,179.298 159.624,179.631 160.5,179.5C 160.888,182.907 163.221,184.24 167.5,183.5C 167.719,184.675 167.386,185.675 166.5,186.5C 163.533,189.118 160.533,191.451 157.5,193.5C 156.251,195.136 154.584,196.303 152.5,197C 144.728,199.647 137.061,202.147 129.5,204.5C 115.361,206.272 101.361,205.605 87.5,202.5C 89.1029,200.706 91.2696,199.706 94,199.5C 101.197,200.894 108.364,200.727 115.5,199C 108.794,198.021 102.127,197.354 95.5,197C 106.182,196.832 116.849,196.332 127.5,195.5C 130.763,194.529 133.43,192.863 135.5,190.5C 136.708,189.766 138.041,189.433 139.5,189.5C 135.167,176.833 130.833,164.167 126.5,151.5C 128.297,151.935 130.297,151.935 132.5,151.5C 132.421,152.93 132.754,154.264 133.5,155.5C 132.603,155.669 131.603,156.002 130.5,156.5C 131.33,158.135 131.497,159.802 131,161.5C 131.853,159.875 132.853,159.542 134,160.5C 134.333,159.167 134.667,157.833 135,156.5C 140.371,158.218 145.871,159.052 151.5,159C 152.23,156.846 152.897,154.679 153.5,152.5C 154.268,153.263 154.768,154.263 155,155.5C 155.383,154.944 155.883,154.611 156.5,154.5C 156.369,155.239 156.536,155.906 157,156.5C 158.194,154.377 158.86,152.043 159,149.5C 160.275,151.717 161.275,154.051 162,156.5C 162.36,154.579 163.194,152.912 164.5,151.5C 164.833,152.167 165.167,152.833 165.5,153.5C 164.397,156.804 162.73,159.804 160.5,162.5C 160.994,164.026 161.661,165.359 162.5,166.5 Z"/></g>
<g><path style="opacity:1" fill="#0d5078" d="M 113.5,119.5 C 115.009,122.678 116.342,126.011 117.5,129.5C 119.559,134.01 121.226,138.677 122.5,143.5C 120.689,141.615 119.522,139.281 119,136.5C 118.667,137.167 118.333,137.833 118,138.5C 116.225,135.956 114.392,135.956 112.5,138.5C 111.34,148.122 108.507,157.122 104,165.5C 102.614,171.892 100.781,177.892 98.5,183.5C 98.1667,172.833 97.8333,172.833 97.5,183.5C 96.5,183.5 95.5,183.5 94.5,183.5C 94.7373,182.209 94.404,181.209 93.5,180.5C 100.163,160.177 106.83,139.844 113.5,119.5 Z"/></g>
<g><path style="opacity:1" fill="#c8c9c8" d="M 206.5,154.5 C 206.325,156.621 206.659,158.621 207.5,160.5C 206.521,161.765 205.521,163.099 204.5,164.5C 203.833,164.167 203.167,163.833 202.5,163.5C 199.378,166.287 197.045,169.621 195.5,173.5C 194.234,174.362 192.901,175.029 191.5,175.5C 194.256,170.984 197.256,166.651 200.5,162.5C 202.913,160.094 204.913,157.428 206.5,154.5 Z"/></g>
<g><path style="opacity:1" fill="#0b2e4b" d="M 165.5,158.5 C 167.071,159.197 168.571,159.53 170,159.5C 170.363,162.544 170.863,165.544 171.5,168.5C 168.14,172.527 164.473,176.194 160.5,179.5C 159.624,179.631 158.957,179.298 158.5,178.5C 160.039,174.55 161.372,170.55 162.5,166.5C 163.5,163.833 164.5,161.167 165.5,158.5 Z"/></g>
<g><path style="opacity:1" fill="#297ba8" d="M 212.5,125.5 C 212.5,126.833 212.5,128.167 212.5,129.5C 209.556,140.98 205.556,151.98 200.5,162.5C 197.256,166.651 194.256,170.984 191.5,175.5C 191.167,175.5 190.833,175.5 190.5,175.5C 190.167,175.5 189.833,175.5 189.5,175.5C 189.649,174.448 189.483,173.448 189,172.5C 187.841,173.566 187.008,173.233 186.5,171.5C 194.018,161.465 199.684,150.465 203.5,138.5C 205.442,132.235 207.109,125.902 208.5,119.5C 209.302,118.048 209.802,116.382 210,114.5C 210.333,118.833 210.667,123.167 211,127.5C 211.278,126.584 211.778,125.918 212.5,125.5 Z"/></g>
<g><path style="opacity:1" fill="#e7e7e7" d="M 207.5,160.5 C 207.5,161.5 207.5,162.5 207.5,163.5C 210.833,163.5 212.5,165.167 212.5,168.5C 210.833,168.5 209.167,168.5 207.5,168.5C 208.168,173.161 206.168,175.161 201.5,174.5C 201.5,176.167 201.5,177.833 201.5,179.5C 199.712,179.785 198.045,179.452 196.5,178.5C 195.304,176.043 194.304,176.043 193.5,178.5C 194.547,180.056 195.214,181.723 195.5,183.5C 194.526,185.085 193.026,186.085 191,186.5C 190.506,188.134 190.34,189.801 190.5,191.5C 188.131,191.149 185.797,190.982 183.5,191C 184.406,192.699 184.739,194.533 184.5,196.5C 181.143,196.894 178.81,195.561 177.5,192.5C 176.749,193.376 176.249,194.376 176,195.5C 174.334,194.66 174.167,195.16 175.5,197C 173.187,197.662 170.854,198.162 168.5,198.5C 168.5,199.833 168.5,201.167 168.5,202.5C 166.5,202.5 164.5,202.5 162.5,202.5C 162.5,204.5 162.5,206.5 162.5,208.5C 160.833,208.5 159.167,208.5 157.5,208.5C 157.5,210.167 157.5,211.833 157.5,213.5C 159.167,213.5 160.833,213.5 162.5,213.5C 161.833,209.5 163.5,207.833 167.5,208.5C 168.575,212.938 166.908,214.938 162.5,214.5C 162.5,216.167 162.5,217.833 162.5,219.5C 160.5,219.5 158.5,219.5 156.5,219.5C 156.785,217.712 156.452,216.045 155.5,214.5C 154.28,215.711 153.113,215.711 152,214.5C 151.51,215.793 151.343,217.127 151.5,218.5C 149.833,218.5 148.167,218.5 146.5,218.5C 146.5,217.167 146.5,215.833 146.5,214.5C 145.5,214.5 144.5,214.5 143.5,214.5C 144.725,213.063 145.725,211.396 146.5,209.5C 148.071,208.691 149.738,208.357 151.5,208.5C 151.281,207.325 151.614,206.325 152.5,205.5C 154.261,204.965 155.594,203.965 156.5,202.5C 161.044,201.815 164.711,199.815 167.5,196.5C 171.753,193.924 175.753,190.924 179.5,187.5C 184.071,184.383 187.737,180.383 190.5,175.5C 190.833,175.5 191.167,175.5 191.5,175.5C 192.901,175.029 194.234,174.362 195.5,173.5C 197.045,169.621 199.378,166.287 202.5,163.5C 203.167,163.833 203.833,164.167 204.5,164.5C 205.521,163.099 206.521,161.765 207.5,160.5 Z"/></g>
<g><path style="opacity:1" fill="#d0d1d3" d="M 33.5,78.5 C 31.689,85.7477 30.189,93.081 29,100.5C 27.096,114.734 28.9293,128.401 34.5,141.5C 41.5077,159.172 53.1744,172.839 69.5,182.5C 66.9275,181.781 64.4275,180.781 62,179.5C 61.8333,179.833 61.6667,180.167 61.5,180.5C 62.5,181.167 63.5,181.833 64.5,182.5C 62.107,184.249 59.7736,185.915 57.5,187.5C 52.6144,184.794 48.1144,181.461 44,177.5C 37.2259,169.232 31.0592,160.566 25.5,151.5C 22.6907,146.542 21.0241,141.209 20.5,135.5C 20.5,132.833 20.5,130.167 20.5,127.5C 22.3904,127.703 23.8904,127.037 25,125.5C 25.3333,125.833 25.6667,126.167 26,126.5C 26.4221,124.645 26.9221,122.811 27.5,121C 26.3769,112.536 26.2102,104.036 27,95.5C 29.2369,90.3558 30.9035,85.0225 32,79.5C 32.3826,78.944 32.8826,78.6107 33.5,78.5 Z"/></g>
<g><path style="opacity:1" fill="#d1d2d3" d="M 196.5,116.5 C 196.644,120.375 196.31,124.208 195.5,128C 195.667,128.833 195.833,129.667 196,130.5C 196.249,129.376 196.749,128.376 197.5,127.5C 200.097,131.364 200.097,135.198 197.5,139C 198.332,139.688 198.998,139.521 199.5,138.5C 200,137.5 200.5,136.5 201,135.5C 201.377,136.942 202.21,137.942 203.5,138.5C 199.684,150.465 194.018,161.465 186.5,171.5C 181.003,176.829 175.336,181.996 169.5,187C 165.845,189.827 161.845,191.993 157.5,193.5C 160.533,191.451 163.533,189.118 166.5,186.5C 167.386,185.675 167.719,184.675 167.5,183.5C 163.221,184.24 160.888,182.907 160.5,179.5C 164.473,176.194 168.14,172.527 171.5,168.5C 176.234,165.097 179.901,160.764 182.5,155.5C 190.073,143.539 194.74,130.539 196.5,116.5 Z"/></g>
<g><path style="opacity:1" fill="#1b5479" d="M 25.5,151.5 C 31.0592,160.566 37.2259,169.232 44,177.5C 48.1144,181.461 52.6144,184.794 57.5,187.5C 57.9528,188.458 58.6195,189.292 59.5,190C 65.2608,193.208 70.9275,196.375 76.5,199.5C 74.8053,200.011 73.1386,200.678 71.5,201.5C 74.1347,202.272 76.8014,202.438 79.5,202C 78.6919,202.308 78.0253,202.808 77.5,203.5C 79.5862,204.489 81.2529,205.822 82.5,207.5C 76.6932,205.898 71.0266,203.898 65.5,201.5C 53.3386,194.672 42.672,186.005 33.5,175.5C 29.4394,170.103 25.7727,164.436 22.5,158.5C 24.2385,159.434 25.9052,159.434 27.5,158.5C 26.0541,156.382 25.3874,154.049 25.5,151.5 Z"/></g>
<g><path style="opacity:1" fill="#f5f5f5" d="M 224.5,213.5 C 224.5,217.167 224.5,220.833 224.5,224.5C 194.5,224.5 164.5,224.5 134.5,224.5C 134.671,221.512 133.338,219.512 130.5,218.5C 133.2,215.925 134.533,216.258 134.5,219.5C 138.5,220.167 140.167,218.5 139.5,214.5C 140.5,214.5 141.5,214.5 142.5,214.5C 142.833,214.5 143.167,214.5 143.5,214.5C 144.5,214.5 145.5,214.5 146.5,214.5C 146.5,215.833 146.5,217.167 146.5,218.5C 148.167,218.5 149.833,218.5 151.5,218.5C 151.343,217.127 151.51,215.793 152,214.5C 153.113,215.711 154.28,215.711 155.5,214.5C 156.452,216.045 156.785,217.712 156.5,219.5C 158.5,219.5 160.5,219.5 162.5,219.5C 162.5,217.833 162.5,216.167 162.5,214.5C 166.908,214.938 168.575,212.938 167.5,208.5C 163.5,207.833 161.833,209.5 162.5,213.5C 160.833,213.5 159.167,213.5 157.5,213.5C 157.5,211.833 157.5,210.167 157.5,208.5C 159.167,208.5 160.833,208.5 162.5,208.5C 162.5,206.5 162.5,204.5 162.5,202.5C 164.5,202.5 166.5,202.5 168.5,202.5C 168.5,201.167 168.5,199.833 168.5,198.5C 170.854,198.162 173.187,197.662 175.5,197C 174.167,195.16 174.334,194.66 176,195.5C 176.249,194.376 176.749,193.376 177.5,192.5C 178.81,195.561 181.143,196.894 184.5,196.5C 184.739,194.533 184.406,192.699 183.5,191C 185.797,190.982 188.131,191.149 190.5,191.5C 190.34,189.801 190.506,188.134 191,186.5C 193.026,186.085 194.526,185.085 195.5,183.5C 196.404,182.791 196.737,181.791 196.5,180.5C 198.167,180.5 199.833,180.5 201.5,180.5C 201.5,182.167 201.5,183.833 201.5,185.5C 199.712,185.215 198.045,185.548 196.5,186.5C 197.246,187.736 197.579,189.07 197.5,190.5C 198.833,190.5 200.167,190.5 201.5,190.5C 201.651,186.686 203.651,185.019 207.5,185.5C 208.168,190.161 206.168,192.161 201.5,191.5C 202.167,195.5 200.5,197.167 196.5,196.5C 196.5,198.5 196.5,200.5 196.5,202.5C 199.841,201.843 201.841,203.176 202.5,206.5C 206.345,207.279 208.011,209.612 207.5,213.5C 211.512,214.113 213.512,212.446 213.5,208.5C 215.167,208.5 216.833,208.5 218.5,208.5C 218.5,210.167 218.5,211.833 218.5,213.5C 220.5,213.5 222.5,213.5 224.5,213.5 Z"/></g>
<g><path style="opacity:1" fill="#4088b3" d="M 186.5,171.5 C 187.008,173.233 187.841,173.566 189,172.5C 189.483,173.448 189.649,174.448 189.5,175.5C 185.767,179.227 182.434,183.227 179.5,187.5C 175.753,190.924 171.753,193.924 167.5,196.5C 163.594,198.129 159.927,200.129 156.5,202.5C 150.182,204.992 143.849,207.325 137.5,209.5C 131.541,210.489 125.541,211.156 119.5,211.5C 122.362,210.868 125.196,209.868 128,208.5C 128.333,208.833 128.667,209.167 129,209.5C 131.069,208.736 133.236,208.236 135.5,208C 133.833,207.667 132.167,207.333 130.5,207C 131.883,205.539 131.549,204.706 129.5,204.5C 137.061,202.147 144.728,199.647 152.5,197C 154.584,196.303 156.251,195.136 157.5,193.5C 161.845,191.993 165.845,189.827 169.5,187C 175.336,181.996 181.003,176.829 186.5,171.5 Z"/></g>
<g><path style="opacity:1" fill="#055c89" d="M 122.5,143.5 C 123.641,146.254 124.975,148.921 126.5,151.5C 130.833,164.167 135.167,176.833 139.5,189.5C 138.041,189.433 136.708,189.766 135.5,190.5C 123.484,193.456 111.484,194.122 99.5,192.5C 100.239,192.631 100.906,192.464 101.5,192C 99.5712,189.575 98.5712,186.742 98.5,183.5C 100.781,177.892 102.614,171.892 104,165.5C 108.507,157.122 111.34,148.122 112.5,138.5C 114.392,135.956 116.225,135.956 118,138.5C 118.333,137.833 118.667,137.167 119,136.5C 119.522,139.281 120.689,141.615 122.5,143.5 Z"/></g>
<g><path style="opacity:1" fill="#006694" d="M 111.5,151.5 C 114.167,151.5 116.833,151.5 119.5,151.5C 119.5,152.5 119.5,153.5 119.5,154.5C 120.5,154.5 121.5,154.5 122.5,154.5C 122.586,158.857 122.92,163.19 123.5,167.5C 125.167,167.5 126.833,167.5 128.5,167.5C 129.76,173.219 129.76,177.386 128.5,180C 122.042,182.539 115.375,183.539 108.5,183C 107.689,180.895 106.689,178.895 105.5,177C 107.642,168.279 109.642,159.779 111.5,151.5 Z"/></g>
<g><path style="opacity:1" fill="#8b8f95" d="M 189.5,175.5 C 189.833,175.5 190.167,175.5 190.5,175.5C 187.737,180.383 184.071,184.383 179.5,187.5C 182.434,183.227 185.767,179.227 189.5,175.5 Z"/></g>
<g><path style="opacity:1" fill="#093d5f" d="M 98.5,183.5 C 98.5712,186.742 99.5712,189.575 101.5,192C 100.906,192.464 100.239,192.631 99.5,192.5C 96.7835,192.322 94.1168,191.822 91.5,191C 91.0894,187.442 91.7561,183.942 93.5,180.5C 94.404,181.209 94.7373,182.209 94.5,183.5C 95.5,183.5 96.5,183.5 97.5,183.5C 97.8333,172.833 98.1667,172.833 98.5,183.5 Z"/></g>
<g><path style="opacity:1" fill="#f3f3f3" d="M 15.5,143.5 C 17.6245,148.512 19.9578,153.512 22.5,158.5C 25.7727,164.436 29.4394,170.103 33.5,175.5C 34.5463,177.785 34.5463,180.118 33.5,182.5C 35.2624,182.357 36.9291,182.691 38.5,183.5C 39.3142,185.766 39.8142,188.1 40,190.5C 45.4426,192.791 45.1093,195.125 39,197.5C 38.5065,199.134 38.3398,200.801 38.5,202.5C 40.5,202.833 42.5,203.167 44.5,203.5C 44.5,205.167 44.5,206.833 44.5,208.5C 46.1667,208.5 47.8333,208.5 49.5,208.5C 49.5,210.167 49.5,211.833 49.5,213.5C 47.712,213.785 46.0453,213.452 44.5,212.5C 45.7178,211.197 45.3845,210.197 43.5,209.5C 41.9547,208.548 40.288,208.215 38.5,208.5C 38.9807,212.349 37.314,214.349 33.5,214.5C 33.5,216.167 33.5,217.833 33.5,219.5C 35.1667,219.5 36.8333,219.5 38.5,219.5C 38.5,221.167 38.5,222.833 38.5,224.5C 25.5,224.5 12.5,224.5 -0.5,224.5C -0.5,216.5 -0.5,208.5 -0.5,200.5C 1.11371,202.075 3.11371,202.741 5.5,202.5C 5.5,200.833 5.5,199.167 5.5,197.5C 9.69712,197.806 11.6971,195.806 11.5,191.5C 9.5,191.5 7.5,191.5 5.5,191.5C 4.5,186.5 6.5,184.5 11.5,185.5C 11.5,183.5 11.5,181.5 11.5,179.5C 13.1667,179.5 14.8333,179.5 16.5,179.5C 16.5,177.833 16.5,176.167 16.5,174.5C 15.1266,174.657 13.7932,174.49 12.5,174C 10.5081,169.848 11.8415,168.015 16.5,168.5C 16.5,166.833 16.5,165.167 16.5,163.5C 18.1667,163.5 19.8333,163.5 21.5,163.5C 21.2244,157.522 19.2244,157.022 15.5,162C 14.2068,162.49 12.8734,162.657 11.5,162.5C 11.5,160.833 11.5,159.167 11.5,157.5C 15.9083,157.938 17.5749,155.938 16.5,151.5C 14.8333,151.5 13.1667,151.5 11.5,151.5C 11.5,149.833 11.5,148.167 11.5,146.5C 12.8333,146.5 14.1667,146.5 15.5,146.5C 15.5,145.5 15.5,144.5 15.5,143.5 Z"/></g>
<g><path style="opacity:1" fill="#95989d" d="M 167.5,196.5 C 164.711,199.815 161.044,201.815 156.5,202.5C 159.927,200.129 163.594,198.129 167.5,196.5 Z"/></g>
<g><path style="opacity:1" fill="#0f6c9b" d="M 76.5,199.5 C 80.309,200.035 83.9756,201.035 87.5,202.5C 101.361,205.605 115.361,206.272 129.5,204.5C 131.549,204.706 131.883,205.539 130.5,207C 132.167,207.333 133.833,207.667 135.5,208C 133.236,208.236 131.069,208.736 129,209.5C 128.667,209.167 128.333,208.833 128,208.5C 125.196,209.868 122.362,210.868 119.5,211.5C 111.493,211.666 103.493,211.5 95.5,211C 90.9216,210.466 86.5882,209.3 82.5,207.5C 81.2529,205.822 79.5862,204.489 77.5,203.5C 78.0253,202.808 78.6919,202.308 79.5,202C 76.8014,202.438 74.1347,202.272 71.5,201.5C 73.1386,200.678 74.8053,200.011 76.5,199.5 Z"/></g>
<g><path style="opacity:1" fill="#eeeeee" d="M 33.5,175.5 C 42.672,186.005 53.3386,194.672 65.5,201.5C 66.973,203.395 68.6397,205.061 70.5,206.5C 69.0536,207.613 67.3869,207.78 65.5,207C 67.8912,206.309 67.8912,205.309 65.5,204C 64.2068,203.51 62.8734,203.343 61.5,203.5C 61.5,204.833 61.5,206.167 61.5,207.5C 59.3043,207.565 57.3043,208.232 55.5,209.5C 56.0522,211.003 56.0522,212.669 55.5,214.5C 53.8333,214.5 52.1667,214.5 50.5,214.5C 49.8333,218.5 51.5,220.167 55.5,219.5C 55.5,221.167 55.5,222.833 55.5,224.5C 49.8333,224.5 44.1667,224.5 38.5,224.5C 38.5,222.833 38.5,221.167 38.5,219.5C 36.8333,219.5 35.1667,219.5 33.5,219.5C 33.5,217.833 33.5,216.167 33.5,214.5C 37.314,214.349 38.9807,212.349 38.5,208.5C 40.288,208.215 41.9547,208.548 43.5,209.5C 45.3845,210.197 45.7178,211.197 44.5,212.5C 46.0453,213.452 47.712,213.785 49.5,213.5C 49.5,211.833 49.5,210.167 49.5,208.5C 47.8333,208.5 46.1667,208.5 44.5,208.5C 44.5,206.833 44.5,205.167 44.5,203.5C 42.5,203.167 40.5,202.833 38.5,202.5C 38.3398,200.801 38.5065,199.134 39,197.5C 45.1093,195.125 45.4426,192.791 40,190.5C 39.8142,188.1 39.3142,185.766 38.5,183.5C 36.9291,182.691 35.2624,182.357 33.5,182.5C 34.5463,180.118 34.5463,177.785 33.5,175.5 Z"/></g>
<g><path style="opacity:1" fill="#9d9b9e" d="M 65.5,201.5 C 71.0266,203.898 76.6932,205.898 82.5,207.5C 86.5882,209.3 90.9216,210.466 95.5,211C 103.493,211.5 111.493,211.666 119.5,211.5C 125.541,211.156 131.541,210.489 137.5,209.5C 134.544,211.341 131.211,212.341 127.5,212.5C 116.85,213.346 106.183,213.679 95.5,213.5C 92.8127,213.664 90.146,213.497 87.5,213C 82.2692,209.719 76.6026,207.552 70.5,206.5C 68.6397,205.061 66.973,203.395 65.5,201.5 Z"/></g>
<g><path style="opacity:1" fill="#f2f2f2" d="M 70.5,206.5 C 76.6026,207.552 82.2692,209.719 87.5,213C 90.146,213.497 92.8127,213.664 95.5,213.5C 100.187,216.995 105.187,217.329 110.5,214.5C 112.617,218.419 115.284,219.085 118.5,216.5C 121.103,217.562 123.77,217.728 126.5,217C 129.394,215.161 132.227,213.327 135,211.5C 137.069,212.264 139.236,212.764 141.5,213C 142.056,213.383 142.389,213.883 142.5,214.5C 141.5,214.5 140.5,214.5 139.5,214.5C 140.167,218.5 138.5,220.167 134.5,219.5C 134.533,216.258 133.2,215.925 130.5,218.5C 133.338,219.512 134.671,221.512 134.5,224.5C 108.167,224.5 81.8333,224.5 55.5,224.5C 55.5,222.833 55.5,221.167 55.5,219.5C 51.5,220.167 49.8333,218.5 50.5,214.5C 52.1667,214.5 53.8333,214.5 55.5,214.5C 56.0522,212.669 56.0522,211.003 55.5,209.5C 57.3043,208.232 59.3043,207.565 61.5,207.5C 61.5,206.167 61.5,204.833 61.5,203.5C 62.8734,203.343 64.2068,203.51 65.5,204C 67.8912,205.309 67.8912,206.309 65.5,207C 67.3869,207.78 69.0536,207.613 70.5,206.5 Z"/></g>
<g><path style="opacity:1" fill="#c9c9c9" d="M 156.5,202.5 C 155.594,203.965 154.261,204.965 152.5,205.5C 151.614,206.325 151.281,207.325 151.5,208.5C 149.738,208.357 148.071,208.691 146.5,209.5C 145.725,211.396 144.725,213.063 143.5,214.5C 143.167,214.5 142.833,214.5 142.5,214.5C 142.389,213.883 142.056,213.383 141.5,213C 139.236,212.764 137.069,212.264 135,211.5C 132.227,213.327 129.394,215.161 126.5,217C 123.77,217.728 121.103,217.562 118.5,216.5C 115.284,219.085 112.617,218.419 110.5,214.5C 105.187,217.329 100.187,216.995 95.5,213.5C 106.183,213.679 116.85,213.346 127.5,212.5C 131.211,212.341 134.544,211.341 137.5,209.5C 143.849,207.325 150.182,204.992 156.5,202.5 Z"/></g>
</svg>
